<?xml version="1.0" standalone="no"?>
<!DOCTYPE svg PUBLIC "-//W3C//DTD SVG 1.1//EN" "http://www.w3.org/Graphics/SVG/1.1/DTD/svg11.dtd" >
<svg>
<metadata>
Created by FontForge 20110222 at Wed Oct 24 08:21:43 2012
 By Stefan Warting

</metadata>
<defs>
<font id="MetaPro-Bold" horiz-adv-x="570" >
  <font-face 
    font-family="MetaPro-Bold"
    font-weight="700"
    font-stretch="normal"
    units-per-em="1000"
    panose-1="2 0 5 3 4 0 0 2 0 4"
    ascent="754"
    descent="-246"
    x-height="512"
    cap-height="695"
    bbox="-204 -307 1450 980"
    underline-thickness="20"
    underline-position="-122"
    stemh="98"
    stemv="142"
    unicode-range="U+000D-FB06"
  />
<missing-glyph horiz-adv-x="554" 
d="M57 0v695h440v-695h-440zM107 50h340v595h-340v-595z" />
    <glyph glyph-name="IJ" unicode="IJ" horiz-adv-x="573" 
d="M216 0h-146v695h146v-695zM503 135c0 -90 -3 -108 -10 -136c-20 -85 -99 -139 -162 -163l-65 72c36 22 69 56 81 84c11 25 14 53 14 128v575h142v-560z" />
    <glyph glyph-name="ij" unicode="ij" horiz-adv-x="537" 
d="M204 0h-134v503l134 21v-524zM220 653c0 -46 -37 -83 -83 -83c-45 0 -82 37 -82 83s38 83 84 83c45 0 81 -37 81 -83zM467 14c0 -97 -20 -136 -38 -159c-24 -31 -58 -56 -104 -75l-56 74c21 17 39 40 49 58c12 22 16 50 16 98v481l133 32v-509zM485 655
c0 -46 -38 -84 -84 -84s-82 37 -82 82c0 46 37 84 83 84c45 0 83 -37 83 -82z" />
    <glyph glyph-name="uniFB00" unicode="ff" horiz-adv-x="600" 
d="M374 418h-168v-418h-131v418h-46v94h49c0 22 -5 47 -5 70c0 101 60 159 165 159c44 0 80 -9 121 -32l-43 -83c-29 14 -39 17 -55 17c-34 0 -56 -21 -56 -58v-73h169c0 22 -5 47 -5 70c0 101 60 159 165 159c44 0 88 -11 111 -24l-43 -83c-13 6 -34 9 -45 9
c-34 0 -56 -21 -56 -58v-73h123l-34 -94h-85v-418h-131v418z" />
    <glyph glyph-name="fi" unicode="fi" horiz-adv-x="586" 
d="M511 0h-134v418h-171v-418h-131v418h-46v94h49c0 22 -5 47 -5 70c0 101 60 159 165 159c44 0 88 -11 111 -24l-43 -83c-13 6 -34 9 -45 9c-34 0 -56 -21 -56 -58v-73h306v-512zM527 653c0 -46 -37 -83 -83 -83c-45 0 -82 37 -82 83s38 83 84 83c45 0 81 -37 81 -83z" />
    <glyph glyph-name="fl" unicode="fl" horiz-adv-x="590" 
d="M346 717l-43 -83c-13 6 -34 9 -45 9c-34 0 -56 -21 -56 -58v-73h123l-34 -94h-85v-418h-131v418h-46v94h46c0 22 -5 47 -5 70c0 101 60 159 165 159c44 0 88 -11 111 -24zM585 2c-23 -9 -51 -14 -80 -14c-57 0 -103 27 -119 70c-10 26 -12 42 -12 115v382
c0 67 -2 108 -7 154l137 31c5 -28 7 -61 7 -133v-399c0 -88 1 -100 9 -114c5 -9 16 -14 27 -14c5 0 10 0 15 2z" />
    <glyph glyph-name="uniFB03" unicode="ffi" horiz-adv-x="888" 
d="M377 418h-171v-418h-131v418h-46v94h49c0 22 -5 47 -5 70c0 101 60 159 165 159c44 0 80 -9 121 -32l-43 -83c-29 14 -39 17 -55 17c-34 0 -56 -21 -56 -58v-73h175c0 22 -5 50 -5 70c0 101 60 159 165 159c44 0 88 -11 111 -24l-43 -83c-13 6 -34 9 -45 9
c-34 0 -56 -21 -56 -58v-73h306v-512h-134v418h-171v-418h-131v418zM748 736c45 0 81 -37 81 -83s-37 -83 -83 -83c-45 0 -82 37 -82 83s38 83 84 83z" />
    <glyph glyph-name="uniFB04" unicode="ffl" horiz-adv-x="889" 
d="M374 418h-168v-418h-131v418h-46v94h49c0 22 -5 47 -5 70c0 101 60 159 165 159c44 0 80 -9 121 -32l-43 -83c-29 14 -39 17 -55 17c-34 0 -56 -21 -56 -58v-73h169c0 22 -5 47 -5 70c0 101 60 159 165 159c44 0 88 -11 111 -24l-43 -83c-13 6 -34 9 -45 9
c-34 0 -56 -21 -56 -58v-73h123l-34 -94h-85v-418h-131v418zM803 740c5 -28 7 -61 7 -133v-399c0 -88 1 -100 9 -114c5 -9 16 -14 27 -14c5 0 8 0 15 2l23 -80c-23 -9 -51 -14 -80 -14c-57 0 -103 27 -119 70c-10 26 -12 42 -12 115v382c0 67 -2 108 -7 154z" />
    <glyph glyph-name="uniFB05" unicode="&#x17f;t" horiz-adv-x="656" 
d="M641 11c-39 -16 -74 -23 -109 -23c-68 0 -122 30 -138 75c-8 22 -9 32 -9 79v278h-184v-420h-131v420h-46v92h49c-3 21 -5 47 -5 70c0 101 60 159 165 159c44 0 80 -9 121 -32l-43 -83c-29 14 -39 17 -55 17c-34 0 -56 -21 -56 -58v-73h185c0 50 0 83 5 121l136 34
c-5 -47 -8 -103 -8 -155h120l-34 -92h-86v-257c0 -65 12 -82 58 -82c12 0 24 3 48 10z" />
    <glyph glyph-name=".notdef" horiz-adv-x="554" 
d="M57 0v695h440v-695h-440zM107 50h340v595h-340v-595z" />
    <glyph glyph-name=".null" horiz-adv-x="0" 
 />
    <glyph glyph-name=".null" horiz-adv-x="0" 
 />
    <glyph glyph-name="CR" unicode="&#xd;" horiz-adv-x="225" 
 />
    <glyph glyph-name="space" unicode=" " horiz-adv-x="225" 
 />
    <glyph glyph-name="exclam" unicode="!" horiz-adv-x="305" 
d="M231 710l-28 -489h-102l-30 466zM235 70c0 -46 -38 -83 -84 -83c-45 0 -81 37 -81 83s37 83 83 83c45 0 82 -37 82 -83z" />
    <glyph glyph-name="quotedbl" unicode="&#x22;" horiz-adv-x="498" 
d="M428 426h-126v282h126v-282zM196 426h-126v282h126v-282z" />
    <glyph glyph-name="numbersign" unicode="#" horiz-adv-x="572" 
d="M537 417h-96l-17 -126h84v-90h-96l-28 -201h-97l28 201h-99l-28 -201h-97l28 201h-84v90h96l17 126h-84v90h96l28 201h97l-28 -201h99l28 201h97l-28 -201h84v-90zM344 417h-99l-17 -126h99z" />
    <glyph glyph-name="dollar" unicode="$" horiz-adv-x="594" 
d="M559 219c0 -128 -95 -217 -243 -232v-81h-86v81c-67 6 -137 28 -195 61l52 109c65 -34 121 -56 191 -56c80 0 122 33 122 95c0 45 -29 73 -91 90l-77 21c-69 19 -112 46 -137 88c-19 31 -29 67 -29 106c0 115 83 198 209 213v72h86v-73c70 -7 136 -31 186 -67l-66 -100
c-63 38 -110 53 -162 53c-57 0 -97 -33 -97 -80c0 -36 19 -54 77 -70l84 -23c114 -31 176 -104 176 -207z" />
    <glyph glyph-name="percent" unicode="%" horiz-adv-x="850" 
d="M815 164c0 -57 -14 -96 -47 -128c-30 -29 -67 -46 -125 -46c-103 0 -169 67 -169 172c0 104 67 174 169 174c54 0 96 -16 128 -50c31 -31 44 -68 44 -122zM376 533c0 -57 -14 -96 -47 -128c-30 -29 -67 -46 -125 -46c-103 0 -169 67 -169 172c0 104 67 174 169 174
c54 0 96 -16 128 -50c31 -31 44 -68 44 -122zM655 695l-364 -695h-95l364 695h95zM265 535c0 40 -6 67 -20 80c-10 10 -25 16 -42 16c-23 0 -42 -11 -50 -30c-7 -17 -9 -37 -9 -67c0 -35 3 -61 11 -75c9 -14 27 -25 50 -25c42 0 60 30 60 101zM704 166c0 40 -6 67 -20 80
c-10 10 -25 16 -42 16c-23 0 -42 -11 -50 -30c-7 -17 -9 -37 -9 -67c0 -35 3 -61 11 -75c9 -14 27 -25 50 -25c42 0 60 30 60 101z" />
    <glyph glyph-name="ampersand" unicode="&#x26;" horiz-adv-x="715" 
d="M715 0h-186l-42 42c-15 -13 -40 -28 -60 -36c-33 -13 -78 -20 -131 -20c-160 0 -251 69 -251 189c0 78 41 134 125 173c-36 28 -54 47 -65 71c-9 19 -16 53 -16 79c0 99 82 168 200 168c119 0 203 -65 203 -158c0 -37 -13 -72 -34 -96c-20 -22 -43 -37 -88 -62l-9 -5
l116 -110c8 31 9 40 9 98v7h112v-6c0 -76 -10 -136 -32 -186zM405 118l-163 157c-36 -22 -54 -52 -54 -92c0 -63 41 -99 112 -99c48 0 83 11 105 34zM352 506c0 39 -26 67 -62 67c-38 0 -64 -26 -64 -65c0 -29 10 -45 52 -88l8 -8c43 22 66 55 66 94z" />
    <glyph glyph-name="quotesingle" unicode="'" horiz-adv-x="266" 
d="M196 426h-126v282h126v-282z" />
    <glyph glyph-name="parenleft" unicode="(" horiz-adv-x="322" 
d="M337 -91l-35 -78c-97 33 -173 107 -214 207c-22 54 -34 116 -40 206c-2 29 -3 55 -3 78c0 68 8 140 20 190c14 59 47 120 90 167c40 43 89 78 145 102l35 -79c-28 -20 -37 -27 -54 -44c-34 -34 -60 -75 -75 -121c-13 -37 -20 -73 -23 -131c-2 -29 -2 -57 -2 -82
c0 -45 3 -102 8 -154c8 -72 21 -118 47 -164c25 -45 50 -69 101 -97z" />
    <glyph glyph-name="parenright" unicode=")" horiz-adv-x="320" 
d="M275 293c0 -69 -6 -142 -19 -193c-15 -59 -48 -119 -91 -166c-40 -44 -88 -78 -146 -102l-34 79c28 20 36 27 54 44c34 34 60 74 76 121c12 36 18 73 22 131c2 30 3 58 3 84c0 44 -2 101 -8 152c-8 72 -19 117 -46 164c-26 45 -50 69 -101 97l35 78
c97 -34 174 -106 214 -208c21 -54 33 -116 39 -206c2 -28 2 -53 2 -75z" />
    <glyph glyph-name="asterisk" unicode="*" horiz-adv-x="486" 
d="M456 518l-131 -42l83 -114l-83 -61l-84 115l-81 -110l-81 61l84 109l-133 46l32 95l131 -47v138h102v-138l131 43z" />
    <glyph glyph-name="plus" unicode="+" horiz-adv-x="638" 
d="M593 240h-211v-211h-126v211h-211v126h211v211h126v-211h211v-126z" />
    <glyph glyph-name="comma" unicode="," horiz-adv-x="294" 
d="M239 36c0 -87 -57 -160 -141 -181l-53 56c44 10 72 33 72 57c0 13 -6 20 -26 32c-27 16 -39 38 -39 70c0 48 39 86 87 86c58 0 100 -50 100 -120z" />
    <glyph glyph-name="hyphen" unicode="-" horiz-adv-x="330" 
d="M285 216h-240v116h240v-116z" />
    <glyph glyph-name="period" unicode="." horiz-adv-x="286" 
d="M231 73c0 -49 -40 -89 -88 -89c-49 0 -88 40 -88 89c0 48 39 87 87 87c49 0 89 -39 89 -87z" />
    <glyph glyph-name="slash" unicode="/" horiz-adv-x="446" 
d="M401 764l-268 -918h-88l268 918h88z" />
    <glyph glyph-name="zero" unicode="0" horiz-adv-x="565" 
d="M520 256c0 -161 -97 -268 -238 -268c-146 0 -237 105 -237 266s97 268 238 268c146 0 237 -105 237 -266zM373 253c0 141 -39 171 -90 171c-68 0 -91 -66 -91 -167c0 -141 39 -171 90 -171c68 0 91 66 91 167z" />
    <glyph glyph-name="one" unicode="1" horiz-adv-x="433" 
d="M393 0h-317v109h108v259c-37 -23 -76 -43 -120 -58l-34 72l193 140h90v-413h80v-109z" />
    <glyph glyph-name="two" unicode="2" horiz-adv-x="566" 
d="M511 112l-29 -112h-417v122c35 18 44 18 103 52c138 78 173 123 173 169c0 44 -33 67 -80 67c-43 0 -80 -18 -136 -64l-80 83c72 64 149 99 252 99c119 0 195 -66 195 -164c0 -73 -40 -122 -94 -162c-36 -27 -97 -58 -137 -82c-5 -3 -16 -8 -26 -13c22 3 64 5 97 5h179z
" />
    <glyph glyph-name="three" unicode="3" horiz-adv-x="548" 
d="M503 50c0 -138 -145 -234 -352 -234c-31 0 -45 0 -83 5l-32 93c31 -6 44 -7 76 -7c139 0 234 63 234 154c0 33 -16 64 -44 76c-19 8 -49 12 -93 12c-13 0 -37 0 -51 -1v112c24 -3 46 -4 69 -4c74 0 111 26 111 79c0 43 -27 75 -85 75c-67 0 -118 -31 -148 -56l-70 85
c27 21 61 41 93 54c46 19 95 30 143 30c125 0 216 -74 216 -174c0 -54 -23 -103 -66 -129c-13 -8 -19 -11 -37 -18c75 -25 119 -82 119 -152z" />
    <glyph glyph-name="four" unicode="4" horiz-adv-x="543" 
d="M518 0h-45c-19 0 -31 2 -31 2s5 -13 5 -36v-141l-127 -16v169c0 9 2 25 2 25s-12 -3 -32 -3h-265v91l193 427h138l-144 -324c-6 -13 -32 -68 -45 -81c10 2 11 2 21 2h113c12 0 24 -1 24 -1s-1 13 -1 18c0 28 2 58 7 107l11 117l105 24v-177c0 -23 0 -41 -1 -59
c-1 -22 -2 -30 -2 -30s20 1 32 1h42v-115z" />
    <glyph glyph-name="five" unicode="5" horiz-adv-x="520" 
d="M465 70c0 -148 -131 -254 -315 -254c-32 0 -44 1 -76 7l-29 99c38 -10 65 -14 94 -14c106 0 181 60 181 146c0 64 -44 106 -109 106c-41 0 -82 -8 -146 -28l32 380h341l-20 -114h-196l-14 -139c21 4 29 5 47 5c124 0 210 -80 210 -194z" />
    <glyph glyph-name="six" unicode="6" horiz-adv-x="585" 
d="M535 214c0 -129 -102 -228 -234 -228c-146 0 -251 117 -251 282c0 49 9 101 26 144c22 57 62 115 112 162c59 56 174 121 257 145l29 -96c-102 -33 -213 -91 -260 -231c27 22 64 33 107 33c121 0 214 -92 214 -211zM394 212c0 64 -35 105 -91 105c-32 0 -64 -10 -104 -33
c-2 -12 -3 -37 -3 -60c0 -85 37 -135 99 -135c60 0 99 48 99 123z" />
    <glyph glyph-name="seven" unicode="7" horiz-adv-x="497" 
d="M472 512l-22 -117c-40 -60 -153 -233 -210 -419c-5 -17 -11 -40 -29 -139l-147 -37c27 112 44 163 72 240c26 72 52 131 88 201c40 78 62 111 93 154c-11 -3 -26 -4 -40 -4h-252l30 121h417z" />
    <glyph glyph-name="eight" unicode="8" horiz-adv-x="605" 
d="M560 183c0 -91 -66 -167 -163 -191c-32 -8 -69 -12 -105 -12c-67 0 -114 10 -158 37c-59 36 -89 89 -89 155c0 75 48 144 118 169c-23 7 -51 30 -69 55c-19 27 -30 61 -30 96c0 110 97 185 240 185c135 0 230 -72 230 -174c0 -68 -51 -127 -129 -148
c38 -11 81 -37 111 -64c28 -26 44 -65 44 -108zM409 165c0 33 -12 55 -38 72s-66 35 -113 51c-42 -24 -64 -61 -64 -106c0 -63 44 -103 113 -103c60 0 102 35 102 86zM385 507c0 46 -32 72 -91 72c-55 0 -92 -30 -92 -75c0 -32 17 -54 61 -76c16 -8 23 -11 41 -19
c34 17 81 45 81 98z" />
    <glyph glyph-name="nine" unicode="9" horiz-adv-x="571" 
d="M526 256c0 -134 -53 -246 -164 -338c-61 -51 -141 -98 -212 -123l-73 82c108 28 234 130 264 214c-30 -14 -52 -19 -81 -19c-122 0 -215 96 -215 223c0 135 102 234 242 234c149 0 239 -103 239 -273zM381 292c0 84 -37 134 -97 134c-57 0 -94 -50 -94 -127
c0 -72 40 -119 101 -119c33 0 54 10 80 37c7 24 10 46 10 75z" />
    <glyph glyph-name="colon" unicode=":" horiz-adv-x="304" 
d="M238 68c0 -47 -39 -84 -87 -84c-47 0 -86 37 -86 84c0 49 39 89 87 89s86 -40 86 -89zM239 368c0 -48 -39 -86 -87 -86c-47 0 -85 38 -85 85c0 48 38 88 85 88c48 0 87 -39 87 -87z" />
    <glyph glyph-name="semicolon" unicode=";" horiz-adv-x="324" 
d="M259 35c0 -85 -59 -160 -142 -180l-52 56c42 10 71 33 71 57c0 12 -5 19 -23 30c-30 18 -42 39 -42 70c0 50 38 88 88 88c58 0 100 -51 100 -121zM246 369c0 -47 -38 -86 -85 -86c-48 0 -87 38 -87 85c0 48 37 88 84 88c48 0 88 -39 88 -87z" />
    <glyph glyph-name="less" unicode="&#x3c;" horiz-adv-x="416" 
d="M371 78l-105 -90l-241 311l241 311l105 -92l-168 -219z" />
    <glyph glyph-name="equal" unicode="=" horiz-adv-x="638" 
d="M593 336h-548v126h548v-126zM593 144h-548v126h548v-126z" />
    <glyph glyph-name="greater" unicode="&#x3e;" horiz-adv-x="416" 
d="M391 299l-241 -311l-105 90l168 221l-168 219l105 92z" />
    <glyph glyph-name="question" unicode="?" horiz-adv-x="484" 
d="M424 538c0 -92 -56 -129 -92 -152c-61 -39 -76 -88 -77 -130c0 -12 1 -24 2 -35h-115l-5 26c-3 14 -4 27 -4 40c0 61 31 108 92 152c28 20 66 40 66 81c0 49 -38 69 -82 69c-56 0 -90 -32 -108 -46l-61 86c25 26 91 76 194 76c102 0 190 -62 190 -167zM296 70
c0 -46 -38 -83 -84 -83c-45 0 -81 37 -81 83s37 83 83 83c45 0 82 -37 82 -83z" />
    <glyph glyph-name="at" unicode="@" horiz-adv-x="901" 
d="M856 276c0 -176 -104 -295 -227 -295c-100 0 -111 46 -115 92c-35 -42 -91 -80 -150 -80c-81 0 -131 51 -131 150c0 166 103 315 284 315c49 0 99 -18 142 -41c-27 -89 -44 -179 -63 -269c-5 -24 -8 -42 -8 -55c0 -28 13 -35 44 -35c61 0 106 90 106 218
c0 158 -111 264 -279 264c-159 0 -295 -152 -295 -339c0 -184 122 -289 277 -289c54 0 102 8 144 22l18 -85c-49 -16 -106 -28 -162 -28c-228 0 -396 141 -396 380c0 235 174 429 414 429c223 0 397 -142 397 -354zM544 372c-11 5 -19 7 -36 7c-119 0 -165 -129 -165 -240
c0 -40 12 -63 42 -63c41 0 105 45 122 125z" />
    <glyph glyph-name="A" unicode="A" horiz-adv-x="592" 
d="M595 0h-150l-49 165h-204l-49 -165h-146l228 697h151zM362 281c0 0 -23 73 -38 140c-7 32 -28 123 -28 123s-20 -82 -33 -134c-13 -50 -22 -83 -37 -129h136z" />
    <glyph glyph-name="B" unicode="B" horiz-adv-x="610" 
d="M565 194c0 -96 -60 -186 -182 -192c-22 -1 -51 -2 -89 -2h-219v695h235c85 0 129 -13 171 -50c39 -34 57 -74 57 -124c0 -47 -16 -87 -47 -116c-20 -19 -32 -26 -64 -36c86 -25 138 -84 138 -175zM407 211c0 40 -20 76 -51 85c-17 5 -28 6 -54 6h-87v-188h91
c29 0 50 4 65 16c21 16 36 48 36 81zM392 497c0 29 -15 60 -40 70c-12 5 -27 9 -58 9h-81v-159h83c33 0 48 3 60 9c19 10 36 43 36 71z" />
    <glyph glyph-name="C" unicode="C" horiz-adv-x="574" 
d="M549 53c-55 -45 -114 -65 -193 -65c-96 0 -170 31 -227 96c-56 63 -84 147 -84 249c0 87 15 156 47 216c54 101 154 161 266 161c69 0 138 -22 176 -55l-63 -95c-35 26 -72 39 -111 39c-47 0 -93 -23 -118 -60c-27 -40 -39 -98 -39 -179c0 -95 8 -148 29 -186
c28 -51 74 -78 134 -78c41 0 78 12 119 45z" />
    <glyph glyph-name="D" unicode="D" horiz-adv-x="628" 
d="M583 345c0 -95 -23 -178 -70 -241c-42 -57 -104 -95 -169 -100c-26 -2 -59 -4 -100 -4h-169v695h140c40 0 93 -2 121 -4c59 -5 110 -27 152 -69c64 -63 95 -152 95 -277zM426 332c0 81 -7 149 -35 195c-23 38 -55 58 -110 58h-64v-471h75c92 0 134 71 134 218z" />
    <glyph glyph-name="E" unicode="E" horiz-adv-x="505" 
d="M480 0h-405v695h396l-18 -114h-238v-161h199v-114h-197v-186h263v-120z" />
    <glyph glyph-name="F" unicode="F" horiz-adv-x="447" 
d="M452 695l-16 -113h-221v-159h177v-114h-177v-309h-140v695h377z" />
    <glyph glyph-name="G" unicode="G" horiz-adv-x="652" 
d="M587 54c-71 -42 -149 -62 -231 -62c-104 0 -181 34 -237 106c-51 65 -74 139 -74 243c0 147 48 251 145 316c51 34 103 49 169 49c84 0 160 -27 221 -80l-74 -87c-45 37 -92 54 -145 54c-41 0 -76 -12 -100 -35c-47 -45 -59 -120 -59 -224c0 -99 17 -163 52 -198
c26 -25 64 -39 109 -39c31 0 56 5 79 17v158h-106l-18 114h269v-332z" />
    <glyph glyph-name="H" unicode="H" horiz-adv-x="631" 
d="M556 0h-142v310h-200v-310h-139v695h139v-270h200v270h142v-695z" />
    <glyph glyph-name="I" unicode="I" horiz-adv-x="296" 
d="M221 0h-146v695h146v-695z" />
    <glyph glyph-name="J" unicode="J" horiz-adv-x="297" 
d="M222 135c0 -90 -3 -108 -10 -136c-20 -85 -99 -139 -162 -163l-65 72c36 22 69 56 81 84c11 25 14 53 14 128v575h142v-560z" />
    <glyph glyph-name="K" unicode="K" horiz-adv-x="598" 
d="M613 0h-184l-211 363v-363h-143v695h143v-317l198 317h172l-222 -322z" />
    <glyph glyph-name="L" unicode="L" horiz-adv-x="477" 
d="M467 116l-25 -116h-367v695h143v-579h249z" />
    <glyph glyph-name="M" unicode="M" horiz-adv-x="828" 
d="M773 0h-137l-26 371c-3 44 -5 79 -5 116c-8 -40 -14 -65 -26 -107l-110 -380h-119l-99 365c-9 34 -21 83 -28 123c0 -41 -2 -82 -5 -125l-24 -363h-139l65 695h179l91 -348c13 -50 18 -74 24 -110c6 36 14 72 25 113l94 345h178z" />
    <glyph glyph-name="N" unicode="N" horiz-adv-x="633" 
d="M558 0h-146l-119 266c-39 87 -81 185 -94 228c5 -57 6 -139 7 -197l4 -297h-135v695h155l133 -278c35 -74 62 -147 76 -197c-5 54 -10 143 -11 191l-3 284h133v-695z" />
    <glyph glyph-name="O" unicode="O" horiz-adv-x="690" 
d="M645 351c0 -157 -54 -275 -155 -330c-42 -23 -81 -32 -139 -32c-105 0 -173 29 -226 98c-53 68 -80 156 -80 258c0 150 57 270 157 325c41 22 92 34 144 34c185 0 299 -135 299 -353zM484 347c0 71 -6 122 -18 161c-11 35 -48 88 -122 88c-47 0 -88 -24 -108 -61
c-24 -45 -35 -106 -35 -190c0 -120 20 -195 62 -225c22 -16 50 -24 83 -24c97 0 138 74 138 251z" />
    <glyph glyph-name="P" unicode="P" horiz-adv-x="576" 
d="M551 481c0 -92 -44 -166 -120 -202c-32 -15 -62 -23 -139 -23h-77v-256h-140v695h183c118 0 154 -12 193 -34c65 -36 100 -100 100 -180zM398 478c0 65 -35 104 -94 104h-89v-212h73c57 0 74 7 93 36c12 19 17 39 17 72z" />
    <glyph glyph-name="Q" unicode="Q" horiz-adv-x="690" 
d="M718 -27l-37 -91s-20 -12 -62 -12c-54 0 -102 32 -128 49c-33 22 -87 53 -141 70c-104 0 -172 29 -225 98c-53 68 -80 156 -80 258c0 150 57 271 157 325c41 22 92 34 144 34c185 0 299 -135 299 -353c0 -151 -54 -264 -137 -319c19 -7 46 -25 62 -35
c25 -15 55 -29 86 -29c30 0 62 5 62 5zM484 347c0 71 -6 122 -18 161c-11 35 -48 88 -122 88c-47 0 -88 -24 -108 -61c-24 -45 -35 -106 -35 -190c0 -120 20 -195 62 -225c22 -16 50 -24 83 -24c97 0 138 74 138 251z" />
    <glyph glyph-name="R" unicode="R" horiz-adv-x="594" 
d="M579 0h-165c-27 46 -38 65 -65 114c-69 125 -90 159 -115 170c-7 3 -13 5 -22 6v-290h-137v695h259c123 0 204 -82 204 -204c0 -104 -69 -190 -155 -192c14 -11 20 -17 29 -29c40 -50 167 -270 167 -270zM391 488c0 43 -17 73 -50 85c-16 6 -45 10 -79 10h-50v-188h47
c60 0 86 6 105 23c17 16 27 41 27 70z" />
    <glyph glyph-name="S" unicode="S" horiz-adv-x="594" 
d="M559 219c0 -141 -114 -234 -287 -234c-79 0 -167 23 -237 63l52 109c65 -34 121 -56 191 -56c80 0 122 33 122 95c0 45 -29 73 -91 90l-77 21c-69 19 -112 46 -137 88c-19 31 -29 67 -29 106c0 127 102 215 249 215c85 0 171 -26 232 -70l-66 -100
c-63 38 -110 53 -162 53c-57 0 -97 -33 -97 -80c0 -36 19 -54 77 -70l84 -23c114 -31 176 -104 176 -207z" />
    <glyph glyph-name="T" unicode="T" horiz-adv-x="501" 
d="M516 695l-23 -116h-166v-579h-142v579h-170v116h501z" />
    <glyph glyph-name="U" unicode="U" horiz-adv-x="646" 
d="M573 227c0 -66 -1 -79 -11 -109c-18 -55 -86 -131 -236 -131c-106 0 -184 32 -223 93c-23 36 -30 64 -30 131v484h143v-457c0 -43 4 -68 12 -83c16 -31 49 -48 95 -48c61 0 100 30 106 81c2 15 2 25 2 62v445h142v-468z" />
    <glyph glyph-name="V" unicode="V" horiz-adv-x="575" 
d="M590 695l-242 -700h-127l-236 700h153l115 -362c10 -31 21 -70 32 -121c9 43 27 101 40 139l118 344h147z" />
    <glyph glyph-name="W" unicode="W" horiz-adv-x="842" 
d="M837 695l-168 -701h-153l-62 283c-20 87 -31 173 -33 198c-2 -16 -14 -104 -33 -196l-58 -285h-159l-166 701h148l60 -274c28 -130 37 -229 37 -229c3 27 15 126 36 222l62 281h153l64 -311c13 -65 30 -184 30 -184c2 22 23 163 38 231l57 264h147z" />
    <glyph glyph-name="X" unicode="X" horiz-adv-x="572" 
d="M582 0h-169l-125 245l-124 -245h-174l218 372l-188 323h171l94 -187l95 187h167l-181 -314z" />
    <glyph glyph-name="Y" unicode="Y" horiz-adv-x="544" 
d="M564 695l-222 -409v-286h-146v286l-216 409h168l89 -190c18 -38 27 -63 35 -89c8 20 22 54 37 87l90 192h165z" />
    <glyph glyph-name="Z" unicode="Z" horiz-adv-x="540" 
d="M505 114l-36 -114h-434v98l256 423c19 32 43 63 43 63s-29 -5 -71 -5h-214l31 116h416v-101l-258 -435c-15 -25 -36 -49 -36 -49s41 4 69 4h234z" />
    <glyph glyph-name="bracketleft" unicode="[" horiz-adv-x="310" 
d="M285 -156h-210v888h210v-90h-90v-708h90v-90z" />
    <glyph glyph-name="backslash" unicode="\" horiz-adv-x="443" 
d="M428 -18l-113 -35l-300 779l114 35z" />
    <glyph glyph-name="bracketright" unicode="]" horiz-adv-x="310" 
d="M235 -156h-210v90h90v708h-90v90h210v-888z" />
    <glyph glyph-name="asciicircum" unicode="^" horiz-adv-x="606" 
d="M556 343h-142l-111 238l-112 -238h-141l180 365h146z" />
    <glyph glyph-name="underscore" unicode="_" horiz-adv-x="510" 
d="M505 -125h-500v50h500v-50z" />
    <glyph glyph-name="grave" unicode="`" horiz-adv-x="335" 
d="M300 631l-41 -74l-224 100l58 104z" />
    <glyph glyph-name="a" unicode="a" horiz-adv-x="522" 
d="M493 56l-71 -82c-31 13 -59 36 -72 62c-10 -10 -21 -20 -31 -27c-25 -18 -61 -28 -103 -28c-114 0 -176 58 -176 160c0 120 83 176 246 176c10 0 19 0 30 -1v21c0 57 -11 76 -60 76c-43 0 -93 -21 -148 -58l-57 96c27 17 47 27 83 42c50 21 93 30 140 30
c86 0 145 -32 165 -89c7 -21 10 -37 9 -92l-3 -172c-1 -56 3 -80 48 -114zM314 224h-6c-93 0 -125 -17 -125 -78c0 -40 25 -67 59 -67c25 0 50 13 70 35z" />
    <glyph glyph-name="b" unicode="b" horiz-adv-x="562" 
d="M517 265c0 -104 -32 -185 -95 -235c-35 -28 -70 -40 -112 -40c-50 0 -85 15 -114 47c-4 -18 -5 -23 -14 -37h-120c10 23 13 38 13 109v474c0 63 -2 97 -9 126l137 32c4 -35 5 -56 5 -91v-121c0 -15 -1 -37 -3 -45c26 28 62 41 109 41c125 0 203 -100 203 -260zM365 262
c0 46 -1 65 -6 87c-10 44 -38 65 -73 65s-59 -22 -76 -41v-236c18 -16 39 -33 75 -33c33 0 54 13 65 40c12 28 15 55 15 118z" />
    <glyph glyph-name="c" unicode="c" horiz-adv-x="465" 
d="M440 58c-20 -20 -29 -27 -47 -38c-36 -21 -76 -32 -125 -32c-141 0 -223 98 -223 264c0 118 45 196 105 237c34 23 84 38 127 38c34 0 71 -8 99 -23c19 -10 28 -17 50 -36l-65 -88c-27 25 -56 40 -81 40c-60 0 -87 -52 -87 -172c0 -67 9 -107 26 -129
c14 -18 37 -29 60 -29c31 0 59 13 92 42l8 7z" />
    <glyph glyph-name="d" unicode="d" horiz-adv-x="559" 
d="M503 0h-120c-4 8 -6 16 -8 30c-33 -29 -72 -43 -118 -43c-130 0 -212 101 -212 260c0 160 89 270 219 270c37 0 66 -9 91 -29c-2 11 -4 46 -4 76v176l133 -21v-532c0 -126 10 -167 19 -187zM353 133v244c-25 22 -49 33 -73 33c-60 0 -86 -50 -86 -164
c0 -110 23 -146 93 -146c25 0 53 17 66 33z" />
    <glyph glyph-name="e" unicode="e" horiz-adv-x="516" 
d="M486 214h-296v-4c0 -79 39 -124 108 -124c46 0 89 17 130 51l52 -80c-59 -48 -121 -71 -193 -71c-147 0 -242 104 -242 265c0 92 19 153 64 203c42 47 93 69 161 69c59 0 115 -20 148 -54c47 -48 68 -117 68 -224v-31zM347 312v6c0 38 -4 58 -16 77c-13 20 -32 30 -59 30
c-51 0 -80 -40 -80 -111v-2h155z" />
    <glyph glyph-name="f" unicode="f" horiz-adv-x="314" 
d="M359 709l-43 -83c-29 14 -39 17 -55 17c-34 0 -56 -21 -56 -58v-73h130l-34 -92h-95v-420h-131v420h-46v92h49c-3 21 -5 47 -5 70c0 101 60 159 165 159c44 0 80 -9 121 -32z" />
    <glyph glyph-name="g" unicode="g" horiz-adv-x="563" 
d="M582 456c-29 -27 -57 -38 -94 -38c-13 0 -27 2 -35 3c20 -24 30 -50 30 -84c0 -88 -80 -152 -189 -152c-6 0 -10 0 -20 1c-34 -16 -53 -28 -53 -42c0 -7 8 -12 22 -12l72 -1c78 -1 119 -13 155 -46c30 -28 44 -63 44 -109c0 -43 -13 -76 -41 -106
c-45 -48 -122 -66 -202 -66c-73 0 -148 12 -194 55c-28 26 -42 56 -42 91c0 28 7 42 12 52h124c-5 -12 -6 -19 -6 -33c0 -41 34 -63 96 -63c34 0 63 4 84 17c20 12 33 31 33 52c0 46 -41 60 -94 61l-57 1c-60 1 -99 6 -123 16c-24 9 -39 32 -39 67c0 33 10 64 94 86
c-74 19 -110 66 -110 142c0 105 85 173 216 173c29 0 55 -4 92 -13c28 -7 46 -11 63 -11c37 0 75 16 106 44zM345 347c0 48 -30 76 -81 76s-80 -28 -80 -76c0 -52 32 -73 79 -73c53 0 82 26 82 73z" />
    <glyph glyph-name="h" unicode="h" horiz-adv-x="575" 
d="M500 0h-131v344c0 51 -14 70 -52 70c-33 0 -76 -20 -106 -47v-367h-136v592c0 48 -4 96 -10 117l137 32c6 -28 9 -76 9 -125v-102c0 -16 -2 -37 -2 -43c35 33 93 55 145 55c65 0 117 -28 133 -73c10 -29 13 -46 13 -95v-358z" />
    <glyph glyph-name="i" unicode="i" horiz-adv-x="284" 
d="M209 0h-134v503l134 21v-524zM225 653c0 -46 -37 -83 -83 -83c-45 0 -82 37 -82 83s38 83 84 83c45 0 81 -37 81 -83z" />
    <glyph glyph-name="j" unicode="j" horiz-adv-x="283" 
d="M208 14c0 -97 -20 -136 -38 -159c-24 -31 -58 -56 -104 -75l-56 74c21 17 39 40 49 58c12 22 16 50 16 98v481l133 32v-509zM226 655c0 -46 -38 -84 -84 -84s-82 37 -82 82c0 46 37 84 83 84c45 0 83 -37 83 -82z" />
    <glyph glyph-name="k" unicode="k" horiz-adv-x="527" 
d="M209 0h-134v577c0 45 -1 80 -9 133l135 33c6 -38 8 -98 8 -166v-577zM542 0h-158l-172 290l131 222h161l-163 -214z" />
    <glyph glyph-name="l" unicode="l" horiz-adv-x="291" 
d="M286 2c-23 -9 -51 -14 -80 -14c-57 0 -103 27 -119 70c-10 26 -12 42 -12 115v382c0 67 -2 108 -7 154l137 31c5 -28 7 -61 7 -133v-399c0 -88 1 -100 9 -114c5 -9 16 -14 27 -14c5 0 8 0 15 2z" />
    <glyph glyph-name="m" unicode="m" horiz-adv-x="803" 
d="M728 0h-130v338c0 61 -7 73 -42 73c-25 0 -60 -17 -89 -43v-368h-127v333c0 64 -9 79 -46 79c-25 0 -59 -13 -88 -39v-373h-131v357c0 74 -5 106 -19 131l121 33c9 -14 13 -26 18 -52c35 34 78 52 125 52c42 0 77 -14 104 -42c7 -7 14 -16 20 -25c47 48 89 67 145 67
c40 0 78 -12 101 -32c29 -25 38 -55 38 -125v-364z" />
    <glyph glyph-name="n" unicode="n" horiz-adv-x="554" 
d="M479 0h-132v333c0 58 -10 75 -45 75c-27 0 -62 -18 -93 -46v-362h-134v371c0 44 -6 86 -18 120l119 34c12 -21 19 -43 19 -64c20 14 37 26 59 38c27 14 62 22 92 22c57 0 107 -30 123 -74c7 -19 10 -41 10 -73v-374z" />
    <glyph glyph-name="o" unicode="o" horiz-adv-x="543" 
d="M503 258c0 -88 -20 -148 -64 -198c-39 -44 -90 -71 -169 -71c-139 0 -230 104 -230 265s92 268 230 268c73 0 130 -25 174 -77c41 -48 59 -104 59 -187zM357 259c0 69 -9 114 -27 137c-13 17 -34 27 -58 27c-32 0 -58 -20 -69 -52c-9 -27 -14 -63 -14 -114
c0 -59 6 -103 17 -129c12 -28 42 -42 68 -42c58 0 83 52 83 173z" />
    <glyph glyph-name="p" unicode="p" horiz-adv-x="562" 
d="M517 270c0 -110 -18 -166 -71 -223c-35 -37 -81 -58 -137 -58c-40 0 -78 10 -107 27c2 -12 2 -27 2 -42v-160l-129 -34v592c0 67 -1 86 -8 129l119 21c5 -18 8 -32 9 -48c23 28 74 48 126 48c36 0 73 -12 101 -31c55 -37 95 -103 95 -221zM371 257c0 49 -4 88 -13 113
c-10 28 -31 43 -64 43s-65 -14 -89 -39v-249c18 -15 47 -30 74 -30c66 0 92 45 92 162z" />
    <glyph glyph-name="q" unicode="q" horiz-adv-x="561" 
d="M498 513c-9 -39 -12 -90 -12 -151v-550l-127 -34v194c0 20 1 41 3 52c-27 -24 -62 -36 -102 -36c-154 0 -215 124 -215 260c0 91 15 148 52 196c38 49 98 81 160 81c53 0 109 -24 120 -52c1 18 3 25 10 40h111zM359 137v241c-19 20 -47 35 -77 35c-81 0 -90 -85 -90 -148
c0 -66 0 -167 90 -167c30 0 61 20 77 39z" />
    <glyph glyph-name="r" unicode="r" horiz-adv-x="357" 
d="M367 513l-37 -118c-13 7 -24 10 -39 10c-30 0 -57 -14 -82 -43v-362h-134v342c0 69 -8 121 -19 150l120 32c12 -21 19 -44 21 -73c29 39 70 73 120 73c20 0 29 -2 50 -11z" />
    <glyph glyph-name="s" unicode="s" horiz-adv-x="491" 
d="M456 162c0 -106 -88 -178 -219 -178c-63 0 -132 20 -207 59l48 98c41 -25 112 -58 170 -58c38 0 68 25 68 58c0 35 -25 53 -79 63l-60 11c-34 6 -76 30 -94 52s-29 59 -29 92c0 100 79 167 198 167c82 0 136 -25 183 -48l-44 -90c-51 26 -88 37 -126 37
c-39 0 -65 -20 -65 -50c0 -26 17 -40 64 -52l62 -16c63 -16 84 -35 102 -58c19 -24 28 -53 28 -87z" />
    <glyph glyph-name="t" unicode="t" horiz-adv-x="351" 
d="M331 11c-39 -16 -74 -23 -109 -23c-68 0 -122 30 -138 75c-8 22 -9 32 -9 79v278h-51v92h51c0 50 0 83 5 121l136 34c-5 -47 -8 -103 -8 -155h120l-34 -92h-86v-257c0 -65 12 -82 58 -82c12 0 24 3 48 10z" />
    <glyph glyph-name="u" unicode="u" horiz-adv-x="546" 
d="M502 40l-95 -54c-17 12 -31 29 -40 50c-33 -32 -81 -49 -135 -49c-72 0 -134 34 -151 83c-8 23 -11 50 -11 102v328l132 25v-329c0 -46 4 -70 11 -84s27 -24 47 -24c33 0 73 24 83 49v360l128 27v-391c0 -34 11 -69 31 -93z" />
    <glyph glyph-name="v" unicode="v" horiz-adv-x="474" 
d="M479 512l-187 -512h-111l-186 504l137 17l74 -231c11 -34 26 -90 33 -123c4 30 15 79 31 130l69 215h140z" />
    <glyph glyph-name="w" unicode="w" horiz-adv-x="709" 
d="M704 512l-146 -512h-123l-46 176c-11 41 -23 90 -29 124c-4 24 -5 31 -8 51c-3 -22 -4 -29 -12 -66c-10 -44 -32 -132 -44 -180l-26 -105h-125l-140 503l133 15l42 -197c13 -59 29 -159 29 -159s13 91 37 178l48 172h126l41 -169c23 -95 38 -181 38 -181
c3 22 14 102 28 167l39 183h138z" />
    <glyph glyph-name="x" unicode="x" horiz-adv-x="510" 
d="M520 0h-170l-54 94c-9 16 -36 69 -40 76c-4 -12 -24 -55 -51 -99l-43 -71h-172l189 273l-142 215l139 39c38 -63 50 -85 69 -125c5 -10 12 -25 16 -34c3 8 18 44 45 100c8 17 20 38 24 44h158l-152 -236z" />
    <glyph glyph-name="y" unicode="y" horiz-adv-x="507" 
d="M507 512l-186 -520c-35 -99 -61 -142 -98 -169c-34 -25 -78 -41 -124 -47l-46 88c29 8 63 20 83 34c15 11 27 25 38 42c13 21 17 30 29 60h-34c-16 48 -43 128 -48 144l-121 360l137 16l89 -299c8 -30 25 -99 27 -106c0 3 10 57 16 82c4 17 12 47 20 71l77 244h141z" />
    <glyph glyph-name="z" unicode="z" horiz-adv-x="479" 
d="M444 93l-32 -93h-377v83l241 335h-221v94h380v-92l-226 -327h235z" />
    <glyph glyph-name="braceleft" unicode="{" horiz-adv-x="392" 
d="M367 -156h-105c-71 0 -129 42 -129 146v172c0 62 -83 69 -108 69v114c25 0 108 7 108 69v173c0 104 55 145 129 145h105v-114h-49c-61 0 -65 -37 -65 -64v-161c0 -93 -58 -100 -100 -104v-2c42 -3 100 -10 100 -103v-162c0 -27 4 -64 65 -64h49v-114z" />
    <glyph glyph-name="bar" unicode="|" horiz-adv-x="276" 
d="M201 -208h-126v964h126v-964z" />
    <glyph glyph-name="braceright" unicode="}" horiz-adv-x="392" 
d="M367 231c-28 0 -108 -7 -108 -69v-173c0 -104 -55 -145 -129 -145h-105v114h49c61 0 65 37 65 64v161c0 93 58 100 100 104v2c-42 3 -100 10 -100 103v162c0 27 -4 64 -65 64h-49v114h108c68 0 126 -42 126 -146v-172c0 -62 80 -69 108 -69v-114z" />
    <glyph glyph-name="asciitilde" unicode="~" horiz-adv-x="562" 
d="M512 292c-22 -42 -58 -86 -125 -86c-34 0 -73 15 -111 32c-37 16 -75 36 -102 36c-40 0 -65 -37 -88 -68l-36 108c22 42 58 86 125 86c34 0 73 -15 111 -32c37 -16 75 -36 102 -36c40 0 65 37 88 68z" />
    <glyph glyph-name="uni00A0" unicode="&#xa0;" horiz-adv-x="225" 
 />
    <glyph glyph-name="exclamdown" unicode="&#xa1;" horiz-adv-x="305" 
d="M234 -178l-160 -23l28 489h102zM235 439c0 -46 -37 -83 -83 -83c-45 0 -82 37 -82 83s38 83 84 83c45 0 81 -37 81 -83z" />
    <glyph glyph-name="cent" unicode="&#xa2;" horiz-adv-x="465" 
d="M440 58c-20 -20 -29 -27 -47 -38c-24 -14 -49 -23 -77 -28v-103h-94v103c-112 19 -177 113 -177 260c0 118 45 196 105 237c20 14 46 25 72 31v97h94v-96c21 0 42 -8 60 -17c19 -10 28 -17 50 -36l-65 -88c-27 25 -56 40 -81 40c-60 0 -87 -52 -87 -172
c0 -67 9 -107 26 -129c14 -18 37 -29 60 -29c31 0 59 13 92 42l8 7z" />
    <glyph glyph-name="sterling" unicode="&#xa3;" horiz-adv-x="593" 
d="M598 652l-100 -107c-27 27 -64 43 -91 43c-89 0 -116 -63 -116 -125v-49h156v-102h-156v-198h253v-114h-499v114h96v198h-96v102h96v71c0 119 86 235 248 235c75 0 154 -18 209 -68z" />
    <glyph glyph-name="currency" unicode="&#xa4;" horiz-adv-x="447" 
d="M409 100l-118 -69c-24 40 -29 48 -40 70c-9 -2 -20 -2 -30 -2c-13 0 -26 1 -38 3c-4 -8 -8 -17 -13 -27c-8 -17 -24 -44 -24 -44l-114 69l44 68c-19 27 -26 64 -26 101c0 40 10 75 28 102l-47 71l118 69c24 -40 29 -48 40 -70c8 1 20 2 30 2c13 0 29 -1 38 -3
c4 8 8 17 13 27c8 17 24 44 24 44l114 -69l-44 -68c19 -27 27 -60 27 -103c0 -39 -11 -73 -29 -100zM280 273c0 40 -6 66 -20 80c-10 10 -25 16 -42 16c-23 0 -42 -11 -50 -30c-7 -17 -9 -37 -9 -67c0 -35 4 -64 11 -75c9 -14 27 -25 50 -25c42 0 60 30 60 101z" />
    <glyph glyph-name="yen" unicode="&#xa5;" horiz-adv-x="568" 
d="M576 695l-153 -280h103v-103h-158l-14 -26v-50h172v-103h-172v-133h-146v133h-169v103h169v50l-14 26h-155v103h101l-148 280h168l89 -190c18 -38 27 -63 35 -89c8 20 22 54 37 87l90 192h165z" />
    <glyph glyph-name="brokenbar" unicode="&#xa6;" horiz-adv-x="276" 
d="M201 342h-126v414h126v-414zM201 -208h-126v414h126v-414z" />
    <glyph glyph-name="section" unicode="&#xa7;" horiz-adv-x="598" 
d="M553 281c0 -55 -36 -106 -84 -130c35 -28 55 -73 55 -119c0 -131 -138 -183 -246 -183c-99 0 -188 30 -233 126l128 63c12 -48 64 -69 109 -69c32 0 80 11 80 52c0 94 -301 79 -301 272c0 67 32 114 87 148c-39 26 -63 67 -63 115c0 117 115 170 215 170
c85 0 183 -25 224 -109l-126 -72c-14 38 -52 61 -92 61c-32 0 -65 -17 -65 -53c0 -98 312 -90 312 -272zM415 253c0 38 -35 58 -65 72l-116 55c-23 -13 -35 -33 -35 -59c0 -46 38 -63 74 -79l6 -3l102 -47c22 13 34 35 34 61z" />
    <glyph glyph-name="dieresis" unicode="&#xa8;" horiz-adv-x="474" 
d="M419 635c0 -42 -35 -77 -77 -77s-76 35 -76 77s35 77 78 77c41 0 75 -35 75 -77zM208 635c0 -42 -35 -77 -77 -77c-41 0 -76 35 -76 77s36 77 78 77c41 0 75 -35 75 -77z" />
    <glyph glyph-name="copyright" unicode="&#xa9;" horiz-adv-x="834" 
d="M789 354c0 -205 -167 -372 -372 -372s-372 167 -372 372s167 372 372 372s372 -167 372 -372zM687 354c0 155 -121 282 -270 282s-270 -127 -270 -282s121 -282 270 -282s270 127 270 282zM545 198c-41 -31 -76 -43 -122 -43c-110 0 -182 75 -182 191
c0 120 71 207 183 207c41 0 82 -13 112 -38l-46 -66c-27 18 -45 25 -65 25c-50 0 -75 -38 -75 -114c0 -91 23 -128 79 -128c27 0 48 10 67 28z" />
    <glyph glyph-name="ordfeminine" unicode="&#xaa;" horiz-adv-x="435" 
d="M387 422l-48 -62c-24 10 -50 27 -59 47c-15 -14 -16 -15 -24 -21c-18 -13 -45 -21 -77 -21c-85 0 -132 44 -132 120c0 90 62 132 185 132h22v15c0 43 -8 57 -45 57c-32 0 -70 -15 -111 -43l-43 72c20 13 37 20 63 31c37 16 69 23 105 23c64 0 108 -24 123 -67
c6 -16 8 -28 7 -69l-2 -129v-7c0 -41 7 -57 36 -78zM400 231h-365v78h365v-78zM253 548h-5c-70 0 -94 -13 -94 -59c0 -30 19 -50 45 -50c18 0 37 10 52 26z" />
    <glyph glyph-name="guillemotleft" unicode="&#xab;" horiz-adv-x="552" 
d="M522 76l-91 -61l-159 234l159 234l91 -61l-116 -173zM280 76l-91 -61l-159 234l159 234l91 -61l-116 -173z" />
    <glyph glyph-name="logicalnot" unicode="&#xac;" horiz-adv-x="531" 
d="M486 58h-123v140h-318v109h441v-249z" />
    <glyph glyph-name="uni00AD" unicode="&#xad;" horiz-adv-x="330" 
d="M285 216h-240v116h240v-116z" />
    <glyph glyph-name="registered" unicode="&#xae;" horiz-adv-x="834" 
d="M789 354c0 -205 -167 -372 -372 -372s-372 167 -372 372s167 372 372 372s372 -167 372 -372zM687 354c0 155 -121 282 -270 282s-270 -127 -270 -282s121 -282 270 -282s270 127 270 282zM585 171h-115c-18 29 -25 39 -40 65c-36 61 -46 79 -54 86v-151h-97v382h153
c75 0 123 -47 123 -117c0 -57 -38 -99 -88 -104c23 -9 38 -32 51 -52c28 -42 67 -109 67 -109zM452 435c0 28 -16 39 -49 39h-27v-77h26c38 0 50 12 50 38z" />
    <glyph glyph-name="macron" unicode="&#xaf;" horiz-adv-x="364" 
d="M339 666h-314v78h314v-78z" />
    <glyph glyph-name="degree" unicode="&#xb0;" horiz-adv-x="411" 
d="M376 533c0 -57 -14 -96 -47 -128c-30 -29 -67 -46 -125 -46c-103 0 -169 67 -169 172c0 104 67 174 169 174c54 0 95 -17 128 -50c31 -31 44 -68 44 -122zM265 535c0 40 -6 67 -20 80c-10 10 -25 16 -42 16c-23 0 -42 -11 -50 -30c-7 -17 -9 -37 -9 -67
c0 -35 2 -61 11 -75s27 -25 50 -25c42 0 60 30 60 101z" />
    <glyph glyph-name="plusminus" unicode="&#xb1;" horiz-adv-x="513" 
d="M468 283h-150v-143h-123v143h-150v113h150v137h123v-137h150v-113zM466 0h-419v113h419v-113z" />
    <glyph glyph-name="twosuperior" unicode="&#xb2;" horiz-adv-x="384" 
d="M349 333l-23 -83h-275v67c26 24 76 71 103 100c53 55 62 88 62 111c0 34 -16 42 -39 42c-22 0 -45 -10 -86 -42l-56 63c52 44 100 65 165 65c77 0 127 -49 127 -119c0 -77 -90 -155 -146 -205c12 0 25 1 35 1h133z" />
    <glyph glyph-name="threesuperior" unicode="&#xb3;" horiz-adv-x="376" 
d="M341 386c0 -88 -96 -144 -222 -144c-19 0 -27 0 -57 4l-27 74c35 -6 43 -7 61 -7c82 0 130 35 130 79c0 41 -41 41 -72 41h-40v81c17 -2 34 -4 51 -4c42 0 57 17 57 39c0 19 -11 33 -41 33c-37 0 -66 -16 -91 -36l-54 64c46 34 95 56 155 56c78 0 140 -45 140 -109
c0 -36 -17 -64 -47 -84c36 -18 57 -49 57 -87z" />
    <glyph glyph-name="acute" unicode="&#xb4;" horiz-adv-x="335" 
d="M300 657l-224 -100l-41 74l207 130z" />
    <glyph glyph-name="mu" unicode="&#xb5;" horiz-adv-x="551" 
d="M507 40l-95 -54c-17 12 -31 29 -40 50c-33 -32 -81 -49 -135 -49c-10 0 -25 5 -35 14c0 0 2 -20 2 -31v-156l-129 -34v720l132 25v-329c0 -46 4 -70 11 -84s27 -24 47 -24c33 0 73 24 83 49v360l128 27v-391c0 -34 11 -69 31 -93z" />
    <glyph glyph-name="paragraph" unicode="&#xb6;" horiz-adv-x="602" 
d="M527 -126h-90v762h-107v-762h-90v464c-130 0 -215 77 -215 182c0 134 94 188 233 188h269v-834z" />
    <glyph glyph-name="periodcentered" unicode="&#xb7;" horiz-adv-x="268" 
d="M223 273c0 -48 -40 -88 -90 -88c-49 0 -88 40 -88 89s40 90 90 90c49 0 88 -41 88 -91z" />
    <glyph glyph-name="cedilla" unicode="&#xb8;" horiz-adv-x="306" 
d="M251 -111c0 -49 -39 -88 -109 -88c-30 0 -67 13 -87 24l30 63c16 -7 30 -15 52 -15c14 0 25 10 25 18c0 11 -6 20 -25 20c-11 0 -18 -4 -27 -6l-13 20l24 87l72 -6l-14 -38c51 -5 72 -40 72 -79z" />
    <glyph glyph-name="onesuperior" unicode="&#xb9;" horiz-adv-x="324" 
d="M289 250h-215v81h64v208c-21 -11 -45 -24 -75 -34l-28 56l134 89h68v-319h52v-81z" />
    <glyph glyph-name="ordmasculine" unicode="&#xba;" horiz-adv-x="435" 
d="M389 566c0 -66 -16 -110 -48 -147c-29 -33 -68 -54 -127 -54c-104 0 -172 78 -172 198c0 121 69 201 172 201c55 0 98 -18 131 -57c30 -36 44 -78 44 -141zM400 231h-365v78h365v-78zM276 567c0 50 -5 83 -19 99c-10 11 -24 18 -41 18c-23 0 -40 -15 -49 -37
c-7 -18 -11 -44 -11 -81c0 -43 6 -74 13 -91c8 -20 30 -32 48 -32c42 0 59 38 59 124z" />
    <glyph glyph-name="guillemotright" unicode="&#xbb;" horiz-adv-x="552" 
d="M522 249l-159 -234l-91 61l116 173l-116 173l91 61zM280 249l-159 -234l-91 61l116 173l-116 173l91 61z" />
    <glyph glyph-name="onequarter" unicode="&#xbc;" horiz-adv-x="926" 
d="M770 764l-528 -918h-108l528 918h108zM891 71h-37l-7 1c0 -3 1 -7 1 -11v-75l-96 -11v91l1 5h-178v63l109 267h105l-84 -207c-6 -14 -13 -27 -19 -38h69c0 50 6 91 11 141l82 18v-104c0 -13 1 -39 0 -49l-1 -7c3 0 7 1 9 1h35v-85zM289 250h-215v81h64v208
c-21 -11 -45 -24 -75 -34l-28 56l134 89h68v-319h52v-81z" />
    <glyph glyph-name="onehalf" unicode="&#xbd;" horiz-adv-x="924" 
d="M749 764l-528 -918h-108l528 918h108zM889 83l-23 -83h-275v67c26 24 76 71 103 100c53 55 62 88 62 111c0 34 -16 42 -39 42c-22 0 -45 -10 -86 -42l-56 63c52 44 100 65 165 65c77 0 127 -49 127 -119c0 -77 -90 -155 -146 -205c12 0 25 1 35 1h133zM289 250h-215v81
h64v208c-21 -11 -45 -24 -75 -34l-28 56l134 89h68v-319h52v-81z" />
    <glyph glyph-name="threequarters" unicode="&#xbe;" horiz-adv-x="978" 
d="M822 764l-528 -918h-108l528 918h108zM943 71h-37l-7 1c0 -3 1 -7 1 -11v-75l-96 -11v91l1 5h-178v63l109 267h105l-84 -207c-6 -14 -13 -27 -19 -38h69c0 50 6 91 11 141l82 18v-104c0 -13 1 -39 0 -49l-1 -7c3 0 7 1 9 1h35v-85zM341 386c0 -88 -96 -144 -222 -144
c-19 0 -27 0 -57 4l-27 74c35 -6 43 -7 61 -7c82 0 130 35 130 79c0 41 -41 41 -72 41h-40v81c17 -2 34 -4 51 -4c42 0 57 17 57 39c0 19 -11 33 -41 33c-37 0 -66 -16 -91 -36l-54 64c46 34 95 56 155 56c78 0 140 -45 140 -109c0 -36 -17 -64 -47 -84
c36 -18 57 -49 57 -87z" />
    <glyph glyph-name="questiondown" unicode="&#xbf;" horiz-adv-x="484" 
d="M444 -120c-25 -26 -91 -76 -194 -76c-102 0 -190 62 -190 167c0 92 56 129 92 152c61 39 76 88 77 130c0 12 -1 24 -2 35h115l5 -26c3 -14 4 -27 4 -40c0 -61 -31 -108 -92 -152c-28 -20 -66 -40 -66 -81c0 -49 38 -69 82 -69c56 0 90 32 108 46zM353 439
c0 -46 -37 -83 -83 -83c-45 0 -82 37 -82 83s38 83 84 83c45 0 81 -37 81 -83z" />
    <glyph glyph-name="Agrave" unicode="&#xc0;" horiz-adv-x="592" 
d="M600 0h-150l-49 165h-204l-49 -165h-146l228 697h151zM367 281c0 0 -23 73 -38 140c-7 32 -28 123 -28 123s-20 -82 -33 -134c-13 -50 -22 -83 -37 -129h136zM422 791l-41 -74l-224 100l58 104z" />
    <glyph glyph-name="Aacute" unicode="&#xc1;" horiz-adv-x="592" 
d="M600 0h-150l-49 165h-204l-49 -165h-146l228 697h151zM367 281c0 0 -23 73 -38 140c-7 32 -28 123 -28 123s-20 -82 -33 -134c-13 -50 -22 -83 -37 -129h136zM457 817l-224 -100l-41 74l207 130z" />
    <glyph glyph-name="Acircumflex" unicode="&#xc2;" horiz-adv-x="592" 
d="M600 0h-150l-49 165h-204l-49 -165h-146l228 697h151zM367 281c0 0 -23 73 -38 140c-7 32 -28 123 -28 123s-20 -82 -33 -134c-13 -50 -22 -83 -37 -129h136zM482 785l-45 -73l-139 76l-135 -76l-45 73l180 135z" />
    <glyph glyph-name="Atilde" unicode="&#xc3;" horiz-adv-x="592" 
d="M600 0h-150l-49 165h-204l-49 -165h-146l228 697h151zM367 281c0 0 -23 73 -38 140c-7 32 -28 123 -28 123s-20 -82 -33 -134c-13 -50 -22 -83 -37 -129h136zM490 799c-30 -39 -65 -58 -124 -58c-61 0 -73 34 -131 34c-27 0 -51 -11 -68 -29l-41 75c28 35 68 58 124 58
c59 0 73 -34 131 -34c28 0 51 11 68 30z" />
    <glyph glyph-name="Adieresis" unicode="&#xc4;" horiz-adv-x="592" 
d="M600 0h-150l-49 165h-204l-49 -165h-146l228 697h151zM367 281c0 0 -23 73 -38 140c-7 32 -28 123 -28 123s-20 -82 -33 -134c-13 -50 -22 -83 -37 -129h136zM276 795c0 -42 -35 -77 -77 -77c-41 0 -76 35 -76 77s36 77 78 77c41 0 75 -35 75 -77zM488 795
c0 -42 -35 -77 -77 -77c-41 0 -76 35 -76 77s36 77 78 77c41 0 75 -35 75 -77z" />
    <glyph glyph-name="Aring" unicode="&#xc5;" horiz-adv-x="592" 
d="M600 0h-150l-49 165h-204l-49 -165h-146l228 697h151zM367 281c0 0 -23 73 -38 140c-7 32 -28 123 -28 123s-20 -82 -33 -134c-13 -50 -22 -83 -37 -129h136zM410 819c0 -58 -48 -106 -106 -106c-57 0 -104 48 -104 106s49 106 106 106s104 -48 104 -106zM355 819
c0 28 -22 51 -49 51c-29 0 -52 -23 -52 -51s23 -51 50 -51c28 0 51 23 51 51z" />
    <glyph glyph-name="AE" unicode="&#xc6;" horiz-adv-x="859" 
d="M834 0h-409v165h-191l-93 -165h-156l414 695h422l-18 -114h-238v-161h199v-114h-197v-186h267v-120zM425 442c0 38 3 73 4 80c-8 -16 -105 -197 -130 -241h126v161z" />
    <glyph glyph-name="Ccedilla" unicode="&#xc7;" horiz-adv-x="574" 
d="M549 53c-55 -45 -114 -65 -193 -65h-17l-7 -20c51 -5 72 -40 72 -79c0 -49 -39 -88 -109 -88c-30 0 -67 13 -87 24l30 63c16 -7 30 -15 52 -15c14 0 25 10 25 18c0 11 -6 20 -25 20c-11 0 -18 -6 -27 -6l-13 20l20 73c-55 14 -102 42 -141 86c-56 63 -84 147 -84 249
c0 87 15 156 47 216c54 101 154 161 266 161c69 0 138 -22 176 -55l-63 -95c-35 26 -72 39 -111 39c-47 0 -93 -23 -118 -60c-27 -40 -39 -98 -39 -179c0 -95 8 -148 29 -186c28 -51 74 -78 134 -78c33 0 75 9 119 45z" />
    <glyph glyph-name="Egrave" unicode="&#xc8;" horiz-adv-x="505" 
d="M485 0h-405v695h396l-18 -114h-238v-161h199v-114h-197v-186h263v-120zM386 791l-41 -74l-224 100l58 104z" />
    <glyph glyph-name="Eacute" unicode="&#xc9;" horiz-adv-x="505" 
d="M485 0h-405v695h396l-18 -114h-238v-161h199v-114h-197v-186h263v-120zM410 817l-224 -100l-41 74l207 130z" />
    <glyph glyph-name="Ecircumflex" unicode="&#xca;" horiz-adv-x="505" 
d="M485 0h-405v695h396l-18 -114h-238v-161h199v-114h-197v-186h263v-120zM458 785l-45 -73l-139 76l-135 -76l-45 73l180 135z" />
    <glyph glyph-name="Edieresis" unicode="&#xcb;" horiz-adv-x="505" 
d="M485 0h-405v695h396l-18 -114h-238v-161h199v-114h-197v-186h263v-120zM249 795c0 -42 -35 -77 -77 -77c-41 0 -76 35 -76 77s36 77 78 77c41 0 75 -35 75 -77zM460 795c0 -42 -35 -77 -77 -77c-41 0 -76 35 -76 77s36 77 78 77c41 0 75 -35 75 -77z" />
    <glyph glyph-name="Igrave" unicode="&#xcc;" horiz-adv-x="296" 
d="M226 0h-146v695h146v-695zM270 791l-41 -74l-224 100l58 104z" />
    <glyph glyph-name="Iacute" unicode="&#xcd;" horiz-adv-x="296" 
d="M226 0h-146v695h146v-695zM305 817l-224 -100l-41 74l207 130z" />
    <glyph glyph-name="Icircumflex" unicode="&#xce;" horiz-adv-x="296" 
d="M226 0h-146v695h146v-695zM335 785l-45 -73l-139 76l-135 -76l-45 73l180 135z" />
    <glyph glyph-name="Idieresis" unicode="&#xcf;" horiz-adv-x="296" 
d="M226 0h-146v695h146v-695zM124 795c0 -42 -35 -77 -77 -77c-41 0 -76 35 -76 77s36 77 78 77c41 0 75 -35 75 -77zM335 795c0 -42 -35 -77 -77 -77c-41 0 -76 35 -76 77s36 77 78 77c41 0 75 -35 75 -77z" />
    <glyph glyph-name="Eth" unicode="&#xd0;" horiz-adv-x="628" 
d="M583 345c0 -95 -23 -178 -70 -241c-42 -57 -104 -95 -169 -100c-26 -2 -59 -4 -100 -4h-169v306h-76v89h76v300h140c40 0 93 -2 121 -4c59 -5 110 -27 152 -69c64 -63 95 -152 95 -277zM426 332c0 81 -7 149 -35 195c-23 38 -55 58 -110 58h-64v-190h107l-24 -89h-83
v-192h75c92 0 134 71 134 218z" />
    <glyph glyph-name="Ntilde" unicode="&#xd1;" horiz-adv-x="633" 
d="M563 0h-146l-119 266c-39 87 -81 185 -94 228c5 -57 6 -139 7 -197l4 -297h-135v695h155l133 -278c35 -74 62 -147 76 -197c-5 54 -10 143 -11 191l-3 284h133v-695zM497 799c-30 -39 -65 -58 -124 -58c-61 0 -73 34 -131 34c-27 0 -51 -11 -68 -29l-41 75
c28 35 68 58 124 58c59 0 73 -34 131 -34c28 0 51 11 68 30z" />
    <glyph glyph-name="Ograve" unicode="&#xd2;" horiz-adv-x="690" 
d="M650 351c0 -157 -54 -275 -155 -330c-42 -23 -81 -32 -139 -32c-105 0 -173 29 -226 98c-53 68 -80 156 -80 258c0 150 57 270 157 325c41 22 92 34 144 34c185 0 299 -135 299 -353zM489 347c0 71 -6 122 -18 161c-11 35 -48 88 -122 88c-47 0 -88 -24 -108 -61
c-24 -45 -35 -106 -35 -190c0 -120 20 -195 62 -225c22 -16 50 -24 83 -24c97 0 138 74 138 251zM467 791l-41 -74l-224 100l58 104z" />
    <glyph glyph-name="Oacute" unicode="&#xd3;" horiz-adv-x="690" 
d="M650 351c0 -157 -54 -275 -155 -330c-42 -23 -81 -32 -139 -32c-105 0 -173 29 -226 98c-53 68 -80 156 -80 258c0 150 57 270 157 325c41 22 92 34 144 34c185 0 299 -135 299 -353zM489 347c0 71 -6 122 -18 161c-11 35 -48 88 -122 88c-47 0 -88 -24 -108 -61
c-24 -45 -35 -106 -35 -190c0 -120 20 -195 62 -225c22 -16 50 -24 83 -24c97 0 138 74 138 251zM491 817l-224 -100l-41 74l207 130z" />
    <glyph glyph-name="Ocircumflex" unicode="&#xd4;" horiz-adv-x="690" 
d="M650 351c0 -157 -54 -275 -155 -330c-42 -23 -81 -32 -139 -32c-105 0 -173 29 -226 98c-53 68 -80 156 -80 258c0 150 57 270 157 325c41 22 92 34 144 34c185 0 299 -135 299 -353zM489 347c0 71 -6 122 -18 161c-11 35 -48 88 -122 88c-47 0 -88 -24 -108 -61
c-24 -45 -35 -106 -35 -190c0 -120 20 -195 62 -225c22 -16 50 -24 83 -24c97 0 138 74 138 251zM535 785l-45 -73l-139 76l-135 -76l-45 73l180 135z" />
    <glyph glyph-name="Otilde" unicode="&#xd5;" horiz-adv-x="690" 
d="M644 351c0 -157 -54 -275 -155 -330c-42 -23 -81 -32 -139 -32c-105 0 -173 29 -226 98c-53 68 -80 156 -80 258c0 150 57 270 157 325c41 22 92 34 144 34c185 0 299 -135 299 -353zM483 347c0 71 -6 122 -18 161c-11 35 -48 88 -122 88c-47 0 -88 -24 -108 -61
c-24 -45 -35 -106 -35 -190c0 -120 20 -195 62 -225c22 -16 50 -24 83 -24c97 0 138 74 138 251zM534 799c-30 -39 -65 -58 -124 -58c-61 0 -73 34 -131 34c-27 0 -51 -11 -68 -29l-41 75c28 35 68 58 124 58c59 0 73 -34 131 -34c28 0 51 11 68 30z" />
    <glyph glyph-name="Odieresis" unicode="&#xd6;" horiz-adv-x="690" 
d="M650 351c0 -157 -54 -275 -155 -330c-42 -23 -81 -32 -139 -32c-105 0 -173 29 -226 98c-53 68 -80 156 -80 258c0 150 57 270 157 325c41 22 92 34 144 34c185 0 299 -135 299 -353zM489 347c0 71 -6 122 -18 161c-11 35 -48 88 -122 88c-47 0 -88 -24 -108 -61
c-24 -45 -35 -106 -35 -190c0 -120 20 -195 62 -225c22 -16 50 -24 83 -24c97 0 138 74 138 251zM321 795c0 -42 -35 -77 -77 -77c-41 0 -76 35 -76 77s36 77 78 77c41 0 75 -35 75 -77zM532 795c0 -42 -35 -77 -77 -77c-41 0 -76 35 -76 77s36 77 78 77c41 0 75 -35 75 -77
z" />
    <glyph glyph-name="multiply" unicode="&#xd7;" horiz-adv-x="626" 
d="M551 154l-89 -89l-149 149l-149 -149l-89 89l149 149l-149 149l89 89l149 -149l149 149l89 -89l-149 -149z" />
    <glyph glyph-name="Oslash" unicode="&#xd8;" horiz-adv-x="690" 
d="M645 351c0 -157 -54 -275 -155 -330c-42 -23 -81 -32 -139 -32c-63 0 -113 11 -155 34l-67 -111l-73 41l76 125c-60 73 -87 165 -87 267c0 150 57 271 157 325c41 22 92 34 144 34c55 0 104 -12 145 -35l61 99l73 -41l-68 -110c57 -61 88 -152 88 -266zM428 565
c-20 18 -47 31 -84 31c-47 0 -89 -24 -108 -61c-24 -45 -35 -106 -35 -190c0 -53 4 -98 12 -134zM484 347c0 54 -4 97 -11 131l-216 -355c26 -18 56 -27 89 -27c97 0 138 74 138 251z" />
    <glyph glyph-name="Ugrave" unicode="&#xd9;" horiz-adv-x="646" 
d="M578 227c0 -66 -1 -79 -11 -109c-18 -55 -86 -131 -236 -131c-106 0 -184 32 -223 93c-23 36 -30 64 -30 131v484h143v-457c0 -43 4 -68 12 -83c16 -31 49 -48 95 -48c61 0 100 30 106 81c2 15 2 25 2 62v445h142v-468zM443 791l-41 -74l-224 100l58 104z" />
    <glyph glyph-name="Uacute" unicode="&#xda;" horiz-adv-x="646" 
d="M578 227c0 -66 -1 -79 -11 -109c-18 -55 -86 -131 -236 -131c-106 0 -184 32 -223 93c-23 36 -30 64 -30 131v484h143v-457c0 -43 4 -68 12 -83c16 -31 49 -48 95 -48c61 0 100 30 106 81c2 15 2 25 2 62v445h142v-468zM492 817l-224 -100l-41 74l207 130z" />
    <glyph glyph-name="Ucircumflex" unicode="&#xdb;" horiz-adv-x="646" 
d="M578 227c0 -66 -1 -79 -11 -109c-18 -55 -86 -131 -236 -131c-106 0 -184 32 -223 93c-23 36 -30 64 -30 131v484h143v-457c0 -43 4 -68 12 -83c16 -31 49 -48 95 -48c61 0 100 30 106 81c2 15 2 25 2 62v445h142v-468zM515 785l-45 -73l-139 76l-135 -76l-45 73l180 135
z" />
    <glyph glyph-name="Udieresis" unicode="&#xdc;" horiz-adv-x="646" 
d="M578 227c0 -66 -1 -79 -11 -109c-18 -55 -86 -131 -236 -131c-106 0 -184 32 -223 93c-23 36 -30 64 -30 131v484h143v-457c0 -43 4 -68 12 -83c16 -31 49 -48 95 -48c61 0 100 30 106 81c2 15 2 25 2 62v445h142v-468zM299 795c0 -42 -35 -77 -77 -77
c-41 0 -76 35 -76 77s36 77 78 77c41 0 75 -35 75 -77zM509 795c0 -42 -35 -77 -77 -77c-41 0 -76 35 -76 77s36 77 78 77c41 0 75 -35 75 -77z" />
    <glyph glyph-name="Yacute" unicode="&#xdd;" horiz-adv-x="544" 
d="M569 695l-222 -409v-286h-146v286l-216 409h168l89 -190c18 -38 27 -63 35 -89c8 20 22 54 37 87l90 192h165zM435 817l-224 -100l-41 74l207 130z" />
    <glyph glyph-name="Thorn" unicode="&#xde;" horiz-adv-x="576" 
d="M551 371c0 -92 -44 -166 -120 -202c-32 -15 -62 -23 -139 -23h-77v-146h-140v695h140v-110h43c118 0 154 -12 193 -34c65 -36 100 -100 100 -180zM398 368c0 65 -35 104 -94 104h-89v-212h73c57 0 74 7 93 36c12 19 17 39 17 72z" />
    <glyph glyph-name="germandbls" unicode="&#xdf;" horiz-adv-x="612" 
d="M577 193c0 -123 -92 -206 -228 -206c-34 0 -56 3 -75 12l30 92c8 -3 18 -5 30 -5c61 0 96 37 96 102c0 28 -4 42 -21 60c-11 12 -23 23 -37 32l-45 29c-28 18 -44 47 -44 81c0 36 14 55 33 70l23 18c22 17 32 37 32 64c0 29 -6 46 -18 60c-11 12 -31 20 -50 20
c-35 0 -62 -25 -69 -59c-3 -15 -3 -33 -3 -70v-390c0 -50 -14 -90 -20 -103h-136c5 16 20 79 20 127v281h-82v104h82v16c0 59 4 99 50 141c28 26 63 43 104 51c17 3 35 5 55 5c133 0 217 -64 217 -165c0 -54 -25 -96 -74 -125l-32 -19c-8 -5 -13 -11 -13 -18
c0 -9 7 -17 24 -25c63 -28 83 -39 109 -67c30 -31 42 -68 42 -113z" />
    <glyph glyph-name="agrave" unicode="&#xe0;" horiz-adv-x="522" 
d="M498 56l-71 -82c-31 13 -59 36 -72 62c-10 -10 -21 -20 -31 -27c-25 -18 -61 -28 -103 -28c-114 0 -176 58 -176 160c0 120 83 176 246 176c10 0 19 0 30 -1v21c0 57 -11 76 -60 76c-43 0 -93 -21 -148 -58l-57 96c27 17 47 27 83 42c50 21 93 30 140 30
c86 0 145 -32 165 -89c7 -21 10 -37 9 -92l-3 -172c-1 -56 3 -80 48 -114zM319 224h-6c-93 0 -125 -17 -125 -78c0 -40 25 -67 59 -67c25 0 50 13 70 35zM386 631l-41 -74l-224 100l58 104z" />
    <glyph glyph-name="aacute" unicode="&#xe1;" horiz-adv-x="522" 
d="M498 56l-71 -82c-31 13 -59 36 -72 62c-10 -10 -21 -20 -31 -27c-25 -18 -61 -28 -103 -28c-114 0 -176 58 -176 160c0 120 83 176 246 176c10 0 19 0 30 -1v21c0 57 -11 76 -60 76c-43 0 -93 -21 -148 -58l-57 96c27 17 47 27 83 42c50 21 93 30 140 30
c86 0 145 -32 165 -89c7 -21 10 -37 9 -92l-3 -172c-1 -56 3 -80 48 -114zM319 224h-6c-93 0 -125 -17 -125 -78c0 -40 25 -67 59 -67c25 0 50 13 70 35zM417 657l-224 -100l-41 74l207 130z" />
    <glyph glyph-name="acircumflex" unicode="&#xe2;" horiz-adv-x="522" 
d="M498 56l-71 -82c-31 13 -59 36 -72 62c-10 -10 -21 -20 -31 -27c-25 -18 -61 -28 -103 -28c-114 0 -176 58 -176 160c0 120 83 176 246 176c10 0 19 0 30 -1v21c0 57 -11 76 -60 76c-43 0 -93 -21 -148 -58l-57 96c27 17 47 27 83 42c50 21 93 30 140 30
c86 0 145 -32 165 -89c7 -21 10 -37 9 -92l-3 -172c-1 -56 3 -80 48 -114zM319 224h-6c-93 0 -125 -17 -125 -78c0 -40 25 -67 59 -67c25 0 50 13 70 35zM442 625l-45 -73l-139 76l-135 -76l-45 73l180 135z" />
    <glyph glyph-name="atilde" unicode="&#xe3;" horiz-adv-x="522" 
d="M498 56l-71 -82c-31 13 -59 36 -72 62c-10 -10 -21 -20 -31 -27c-25 -18 -61 -28 -103 -28c-114 0 -176 58 -176 160c0 120 83 176 246 176c10 0 19 0 30 -1v21c0 57 -11 76 -60 76c-43 0 -93 -21 -148 -58l-57 96c27 17 47 27 83 42c50 21 93 30 140 30
c86 0 145 -32 165 -89c7 -21 10 -37 9 -92l-3 -172c-1 -56 3 -80 48 -114zM319 224h-6c-93 0 -125 -17 -125 -78c0 -40 25 -67 59 -67c25 0 50 13 70 35zM446 639c-30 -39 -65 -58 -124 -58c-61 0 -73 34 -131 34c-27 0 -51 -11 -68 -29l-41 75c28 35 68 58 124 58
c59 0 73 -34 131 -34c28 0 51 11 68 30z" />
    <glyph glyph-name="adieresis" unicode="&#xe4;" horiz-adv-x="522" 
d="M498 56l-71 -82c-31 13 -59 36 -72 62c-10 -10 -21 -20 -31 -27c-25 -18 -61 -28 -103 -28c-114 0 -176 58 -176 160c0 120 83 176 246 176c10 0 19 0 30 -1v21c0 57 -11 76 -60 76c-43 0 -93 -21 -148 -58l-57 96c27 17 47 27 83 42c50 21 93 30 140 30
c86 0 145 -32 165 -89c7 -21 10 -37 9 -92l-3 -172c-1 -56 3 -80 48 -114zM319 224h-6c-93 0 -125 -17 -125 -78c0 -40 25 -67 59 -67c25 0 50 13 70 35zM233 635c0 -44 -36 -80 -80 -80c-42 0 -79 36 -79 80c0 43 38 80 82 80c42 0 77 -37 77 -80zM445 636
c0 -44 -37 -81 -80 -81s-80 37 -80 81s38 80 82 80c43 0 78 -36 78 -80z" />
    <glyph glyph-name="aring" unicode="&#xe5;" horiz-adv-x="522" 
d="M498 56l-71 -82c-31 13 -59 36 -72 62c-10 -10 -21 -20 -31 -27c-25 -18 -61 -28 -103 -28c-114 0 -176 58 -176 160c0 120 83 176 246 176c10 0 19 0 30 -1v21c0 57 -11 76 -60 76c-43 0 -93 -21 -148 -58l-57 96c27 17 47 27 83 42c50 21 93 30 140 30
c86 0 145 -32 165 -89c7 -21 10 -37 9 -92l-3 -172c-1 -56 3 -80 48 -114zM319 224h-6c-93 0 -125 -17 -125 -78c0 -40 25 -67 59 -67c25 0 50 13 70 35zM371 659c0 -58 -48 -106 -106 -106c-57 0 -104 48 -104 106s49 106 106 106s104 -48 104 -106zM316 659
c0 28 -22 51 -49 51c-29 0 -52 -23 -52 -51s23 -51 50 -51c28 0 51 23 51 51z" />
    <glyph glyph-name="ae" unicode="&#xe6;" horiz-adv-x="772" 
d="M742 213h-296v-4c0 -79 39 -124 108 -124c46 0 89 17 130 51l52 -80c-59 -48 -121 -71 -193 -71c-71 0 -104 12 -153 50c-6 4 -12 12 -18 18c-16 -22 -42 -39 -53 -45c-27 -15 -61 -27 -103 -27c-114 0 -176 58 -176 160c0 120 83 176 246 176c10 0 16 -1 30 -1v21
c0 57 -11 76 -60 76c-43 0 -93 -21 -148 -58l-57 96c23 15 47 27 83 42c50 21 93 30 140 30c55 0 100 -23 130 -47c28 26 73 46 122 46c59 0 115 -20 148 -54c47 -48 68 -117 68 -224v-31zM314 224h-6c-93 0 -125 -17 -125 -78c0 -40 25 -67 59 -67c25 0 51 14 71 36z
M603 311v6c0 38 -4 58 -16 77c-13 20 -32 30 -59 30c-51 0 -80 -40 -80 -111v-2h155z" />
    <glyph glyph-name="ccedilla" unicode="&#xe7;" horiz-adv-x="465" 
d="M440 58c-20 -20 -29 -27 -47 -38c-34 -20 -72 -32 -117 -32l-7 -20c51 -5 72 -40 72 -79c0 -49 -39 -88 -109 -88c-30 0 -67 13 -87 24l30 63c16 -7 30 -15 52 -15c14 0 25 10 25 18c0 11 -6 20 -25 20c-11 0 -18 -6 -27 -6l-13 20l19 70c-103 25 -161 117 -161 257
c0 118 45 196 105 237c34 23 84 38 127 38c34 0 70 -9 99 -23c19 -10 28 -17 50 -36l-65 -88c-27 25 -56 40 -81 40c-60 0 -87 -52 -87 -172c0 -67 8 -107 26 -129c14 -18 37 -29 60 -29c31 0 59 13 92 42l8 7z" />
    <glyph glyph-name="egrave" unicode="&#xe8;" horiz-adv-x="516" 
d="M491 214h-296v-4c0 -79 39 -124 108 -124c46 0 89 17 130 51l52 -80c-59 -48 -121 -71 -193 -71c-147 0 -242 104 -242 265c0 92 19 153 64 203c42 47 93 69 161 69c59 0 115 -20 148 -54c47 -48 68 -117 68 -224v-31zM352 312v6c0 38 -4 58 -16 77c-13 20 -32 30 -59 30
c-51 0 -80 -40 -80 -111v-2h155zM370 631l-41 -74l-224 100l58 104z" />
    <glyph glyph-name="eacute" unicode="&#xe9;" horiz-adv-x="516" 
d="M491 214h-296v-4c0 -79 39 -124 108 -124c46 0 89 17 130 51l52 -80c-59 -48 -121 -71 -193 -71c-147 0 -242 104 -242 265c0 92 19 153 64 203c42 47 93 69 161 69c59 0 115 -20 148 -54c47 -48 68 -117 68 -224v-31zM352 312v6c0 38 -4 58 -16 77c-13 20 -32 30 -59 30
c-51 0 -80 -40 -80 -111v-2h155zM421 657l-224 -100l-41 74l207 130z" />
    <glyph glyph-name="ecircumflex" unicode="&#xea;" horiz-adv-x="516" 
d="M491 214h-296v-4c0 -79 39 -124 108 -124c46 0 89 17 130 51l52 -80c-59 -48 -121 -71 -193 -71c-147 0 -242 104 -242 265c0 92 19 153 64 203c42 47 93 69 161 69c59 0 115 -20 148 -54c47 -48 68 -117 68 -224v-31zM352 312v6c0 38 -4 58 -16 77c-13 20 -32 30 -59 30
c-51 0 -80 -40 -80 -111v-2h155zM458 625l-45 -73l-139 76l-135 -76l-45 73l180 135z" />
    <glyph glyph-name="edieresis" unicode="&#xeb;" horiz-adv-x="516" 
d="M491 214h-296v-4c0 -79 39 -124 108 -124c46 0 89 17 130 51l52 -80c-59 -48 -121 -71 -193 -71c-147 0 -242 104 -242 265c0 92 19 153 64 203c42 47 93 69 161 69c59 0 115 -20 148 -54c47 -48 68 -117 68 -224v-31zM352 312v6c0 38 -4 58 -16 77c-13 20 -32 30 -59 30
c-51 0 -80 -40 -80 -111v-2h155zM247 635c0 -42 -35 -77 -77 -77c-41 0 -76 35 -76 77s36 77 78 77c41 0 75 -35 75 -77zM458 635c0 -42 -35 -77 -77 -77c-41 0 -76 35 -76 77s36 77 78 77c41 0 75 -35 75 -77z" />
    <glyph glyph-name="igrave" unicode="&#xec;" horiz-adv-x="284" 
d="M214 0h-134v503l134 21v-524zM255 631l-41 -74l-224 100l58 104z" />
    <glyph glyph-name="iacute" unicode="&#xed;" horiz-adv-x="284" 
d="M214 0h-134v503l134 21v-524zM308 657l-224 -100l-41 74l207 130z" />
    <glyph glyph-name="icircumflex" unicode="&#xee;" horiz-adv-x="284" 
d="M214 0h-134v503l134 21v-524zM329 625l-45 -73l-139 76l-135 -76l-45 73l180 135z" />
    <glyph glyph-name="idieresis" unicode="&#xef;" horiz-adv-x="284" 
d="M214 0h-134v503l134 21v-524zM118 635c0 -42 -35 -77 -77 -77c-41 0 -76 35 -76 77s36 77 78 77c41 0 75 -35 75 -77zM329 635c0 -42 -35 -77 -77 -77c-41 0 -76 35 -76 77s36 77 78 77c41 0 75 -35 75 -77z" />
    <glyph glyph-name="eth" unicode="&#xf0;" horiz-adv-x="536" 
d="M491 241c0 -167 -97 -253 -225 -253c-126 0 -221 85 -221 226c0 128 89 209 212 209c20 0 37 -2 52 -3c-18 25 -42 51 -66 72c-8 7 -17 14 -26 21l-41 -47l-81 36l48 54c-39 18 -87 32 -142 38l80 95c43 -5 93 -18 142 -41l31 36l81 -36l-37 -43c29 -20 56 -43 79 -70
c74 -87 114 -185 114 -294zM358 233c0 21 -4 48 -6 65c-19 12 -41 19 -89 19c-52 0 -83 -37 -83 -105s34 -115 92 -115c59 0 86 57 86 136z" />
    <glyph glyph-name="ntilde" unicode="&#xf1;" horiz-adv-x="554" 
d="M484 0h-132v333c0 58 -10 75 -45 75c-27 0 -62 -18 -93 -46v-362h-134v371c0 44 -6 86 -18 120l119 34c12 -21 19 -43 19 -64c20 14 37 26 59 38c27 14 62 22 92 22c57 0 107 -30 123 -74c7 -19 10 -41 10 -73v-374zM462 639c-30 -39 -65 -58 -124 -58
c-61 0 -73 34 -131 34c-27 0 -51 -11 -68 -29l-41 75c28 35 68 58 124 58c59 0 73 -34 131 -34c28 0 51 11 68 30z" />
    <glyph glyph-name="ograve" unicode="&#xf2;" horiz-adv-x="543" 
d="M508 258c0 -88 -20 -148 -64 -198c-39 -44 -90 -71 -169 -71c-139 0 -230 104 -230 265s92 268 230 268c73 0 130 -25 174 -77c41 -48 59 -104 59 -187zM362 259c0 69 -9 114 -27 137c-13 17 -34 27 -58 27c-32 0 -58 -20 -69 -52c-9 -27 -14 -63 -14 -114
c0 -59 6 -103 17 -129c12 -28 42 -42 68 -42c58 0 83 52 83 173zM368 631l-41 -74l-224 100l58 104z" />
    <glyph glyph-name="oacute" unicode="&#xf3;" horiz-adv-x="543" 
d="M508 258c0 -88 -20 -148 -64 -198c-39 -44 -90 -71 -169 -71c-139 0 -230 104 -230 265s92 268 230 268c73 0 130 -25 174 -77c41 -48 59 -104 59 -187zM362 259c0 69 -9 114 -27 137c-13 17 -34 27 -58 27c-32 0 -58 -20 -69 -52c-9 -27 -14 -63 -14 -114
c0 -59 6 -103 17 -129c12 -28 42 -42 68 -42c58 0 83 52 83 173zM422 657l-224 -100l-41 74l207 130z" />
    <glyph glyph-name="ocircumflex" unicode="&#xf4;" horiz-adv-x="543" 
d="M508 258c0 -88 -20 -148 -64 -198c-39 -44 -90 -71 -169 -71c-139 0 -230 104 -230 265s92 268 230 268c73 0 130 -25 174 -77c41 -48 59 -104 59 -187zM362 259c0 69 -9 114 -27 137c-13 17 -34 27 -58 27c-32 0 -58 -20 -69 -52c-9 -27 -14 -63 -14 -114
c0 -59 6 -103 17 -129c12 -28 42 -42 68 -42c58 0 83 52 83 173zM459 625l-45 -73l-139 76l-135 -76l-45 73l180 135z" />
    <glyph glyph-name="otilde" unicode="&#xf5;" horiz-adv-x="543" 
d="M508 258c0 -88 -20 -148 -64 -198c-39 -44 -90 -71 -169 -71c-139 0 -230 104 -230 265s92 268 230 268c73 0 130 -25 174 -77c41 -48 59 -104 59 -187zM362 259c0 69 -9 114 -27 137c-13 17 -34 27 -58 27c-32 0 -58 -20 -69 -52c-9 -27 -14 -63 -14 -114
c0 -59 6 -103 17 -129c12 -28 42 -42 68 -42c58 0 83 52 83 173zM457 639c-30 -39 -65 -58 -124 -58c-61 0 -73 34 -131 34c-27 0 -51 -11 -68 -29l-41 75c28 35 68 58 124 58c59 0 73 -34 131 -34c28 0 51 11 68 30z" />
    <glyph glyph-name="odieresis" unicode="&#xf6;" horiz-adv-x="543" 
d="M508 258c0 -88 -20 -148 -64 -198c-39 -44 -90 -71 -169 -71c-139 0 -230 104 -230 265s92 268 230 268c73 0 130 -25 174 -77c41 -48 59 -104 59 -187zM362 259c0 69 -9 114 -27 137c-13 17 -34 27 -58 27c-32 0 -58 -20 -69 -52c-9 -27 -14 -63 -14 -114
c0 -59 6 -103 17 -129c12 -28 42 -42 68 -42c58 0 83 52 83 173zM247 635c0 -42 -35 -77 -77 -77c-41 0 -76 35 -76 77s36 77 78 77c41 0 75 -35 75 -77zM458 635c0 -42 -35 -77 -77 -77c-41 0 -76 35 -76 77s36 77 78 77c41 0 75 -35 75 -77z" />
    <glyph glyph-name="divide" unicode="&#xf7;" horiz-adv-x="595" 
d="M550 214h-505v105h505v-105zM382 68c0 -47 -39 -84 -87 -84c-47 0 -86 37 -86 84c0 49 39 89 87 89s86 -40 86 -89zM383 467c0 -48 -39 -86 -87 -86c-47 0 -85 38 -85 85c0 48 38 88 85 88c48 0 87 -39 87 -87z" />
    <glyph glyph-name="oslash" unicode="&#xf8;" horiz-adv-x="543" 
d="M503 258c0 -88 -20 -148 -64 -198c-39 -44 -90 -71 -169 -71c-38 0 -73 8 -103 23l-58 -96l-62 35l62 103c-44 47 -69 115 -69 200c0 161 92 268 230 268c41 0 77 -8 109 -24l59 96l62 -35l-65 -105c49 -48 68 -113 68 -196zM357 259c0 23 -1 48 -3 60l-131 -215
c15 -12 34 -18 51 -18c58 0 83 52 83 173zM322 404c-13 12 -30 19 -50 19c-32 0 -58 -20 -69 -52c-9 -27 -14 -63 -14 -114c0 -25 2 -48 3 -67z" />
    <glyph glyph-name="ugrave" unicode="&#xf9;" horiz-adv-x="546" 
d="M507 40l-95 -54c-17 12 -31 29 -40 50c-33 -32 -81 -49 -135 -49c-72 0 -134 34 -151 83c-8 23 -11 50 -11 102v328l132 25v-329c0 -46 4 -70 11 -84s27 -24 47 -24c33 0 73 24 83 49v360l128 27v-391c0 -34 11 -69 31 -93zM400 631l-41 -74l-224 100l58 104z" />
    <glyph glyph-name="uacute" unicode="&#xfa;" horiz-adv-x="546" 
d="M507 40l-95 -54c-17 12 -31 29 -40 50c-33 -32 -81 -49 -135 -49c-72 0 -134 34 -151 83c-8 23 -11 50 -11 102v328l132 25v-329c0 -46 4 -70 11 -84s27 -24 47 -24c33 0 73 24 83 49v360l128 27v-391c0 -34 11 -69 31 -93zM435 657l-224 -100l-41 74l207 130z" />
    <glyph glyph-name="ucircumflex" unicode="&#xfb;" horiz-adv-x="546" 
d="M507 40l-95 -54c-17 12 -31 29 -40 50c-33 -32 -81 -49 -135 -49c-72 0 -134 34 -151 83c-8 23 -11 50 -11 102v328l132 25v-329c0 -46 4 -70 11 -84s27 -24 47 -24c33 0 73 24 83 49v360l128 27v-391c0 -34 11 -69 31 -93zM461 625l-45 -73l-139 76l-135 -76l-45 73
l180 135z" />
    <glyph glyph-name="udieresis" unicode="&#xfc;" horiz-adv-x="546" 
d="M507 40l-95 -54c-17 12 -31 29 -40 50c-33 -32 -81 -49 -135 -49c-72 0 -134 34 -151 83c-8 23 -11 50 -11 102v328l132 25v-329c0 -46 4 -70 11 -84s27 -24 47 -24c33 0 73 24 83 49v360l128 27v-391c0 -34 11 -69 31 -93zM244 635c0 -42 -35 -77 -77 -77
c-41 0 -76 35 -76 77s36 77 78 77c41 0 75 -35 75 -77zM460 635c0 -42 -35 -77 -77 -77c-41 0 -76 35 -76 77s36 77 78 77c41 0 75 -35 75 -77z" />
    <glyph glyph-name="yacute" unicode="&#xfd;" horiz-adv-x="507" 
d="M512 512l-186 -520c-35 -99 -61 -142 -98 -169c-34 -25 -78 -41 -124 -47l-46 88c29 8 63 20 83 34c15 11 27 25 38 42c13 21 17 30 29 60h-34c-16 48 -43 128 -48 144l-121 360l137 16l89 -299c8 -30 25 -99 27 -106c0 3 10 57 16 82c4 17 12 47 20 71l77 244h141z
M426 657l-224 -100l-41 74l207 130z" />
    <glyph glyph-name="thorn" unicode="&#xfe;" horiz-adv-x="558" 
d="M513 265c0 -104 -32 -185 -95 -235c-35 -28 -70 -40 -112 -40c-50 0 -82 15 -106 39v-215l-129 -34v803c0 63 -2 97 -9 126l137 32c4 -35 5 -56 5 -91v-121c0 -15 -1 -37 -3 -45c26 28 62 41 109 41c125 0 203 -100 203 -260zM361 262c0 46 -1 65 -6 87
c-10 44 -38 65 -73 65s-59 -22 -76 -41v-236c18 -16 39 -33 75 -33c33 0 54 13 65 40c12 28 15 55 15 118z" />
    <glyph glyph-name="ydieresis" unicode="&#xff;" horiz-adv-x="507" 
d="M512 512l-186 -520c-35 -99 -61 -142 -98 -169c-34 -25 -78 -41 -124 -47l-46 88c29 8 63 20 83 34c15 11 27 25 38 42c13 21 17 30 29 60h-34c-16 48 -43 128 -48 144l-121 360l137 16l89 -299c8 -30 25 -99 27 -106c0 3 10 57 16 82c4 17 12 47 20 71l77 244h141z
M242 635c0 -42 -35 -77 -77 -77c-41 0 -76 35 -76 77s36 77 78 77c41 0 75 -35 75 -77zM453 635c0 -42 -35 -77 -77 -77c-41 0 -76 35 -76 77s36 77 78 77c41 0 75 -35 75 -77z" />
    <glyph glyph-name="Amacron" unicode="&#x100;" horiz-adv-x="592" 
d="M600 0h-150l-49 165h-204l-49 -165h-146l228 697h151zM367 281c0 0 -23 73 -38 140c-7 32 -28 123 -28 123s-20 -82 -33 -134c-13 -50 -22 -83 -37 -129h136zM461 748h-314v92h314v-92z" />
    <glyph glyph-name="amacron" unicode="&#x101;" horiz-adv-x="522" 
d="M498 56l-71 -82c-31 13 -59 36 -72 62c-10 -10 -21 -20 -31 -27c-25 -18 -61 -28 -103 -28c-114 0 -176 58 -176 160c0 120 83 176 246 176c10 0 19 0 30 -1v21c0 57 -11 76 -60 76c-43 0 -93 -21 -148 -58l-57 96c27 17 47 27 83 42c50 21 93 30 140 30
c86 0 145 -32 165 -89c7 -21 10 -37 9 -92l-3 -172c-1 -56 3 -80 48 -114zM319 224h-6c-93 0 -125 -17 -125 -78c0 -40 25 -67 59 -67c25 0 50 13 70 35zM422 589h-314v78h314v-78z" />
    <glyph glyph-name="Abreve" unicode="&#x102;" horiz-adv-x="592" 
d="M600 0h-150l-49 165h-204l-49 -165h-146l228 697h151zM367 281c0 0 -23 73 -38 140c-7 32 -28 123 -28 123s-20 -82 -33 -134c-13 -50 -22 -83 -37 -129h136zM493 843c-13 -16 -101 -121 -187 -121c-84 0 -171 98 -190 124l43 54c21 -20 81 -68 151 -68
c59 0 128 53 147 68z" />
    <glyph glyph-name="abreve" unicode="&#x103;" horiz-adv-x="522" 
d="M498 56l-71 -82c-31 13 -59 36 -72 62c-10 -10 -21 -20 -31 -27c-25 -18 -61 -28 -103 -28c-114 0 -176 58 -176 160c0 120 83 176 246 176c10 0 19 0 30 -1v21c0 57 -11 76 -60 76c-43 0 -93 -21 -148 -58l-57 96c27 17 47 27 83 42c50 21 93 30 140 30
c86 0 145 -32 165 -89c7 -21 10 -37 9 -92l-3 -172c-1 -56 3 -80 48 -114zM319 224h-6c-93 0 -125 -17 -125 -78c0 -40 25 -67 59 -67c25 0 50 13 70 35zM452 676c-13 -16 -101 -121 -187 -121c-84 0 -171 98 -190 124l43 54c21 -20 81 -68 151 -68c58 0 128 53 147 68z" />
    <glyph glyph-name="Aogonek" unicode="&#x104;" horiz-adv-x="592" 
d="M607 -174c-32 -14 -67 -27 -111 -27c-63 0 -103 38 -103 92c0 40 24 82 52 109l-49 165h-204l-49 -165h-146l228 697h151l219 -697h-14c-56 0 -89 -47 -89 -84c0 -5 1 -10 2 -14c4 -14 14 -24 32 -24s33 5 53 15zM362 281c0 0 -23 73 -38 140c-7 32 -28 123 -28 123
s-20 -82 -33 -134c-13 -50 -22 -83 -37 -129h136z" />
    <glyph glyph-name="aogonek" unicode="&#x105;" horiz-adv-x="522" 
d="M511 -174c-32 -14 -67 -27 -111 -27c-61 0 -103 36 -103 92c0 51 41 92 73 118c-8 8 -15 17 -20 27c-10 -10 -21 -20 -31 -27c-25 -18 -61 -28 -103 -28c-114 0 -176 58 -176 160c0 120 83 176 246 176c10 0 19 0 30 -1v21c0 57 -11 76 -60 76c-43 0 -93 -21 -148 -58
l-57 96c27 17 47 27 83 42c50 21 93 30 140 30c86 0 145 -32 165 -89c7 -21 10 -37 9 -92l-3 -191c-1 -48 22 -89 50 -114c-65 -46 -98 -89 -98 -124c0 -3 1 -5 1 -8c2 -15 12 -27 32 -27c18 0 33 5 53 15zM314 224h-6c-93 0 -125 -17 -125 -78c0 -40 25 -67 59 -67
c25 0 50 13 70 35z" />
    <glyph glyph-name="Cacute" unicode="&#x106;" horiz-adv-x="574" 
d="M554 53c-55 -45 -114 -65 -193 -65c-96 0 -170 31 -227 96c-56 63 -84 147 -84 249c0 87 15 156 47 216c54 101 154 161 266 161c69 0 138 -22 176 -55l-63 -95c-35 26 -72 39 -111 39c-47 0 -93 -23 -118 -60c-27 -40 -39 -98 -39 -179c0 -95 8 -148 29 -186
c28 -51 74 -78 134 -78c41 0 78 12 119 45zM493 817l-224 -100l-41 74l207 130z" />
    <glyph glyph-name="cacute" unicode="&#x107;" horiz-adv-x="465" 
d="M445 58c-20 -20 -29 -27 -47 -38c-36 -21 -76 -32 -125 -32c-141 0 -223 98 -223 264c0 118 45 196 105 237c34 23 84 38 127 38c34 0 71 -8 99 -23c19 -10 28 -17 50 -36l-65 -88c-27 25 -56 40 -81 40c-60 0 -87 -52 -87 -172c0 -67 9 -107 26 -129
c14 -18 37 -29 60 -29c31 0 59 13 92 42l8 7zM424 655l-224 -100l-41 74l207 130z" />
    <glyph glyph-name="Ccircumflex" unicode="&#x108;" horiz-adv-x="574" 
d="M554 53c-55 -45 -114 -65 -193 -65c-96 0 -170 31 -227 96c-56 63 -84 147 -84 249c0 87 15 156 47 216c54 101 154 161 266 161c69 0 138 -22 176 -55l-63 -95c-35 26 -72 39 -111 39c-47 0 -93 -23 -118 -60c-27 -40 -39 -98 -39 -179c0 -95 8 -148 29 -186
c28 -51 74 -78 134 -78c41 0 78 12 119 45zM546 785l-45 -73l-139 76l-135 -76l-45 73l180 135z" />
    <glyph glyph-name="ccircumflex" unicode="&#x109;" horiz-adv-x="465" 
d="M445 58c-20 -20 -29 -27 -47 -38c-36 -21 -76 -32 -125 -32c-141 0 -223 98 -223 264c0 118 45 196 105 237c34 23 84 38 127 38c34 0 71 -8 99 -23c19 -10 28 -17 50 -36l-65 -88c-27 25 -56 40 -81 40c-60 0 -87 -52 -87 -172c0 -67 9 -107 26 -129
c14 -18 37 -29 60 -29c31 0 59 13 92 42l8 7zM466 625l-45 -73l-139 76l-135 -76l-45 73l180 135z" />
    <glyph glyph-name="Cdotaccent" unicode="&#x10a;" horiz-adv-x="574" 
d="M554 53c-55 -45 -114 -65 -193 -65c-96 0 -170 31 -227 96c-56 63 -84 147 -84 249c0 87 15 156 47 216c54 101 154 161 266 161c69 0 138 -22 176 -55l-63 -95c-35 26 -72 39 -111 39c-47 0 -93 -23 -118 -60c-27 -40 -39 -98 -39 -179c0 -95 8 -148 29 -186
c28 -51 74 -78 134 -78c41 0 78 12 119 45zM446 801c0 -46 -37 -83 -83 -83c-45 0 -82 37 -82 83s38 83 84 83c45 0 81 -37 81 -83z" />
    <glyph glyph-name="cdotaccent" unicode="&#x10b;" horiz-adv-x="465" 
d="M445 58c-20 -20 -29 -27 -47 -38c-36 -21 -76 -32 -125 -32c-141 0 -223 98 -223 264c0 118 45 196 105 237c34 23 84 38 127 38c34 0 71 -8 99 -23c19 -10 28 -17 50 -36l-65 -88c-27 25 -56 40 -81 40c-60 0 -87 -52 -87 -172c0 -67 9 -107 26 -129
c14 -18 37 -29 60 -29c31 0 59 13 92 42l8 7zM365 653c0 -46 -37 -83 -83 -83c-45 0 -82 37 -82 83s38 83 84 83c45 0 81 -37 81 -83z" />
    <glyph glyph-name="Ccaron" unicode="&#x10c;" horiz-adv-x="574" 
d="M554 53c-55 -45 -114 -65 -193 -65c-96 0 -170 31 -227 96c-56 63 -84 147 -84 249c0 87 15 156 47 216c54 101 154 161 266 161c69 0 138 -22 176 -55l-63 -95c-35 26 -72 39 -111 39c-47 0 -93 -23 -118 -60c-27 -40 -39 -98 -39 -179c0 -95 8 -148 29 -186
c28 -51 74 -78 134 -78c41 0 78 12 119 45zM533 852l-180 -135l-184 135l45 73l139 -76l135 76z" />
    <glyph glyph-name="ccaron" unicode="&#x10d;" horiz-adv-x="465" 
d="M445 58c-20 -20 -29 -27 -47 -38c-36 -21 -76 -32 -125 -32c-141 0 -223 98 -223 264c0 118 45 196 105 237c34 23 84 38 127 38c34 0 71 -8 99 -23c19 -10 28 -17 50 -36l-65 -88c-27 25 -56 40 -81 40c-60 0 -87 -52 -87 -172c0 -67 9 -107 26 -129
c14 -18 37 -29 60 -29c31 0 59 13 92 42l8 7zM457 690l-180 -135l-184 135l45 73l139 -76l135 76z" />
    <glyph glyph-name="Dcaron" unicode="&#x10e;" horiz-adv-x="628" 
d="M588 345c0 -95 -23 -178 -70 -241c-42 -57 -104 -95 -169 -100c-26 -2 -59 -4 -100 -4h-169v695h140c40 0 93 -2 121 -4c59 -5 110 -27 152 -69c64 -63 95 -152 95 -277zM431 332c0 81 -7 149 -35 195c-23 38 -55 58 -110 58h-64v-471h75c92 0 134 71 134 218zM470 852
l-180 -135l-184 135l45 73l139 -76l135 76z" />
    <glyph glyph-name="dcaron" unicode="&#x10f;" horiz-adv-x="559" 
d="M693 647c0 -36 -13 -68 -35 -94c-17 -21 -52 -46 -90 -56l-43 46c37 11 59 33 60 54v2c0 10 -10 10 -22 18c-22 13 -33 31 -33 57c0 39 33 70 75 70c54 0 88 -38 88 -97zM508 0h-120c-4 8 -6 16 -8 30c-33 -29 -72 -43 -118 -43c-130 0 -212 101 -212 260
c0 160 89 270 219 270c37 0 66 -9 91 -29c-2 11 -4 46 -4 76v176l133 -21v-532c0 -126 10 -167 19 -187zM358 133v244c-25 22 -49 33 -73 33c-60 0 -86 -50 -86 -164c0 -110 23 -146 93 -146c25 0 53 17 66 33z" />
    <glyph glyph-name="Dcroat" unicode="&#x110;" horiz-adv-x="628" 
d="M583 345c0 -95 -23 -178 -70 -241c-42 -57 -104 -95 -169 -100c-26 -2 -59 -4 -100 -4h-169v306h-76v89h76v300h140c40 0 93 -2 121 -4c59 -5 110 -27 152 -69c64 -63 95 -152 95 -277zM426 332c0 81 -7 149 -35 195c-23 38 -55 58 -110 58h-64v-190h107l-24 -89h-83
v-192h75c92 0 134 71 134 218z" />
    <glyph glyph-name="dcroat" unicode="&#x111;" horiz-adv-x="559" 
d="M554 570h-70v-383c0 -126 10 -167 19 -187h-120c-4 8 -6 16 -8 30c-33 -29 -72 -43 -118 -43c-130 0 -212 101 -212 260c0 160 89 270 219 270c37 0 66 -9 91 -29c-2 11 -4 46 -4 76v6h-111v78h111v92l133 -21v-71h70v-78zM353 133v244c-25 22 -49 33 -73 33
c-60 0 -86 -50 -86 -164c0 -110 23 -146 93 -146c25 0 53 17 66 33z" />
    <glyph glyph-name="Emacron" unicode="&#x112;" horiz-adv-x="505" 
d="M485 0h-405v695h396l-18 -114h-238v-161h199v-114h-197v-186h263v-120zM434 748h-314v92h314v-92z" />
    <glyph glyph-name="emacron" unicode="&#x113;" horiz-adv-x="516" 
d="M491 214h-296v-4c0 -79 39 -124 108 -124c46 0 89 17 130 51l52 -80c-59 -48 -121 -71 -193 -71c-147 0 -242 104 -242 265c0 92 19 153 64 203c42 47 93 69 161 69c59 0 115 -20 148 -54c47 -48 68 -117 68 -224v-31zM352 312v6c0 38 -4 58 -16 77c-13 20 -32 30 -59 30
c-51 0 -80 -40 -80 -111v-2h155zM435 589h-314v78h314v-78z" />
    <glyph glyph-name="Edotaccent" unicode="&#x116;" horiz-adv-x="505" 
d="M485 0h-405v695h396l-18 -114h-238v-161h199v-114h-197v-186h263v-120zM359 800c0 -46 -37 -83 -83 -83c-45 0 -82 37 -82 83s38 83 84 83c45 0 81 -37 81 -83z" />
    <glyph glyph-name="edotaccent" unicode="&#x117;" horiz-adv-x="516" 
d="M491 214h-296v-4c0 -79 39 -124 108 -124c46 0 89 17 130 51l52 -80c-59 -48 -121 -71 -193 -71c-147 0 -242 104 -242 265c0 92 19 153 64 203c42 47 93 69 161 69c59 0 115 -20 148 -54c47 -48 68 -117 68 -224v-31zM352 312v6c0 38 -4 58 -16 77c-13 20 -32 30 -59 30
c-51 0 -80 -40 -80 -111v-2h155zM360 653c0 -46 -37 -83 -83 -83c-45 0 -82 37 -82 83s38 83 84 83c45 0 81 -37 81 -83z" />
    <glyph glyph-name="Eogonek" unicode="&#x118;" horiz-adv-x="505" 
d="M506 -174c-32 -14 -67 -27 -111 -27c-63 0 -103 38 -103 92c0 40 24 82 52 109h-269v695h396l-18 -114h-238v-161h199v-114h-197v-186h263v-120c-56 0 -89 -47 -89 -84c0 -5 1 -10 2 -14c4 -14 14 -24 32 -24s33 5 53 15z" />
    <glyph glyph-name="eogonek" unicode="&#x119;" horiz-adv-x="516" 
d="M486 214h-296v-4c0 -79 39 -124 108 -124c46 0 89 17 130 51l52 -80c-7 -7 -27 -20 -27 -20c-63 -46 -97 -89 -97 -124c0 -3 1 -5 1 -8c2 -15 12 -27 32 -27c18 0 33 5 53 15l28 -67c-32 -14 -67 -27 -111 -27c-61 0 -103 36 -103 92c0 38 23 71 48 96
c-6 0 -12 -1 -17 -1c-147 0 -242 104 -242 265c0 92 19 153 64 203c42 47 93 69 161 69c59 0 115 -20 148 -54c47 -48 68 -117 68 -224v-31zM347 312v6c0 38 -4 58 -16 77c-13 20 -32 30 -59 30c-51 0 -80 -42 -80 -113h155z" />
    <glyph glyph-name="Ecaron" unicode="&#x11a;" horiz-adv-x="505" 
d="M485 0h-405v695h396l-18 -114h-238v-161h199v-114h-197v-186h263v-120zM459 852l-180 -135l-184 135l45 73l139 -76l135 76z" />
    <glyph glyph-name="ecaron" unicode="&#x11b;" horiz-adv-x="516" 
d="M491 214h-296v-4c0 -79 39 -124 108 -124c46 0 89 17 130 51l52 -80c-59 -48 -121 -71 -193 -71c-147 0 -242 104 -242 265c0 92 19 153 64 203c42 47 93 69 161 69c59 0 115 -20 148 -54c47 -48 68 -117 68 -224v-31zM352 312v6c0 38 -4 58 -16 77c-13 20 -32 30 -59 30
c-51 0 -80 -40 -80 -111v-2h155zM460 690l-180 -135l-184 135l45 73l139 -76l135 76z" />
    <glyph glyph-name="Gcircumflex" unicode="&#x11c;" horiz-adv-x="652" 
d="M592 54c-71 -42 -149 -62 -231 -62c-104 0 -181 34 -237 106c-51 65 -74 139 -74 243c0 147 48 251 145 316c51 34 103 49 169 49c84 0 160 -27 221 -80l-74 -87c-45 37 -92 54 -145 54c-41 0 -76 -12 -100 -35c-47 -45 -59 -120 -59 -224c0 -99 17 -163 52 -198
c26 -25 64 -39 109 -39c31 0 56 5 79 17v158h-106l-18 114h269v-332zM548 785l-45 -73l-139 76l-135 -76l-45 73l180 135z" />
    <glyph glyph-name="gcircumflex" unicode="&#x11d;" horiz-adv-x="563" 
d="M587 456c-29 -27 -57 -38 -94 -38c-13 0 -27 2 -35 3c20 -24 30 -50 30 -84c0 -88 -80 -152 -189 -152c-6 0 -10 0 -20 1c-34 -16 -53 -28 -53 -42c0 -7 8 -12 22 -12l72 -1c78 -1 119 -13 155 -46c30 -28 44 -63 44 -109c0 -43 -13 -76 -41 -106
c-45 -48 -122 -66 -202 -66c-73 0 -148 12 -194 55c-28 26 -42 56 -42 91c0 28 7 42 12 52h124c-5 -12 -6 -19 -6 -33c0 -41 34 -63 96 -63c34 0 63 4 84 17c20 12 33 31 33 52c0 46 -41 60 -94 61l-57 1c-60 1 -99 6 -123 16c-24 9 -39 32 -39 67c0 33 10 64 94 86
c-74 19 -110 66 -110 142c0 105 85 173 216 173c29 0 55 -4 92 -13c28 -7 46 -11 63 -11c37 0 75 16 106 44zM350 347c0 48 -30 76 -81 76s-80 -28 -80 -76c0 -52 32 -73 79 -73c53 0 82 26 82 73zM463 625l-45 -73l-139 76l-135 -76l-45 73l180 135z" />
    <glyph glyph-name="Gbreve" unicode="&#x11e;" horiz-adv-x="652" 
d="M544 843c-13 -16 -101 -121 -187 -121c-84 0 -171 98 -190 124l43 54c21 -20 81 -68 151 -68c58 0 128 53 147 68zM592 54c-71 -42 -149 -62 -231 -62c-104 0 -181 34 -237 106c-51 65 -74 139 -74 243c0 147 48 251 145 316c51 34 103 49 169 49c84 0 160 -27 221 -80
l-74 -87c-45 37 -92 54 -145 54c-41 0 -76 -12 -100 -35c-47 -45 -59 -120 -59 -224c0 -99 17 -163 52 -198c26 -25 64 -39 109 -39c31 0 56 5 79 17v158h-106l-18 114h269v-332z" />
    <glyph glyph-name="gbreve" unicode="&#x11f;" horiz-adv-x="563" 
d="M587 456c-29 -27 -57 -38 -94 -38c-13 0 -27 2 -35 3c20 -24 30 -50 30 -84c0 -88 -80 -152 -189 -152c-6 0 -10 0 -20 1c-34 -16 -53 -28 -53 -42c0 -7 8 -12 22 -12l72 -1c78 -1 119 -13 155 -46c30 -28 44 -63 44 -109c0 -43 -13 -76 -41 -106
c-45 -48 -122 -66 -202 -66c-73 0 -148 12 -194 55c-28 26 -42 56 -42 91c0 28 7 42 12 52h124c-5 -12 -6 -19 -6 -33c0 -41 34 -63 96 -63c34 0 63 4 84 17c20 12 33 31 33 52c0 46 -41 60 -94 61l-57 1c-60 1 -99 6 -123 16c-24 9 -39 32 -39 67c0 33 10 64 94 86
c-74 19 -110 66 -110 142c0 105 85 173 216 173c29 0 55 -4 92 -13c28 -7 46 -11 63 -11c37 0 75 16 106 44zM350 347c0 48 -30 76 -81 76s-80 -28 -80 -76c0 -52 32 -73 79 -73c53 0 82 26 82 73zM469 676c-13 -16 -101 -121 -187 -121c-84 0 -171 98 -190 124l43 54
c21 -20 81 -68 151 -68c58 0 128 53 147 68z" />
    <glyph glyph-name="Gdotaccent" unicode="&#x120;" horiz-adv-x="652" 
d="M592 54c-71 -42 -149 -62 -231 -62c-104 0 -181 34 -237 106c-51 65 -74 139 -74 243c0 147 48 251 145 316c51 34 103 49 169 49c84 0 160 -27 221 -80l-74 -87c-45 37 -92 54 -145 54c-41 0 -76 -12 -100 -35c-47 -45 -59 -120 -59 -224c0 -99 17 -163 52 -198
c26 -25 64 -39 109 -39c31 0 56 5 79 17v158h-106l-18 114h269v-332zM447 801c0 -46 -37 -83 -83 -83c-45 0 -82 37 -82 83s38 83 84 83c45 0 81 -37 81 -83z" />
    <glyph glyph-name="gdotaccent" unicode="&#x121;" horiz-adv-x="563" 
d="M587 456c-29 -27 -57 -38 -94 -38c-13 0 -27 2 -35 3c20 -24 30 -50 30 -84c0 -88 -80 -152 -189 -152c-6 0 -10 0 -20 1c-34 -16 -53 -28 -53 -42c0 -7 8 -12 22 -12l72 -1c78 -1 119 -13 155 -46c30 -28 44 -63 44 -109c0 -43 -13 -76 -41 -106
c-45 -48 -122 -66 -202 -66c-73 0 -148 12 -194 55c-28 26 -42 56 -42 91c0 28 7 42 12 52h124c-5 -12 -6 -19 -6 -33c0 -41 34 -63 96 -63c34 0 63 4 84 17c20 12 33 31 33 52c0 46 -41 60 -94 61l-57 1c-60 1 -99 6 -123 16c-24 9 -39 32 -39 67c0 33 10 64 94 86
c-74 19 -110 66 -110 142c0 105 85 173 216 173c29 0 55 -4 92 -13c28 -7 46 -11 63 -11c37 0 75 16 106 44zM350 347c0 48 -30 76 -81 76s-80 -28 -80 -76c0 -52 32 -73 79 -73c53 0 82 26 82 73zM354 653c0 -46 -37 -83 -83 -83c-45 0 -82 37 -82 83s38 83 84 83
c45 0 81 -37 81 -83z" />
    <glyph glyph-name="Gcommaaccent" unicode="&#x122;" horiz-adv-x="652" 
d="M592 54c-71 -42 -149 -62 -231 -62c-104 0 -181 34 -237 106c-51 65 -74 139 -74 243c0 147 48 251 145 316c51 34 103 49 169 49c84 0 160 -27 221 -80l-74 -87c-45 37 -92 54 -145 54c-41 0 -76 -12 -100 -35c-47 -45 -59 -120 -59 -224c0 -99 17 -163 52 -198
c26 -25 64 -39 109 -39c31 0 56 5 79 17v158h-106l-18 114h269v-332zM440 -141c0 -36 -13 -68 -35 -94c-17 -21 -52 -46 -90 -56l-43 46c37 11 59 33 60 54v2c0 10 -10 10 -22 18c-22 13 -33 32 -33 58c0 39 33 69 75 69c54 0 88 -38 88 -97z" />
    <glyph glyph-name="gcommaaccent" unicode="&#x123;" horiz-adv-x="563" 
d="M587 456c-29 -27 -57 -38 -94 -38c-13 0 -27 2 -35 3c20 -24 30 -50 30 -84c0 -88 -80 -152 -189 -152c-6 0 -10 0 -20 1c-34 -16 -53 -28 -53 -42c0 -7 8 -12 22 -12l72 -1c78 -1 119 -13 155 -46c30 -28 44 -63 44 -109c0 -43 -13 -76 -41 -106
c-45 -48 -122 -66 -202 -66c-73 0 -148 12 -194 55c-28 26 -42 56 -42 91c0 28 7 42 12 52h124c-5 -12 -6 -19 -6 -33c0 -41 34 -63 96 -63c34 0 63 4 84 17c20 12 33 31 33 52c0 46 -41 60 -94 61l-57 1c-60 1 -99 6 -123 16c-24 9 -39 32 -39 67c0 33 10 64 94 86
c-74 19 -110 66 -110 142c0 105 85 173 216 173c29 0 55 -4 92 -13c28 -7 46 -11 63 -11c37 0 75 16 106 44zM350 347c0 48 -30 76 -81 76s-80 -28 -80 -76c0 -52 32 -73 79 -73c53 0 82 26 82 73zM188 657c0 36 13 68 35 94c17 21 52 46 90 56l43 -46
c-37 -11 -59 -33 -60 -54v-2c0 -10 10 -10 22 -18c22 -13 33 -32 33 -58c0 -39 -33 -69 -75 -69c-54 0 -88 38 -88 97z" />
    <glyph glyph-name="Hcircumflex" unicode="&#x124;" horiz-adv-x="631" 
d="M561 0h-142v310h-200v-310h-139v695h139v-270h200v270h142v-695zM504 785l-45 -73l-139 76l-135 -76l-45 73l180 135z" />
    <glyph glyph-name="hcircumflex" unicode="&#x125;" horiz-adv-x="575" 
d="M505 0h-131v344c0 51 -14 70 -52 70c-33 0 -76 -20 -106 -47v-367h-136v592c0 48 -4 96 -10 117l137 32c6 -28 9 -76 9 -125v-102c0 -16 -2 -37 -2 -43c35 33 93 55 145 55c65 0 117 -28 133 -73c10 -29 13 -46 13 -95v-358zM329 794l-45 -73l-139 76l-135 -76l-45 73
l180 135z" />
    <glyph glyph-name="Hbar" unicode="&#x126;" horiz-adv-x="631" 
d="M556 0h-142v310h-200v-310h-139v494h-70v113h70v88h139v-88h200v88h142v-88h70v-113h-70v-494zM214 425h200v69h-200v-69z" />
    <glyph glyph-name="hbar" unicode="&#x127;" horiz-adv-x="575" 
d="M500 0h-131v344c0 51 -14 70 -52 70c-33 0 -76 -20 -106 -47v-367h-136v551h-46v84h45c-2 31 -5 59 -9 74l137 32c5 -25 8 -64 9 -106h154v-84h-154v-37c0 -16 -2 -37 -2 -43c35 33 93 55 145 55c65 0 117 -28 133 -73c10 -29 13 -46 13 -95v-358z" />
    <glyph glyph-name="Imacron" unicode="&#x12a;" horiz-adv-x="296" 
d="M226 0h-146v695h146v-695zM312 748h-314v92h314v-92z" />
    <glyph glyph-name="imacron" unicode="&#x12b;" horiz-adv-x="284" 
d="M214 0h-134v503l134 21v-524zM315 589h-314v78h314v-78z" />
    <glyph glyph-name="Iogonek" unicode="&#x12e;" horiz-adv-x="296" 
d="M237 -174c-32 -14 -67 -27 -111 -27c-63 0 -103 38 -103 92c0 40 24 82 52 109v695h146v-695h-10c-56 0 -89 -47 -89 -84c0 -5 1 -10 2 -14c4 -14 14 -24 32 -24s33 5 53 15z" />
    <glyph glyph-name="iogonek" unicode="&#x12f;" horiz-adv-x="284" 
d="M237 -174c-32 -14 -67 -27 -111 -27c-63 0 -103 38 -103 92c0 40 24 82 52 109v503l134 21v-524c-53 0 -87 -47 -87 -84c0 -5 1 -10 2 -14c4 -14 14 -24 32 -24s33 5 53 15zM225 653c0 -46 -37 -83 -83 -83c-45 0 -82 37 -82 83s38 83 84 83c45 0 81 -37 81 -83z" />
    <glyph glyph-name="Idotaccent" unicode="&#x130;" horiz-adv-x="296" 
d="M226 0h-146v695h146v-695zM236 800c0 -46 -37 -83 -83 -83c-45 0 -82 37 -82 83s38 83 84 83c45 0 81 -37 81 -83z" />
    <glyph glyph-name="dotlessi" unicode="&#x131;" horiz-adv-x="284" 
d="M209 0h-134v503l134 21v-524z" />
    <glyph glyph-name="Jcircumflex" unicode="&#x134;" horiz-adv-x="297" 
d="M227 135c0 -90 -3 -108 -10 -136c-20 -85 -99 -139 -162 -163l-65 72c36 22 69 56 81 84c11 25 14 53 14 128v575h142v-560zM340 785l-45 -73l-139 76l-135 -76l-45 73l180 135z" />
    <glyph glyph-name="jcircumflex" unicode="&#x135;" horiz-adv-x="283" 
d="M213 14c0 -97 -20 -136 -38 -159c-24 -31 -58 -56 -104 -75l-56 74c21 17 39 40 49 58c12 22 16 50 16 98v481l133 32v-509zM332 625l-45 -73l-139 76l-135 -76l-45 73l180 135z" />
    <glyph glyph-name="Kcommaaccent" unicode="&#x136;" horiz-adv-x="598" 
d="M618 0h-184l-211 363v-363h-143v695h143v-317l198 317h172l-222 -322zM398 -141c0 -36 -13 -68 -35 -94c-17 -21 -52 -46 -90 -56l-43 46c37 11 59 33 60 54v2c0 10 -10 10 -22 18c-22 13 -33 32 -33 58c0 39 33 69 75 69c54 0 88 -38 88 -97z" />
    <glyph glyph-name="kcommaaccent" unicode="&#x137;" horiz-adv-x="527" 
d="M214 0h-134v577c0 45 -1 80 -9 133l135 33c6 -38 8 -98 8 -166v-577zM547 0h-158l-172 290l131 222h161l-163 -214zM373 -141c0 -36 -13 -68 -35 -94c-17 -21 -52 -46 -90 -56l-43 46c37 11 59 33 60 54v2c0 10 -10 10 -22 18c-22 13 -33 32 -33 58c0 39 33 69 75 69
c54 0 88 -38 88 -97z" />
    <glyph glyph-name="Lacute" unicode="&#x139;" horiz-adv-x="477" 
d="M472 116l-25 -116h-367v695h143v-579h249zM306 817l-224 -100l-41 74l207 130z" />
    <glyph glyph-name="lacute" unicode="&#x13a;" horiz-adv-x="291" 
d="M291 2c-23 -9 -51 -14 -80 -14c-57 0 -103 27 -119 70c-10 26 -12 42 -12 115v382c0 67 -2 108 -7 154l137 31c5 -28 7 -61 7 -133v-399c0 -88 1 -100 9 -114c5 -9 16 -14 27 -14c5 0 8 0 15 2zM290 831l-224 -100l-41 74l207 130z" />
    <glyph glyph-name="Lcommaaccent" unicode="&#x13b;" horiz-adv-x="477" 
d="M472 116l-25 -116h-367v695h143v-579h249zM347 -141c0 -36 -13 -68 -35 -94c-17 -21 -52 -46 -90 -56l-43 46c37 11 59 33 60 54v2c0 10 -10 10 -22 18c-22 13 -33 32 -33 58c0 39 33 69 75 69c54 0 88 -38 88 -97z" />
    <glyph glyph-name="lcommaaccent" unicode="&#x13c;" horiz-adv-x="291" 
d="M291 2c-23 -9 -51 -14 -80 -14c-57 0 -103 27 -119 70c-10 26 -12 42 -12 115v382c0 67 -2 108 -7 154l137 31c5 -28 7 -61 7 -133v-399c0 -88 1 -100 9 -114c5 -9 16 -14 27 -14c5 0 8 0 15 2zM268 -141c0 -36 -13 -68 -35 -94c-17 -21 -52 -46 -90 -56l-43 46
c37 11 59 33 60 54v2c0 10 -10 10 -22 18c-22 13 -33 32 -33 58c0 39 33 69 75 69c54 0 88 -38 88 -97z" />
    <glyph glyph-name="Lcaron" unicode="&#x13d;" horiz-adv-x="477" 
d="M472 116l-25 -116h-367v695h143v-579h249zM461 606c0 -36 -13 -68 -35 -94c-17 -21 -52 -46 -90 -56l-43 46c37 11 59 33 60 54v2c0 10 -10 10 -22 18c-22 13 -33 32 -33 58c0 39 33 69 75 69c54 0 88 -38 88 -97z" />
    <glyph glyph-name="lcaron" unicode="&#x13e;" horiz-adv-x="291" 
d="M291 2c-23 -9 -51 -14 -80 -14c-57 0 -103 27 -119 70c-10 26 -12 42 -12 115v382c0 67 -2 108 -7 154l137 31c5 -28 7 -61 7 -133v-399c0 -88 1 -100 9 -114c5 -9 16 -14 27 -14c5 0 8 0 15 2zM425 647c0 -36 -13 -68 -35 -94c-17 -21 -52 -46 -90 -56l-43 46
c37 11 59 33 60 54v2c0 10 -10 10 -22 18c-22 13 -33 32 -33 58c0 39 33 69 75 69c54 0 88 -38 88 -97z" />
    <glyph glyph-name="Lslash" unicode="&#x141;" horiz-adv-x="477" 
d="M467 116l-25 -116h-367v294l-56 -18v92l56 18v309h143v-262l148 48v-92l-148 -48v-225h249z" />
    <glyph glyph-name="lslash" unicode="&#x142;" horiz-adv-x="291" 
d="M286 2c-23 -9 -51 -14 -80 -14c-57 0 -103 27 -119 70c-10 26 -12 42 -12 115v113l-40 -13v92l40 13v177c0 67 -2 108 -7 154l137 31c5 -28 7 -61 7 -133v-182l54 18v-92l-54 -18v-125c0 -88 1 -100 9 -114c5 -9 16 -14 27 -14c5 0 8 0 15 2z" />
    <glyph glyph-name="Nacute" unicode="&#x143;" horiz-adv-x="633" 
d="M563 0h-146l-119 266c-39 87 -81 185 -94 228c5 -57 6 -139 7 -197l4 -297h-135v695h155l133 -278c35 -74 62 -147 76 -197c-5 54 -10 143 -11 191l-3 284h133v-695zM472 817l-224 -100l-41 74l207 130z" />
    <glyph glyph-name="nacute" unicode="&#x144;" horiz-adv-x="554" 
d="M484 0h-132v333c0 58 -10 75 -45 75c-27 0 -62 -18 -93 -46v-362h-134v371c0 44 -6 86 -18 120l119 34c12 -21 19 -43 19 -64c20 14 37 26 59 38c27 14 62 22 92 22c57 0 107 -30 123 -74c7 -19 10 -41 10 -73v-374zM419 655l-224 -100l-41 74l207 130z" />
    <glyph glyph-name="Ncommaaccent" unicode="&#x145;" horiz-adv-x="633" 
d="M563 0h-146l-119 266c-39 87 -81 185 -94 228c5 -57 6 -139 7 -197l4 -297h-135v695h155l133 -278c35 -74 62 -147 76 -197c-5 54 -10 143 -11 191l-3 284h133v-695zM402 -141c0 -36 -13 -68 -35 -94c-17 -21 -52 -46 -90 -56l-43 46c37 11 59 33 60 54v2
c0 10 -10 10 -22 18c-22 13 -33 32 -33 58c0 39 33 69 75 69c54 0 88 -38 88 -97z" />
    <glyph glyph-name="ncommaaccent" unicode="&#x146;" horiz-adv-x="554" 
d="M484 0h-132v333c0 58 -10 75 -45 75c-27 0 -62 -18 -93 -46v-362h-134v371c0 44 -6 86 -18 120l119 34c12 -21 19 -43 19 -64c20 14 37 26 59 38c27 14 62 22 92 22c57 0 107 -30 123 -74c7 -19 10 -41 10 -73v-374zM368 -141c0 -36 -13 -68 -35 -94
c-17 -21 -52 -46 -90 -56l-43 46c37 11 59 33 60 54v2c0 10 -10 10 -22 18c-22 13 -33 32 -33 58c0 39 33 69 75 69c54 0 88 -38 88 -97z" />
    <glyph glyph-name="Ncaron" unicode="&#x147;" horiz-adv-x="633" 
d="M563 0h-146l-119 266c-39 87 -81 185 -94 228c5 -57 6 -139 7 -197l4 -297h-135v695h155l133 -278c35 -74 62 -147 76 -197c-5 54 -10 143 -11 191l-3 284h133v-695zM503 852l-180 -135l-184 135l45 73l139 -76l135 76z" />
    <glyph glyph-name="ncaron" unicode="&#x148;" horiz-adv-x="554" 
d="M484 0h-132v333c0 58 -10 75 -45 75c-27 0 -62 -18 -93 -46v-362h-134v371c0 44 -6 86 -18 120l119 34c12 -21 19 -43 19 -64c20 14 37 26 59 38c27 14 62 22 92 22c57 0 107 -30 123 -74c7 -19 10 -41 10 -73v-374zM462 690l-180 -135l-184 135l45 73l139 -76l135 76z
" />
    <glyph glyph-name="Omacron" unicode="&#x14c;" horiz-adv-x="690" 
d="M650 351c0 -157 -54 -275 -155 -330c-42 -23 -81 -32 -139 -32c-105 0 -173 29 -226 98c-53 68 -80 156 -80 258c0 150 57 270 157 325c41 22 92 34 144 34c185 0 299 -135 299 -353zM489 347c0 71 -6 122 -18 161c-11 35 -48 88 -122 88c-47 0 -88 -24 -108 -61
c-24 -45 -35 -106 -35 -190c0 -120 20 -195 62 -225c22 -16 50 -24 83 -24c97 0 138 74 138 251zM508 748h-314v92h314v-92z" />
    <glyph glyph-name="omacron" unicode="&#x14d;" horiz-adv-x="543" 
d="M508 258c0 -88 -20 -148 -64 -198c-39 -44 -90 -71 -169 -71c-139 0 -230 104 -230 265s92 268 230 268c73 0 130 -25 174 -77c41 -48 59 -104 59 -187zM362 259c0 69 -9 114 -27 137c-13 17 -34 27 -58 27c-32 0 -58 -20 -69 -52c-9 -27 -14 -63 -14 -114
c0 -59 6 -103 17 -129c12 -28 42 -42 68 -42c58 0 83 52 83 173zM439 589h-314v78h314v-78z" />
    <glyph glyph-name="Ohungarumlaut" unicode="&#x150;" horiz-adv-x="690" 
d="M650 351c0 -157 -54 -275 -155 -330c-42 -23 -81 -32 -139 -32c-105 0 -173 29 -226 98c-53 68 -80 156 -80 258c0 150 57 270 157 325c41 22 92 34 144 34c185 0 299 -135 299 -353zM489 347c0 71 -6 122 -18 161c-11 35 -48 88 -122 88c-47 0 -88 -24 -108 -61
c-24 -45 -35 -106 -35 -190c0 -120 20 -195 62 -225c22 -16 50 -24 83 -24c97 0 138 74 138 251zM649 902l-176 -171l-65 57l149 192zM412 913l-149 -196l-72 46l118 213z" />
    <glyph glyph-name="ohungarumlaut" unicode="&#x151;" horiz-adv-x="543" 
d="M508 258c0 -88 -20 -148 -64 -198c-39 -44 -90 -71 -169 -71c-139 0 -230 104 -230 265s92 268 230 268c73 0 130 -25 174 -77c41 -48 59 -104 59 -187zM362 259c0 69 -9 114 -27 137c-13 17 -34 27 -58 27c-32 0 -58 -20 -69 -52c-9 -27 -14 -63 -14 -114
c0 -59 6 -103 17 -129c12 -28 42 -42 68 -42c58 0 83 52 83 173zM329 772l-116 -217l-78 34l83 229zM556 754l-147 -196l-72 46l117 213z" />
    <glyph glyph-name="OE" unicode="&#x152;" horiz-adv-x="846" 
d="M821 0h-408c-147 0 -205 6 -273 72c-64 62 -95 152 -95 277c0 95 23 174 70 237c42 57 104 87 169 100c26 5 63 9 127 9h397l-18 -114h-237v-161h198v-114h-198v-186h268v-120zM421 119v447s-38 10 -75 10c-92 0 -134 -67 -134 -214c0 -81 7 -149 35 -195
c23 -38 56 -58 110 -58c33 0 64 10 64 10z" />
    <glyph glyph-name="oe" unicode="&#x153;" horiz-adv-x="812" 
d="M782 213h-296v-4c0 -79 39 -124 108 -124c46 0 89 17 130 51l52 -80c-59 -48 -121 -71 -193 -71c-65 0 -120 20 -161 57c-37 -33 -84 -53 -152 -53c-139 0 -230 104 -230 265s92 268 230 268c61 0 110 -17 150 -53c39 36 86 53 146 53c59 0 115 -20 148 -54
c47 -48 68 -117 68 -224v-31zM357 259c0 69 -9 114 -27 137c-13 17 -34 27 -58 27c-32 0 -58 -20 -69 -52c-9 -27 -14 -63 -14 -114c0 -59 6 -103 17 -129c12 -28 42 -42 68 -42c58 0 83 52 83 173zM643 311c0 44 -4 64 -16 83c-13 20 -32 30 -59 30c-51 0 -80 -40 -80 -113
h155z" />
    <glyph glyph-name="Racute" unicode="&#x154;" horiz-adv-x="594" 
d="M584 0h-165c-27 46 -38 65 -65 114c-69 125 -90 159 -115 170c-7 3 -13 5 -22 6v-290h-137v695h259c123 0 204 -82 204 -204c0 -104 -69 -190 -155 -192c14 -11 20 -17 29 -29c40 -50 167 -270 167 -270zM396 488c0 43 -17 73 -50 85c-16 6 -45 10 -79 10h-50v-188h47
c60 0 86 6 105 23c17 16 27 41 27 70zM425 817l-224 -100l-41 74l207 130z" />
    <glyph glyph-name="racute" unicode="&#x155;" horiz-adv-x="357" 
d="M372 513l-37 -118c-13 7 -24 10 -39 10c-30 0 -57 -14 -82 -43v-362h-134v342c0 69 -8 121 -19 150l120 32c12 -21 19 -44 21 -73c29 39 70 73 120 73c20 0 29 -2 50 -11zM347 655l-224 -100l-41 74l207 130z" />
    <glyph glyph-name="Rcommaaccent" unicode="&#x156;" horiz-adv-x="594" 
d="M584 0h-165c-27 46 -38 65 -65 114c-69 125 -90 159 -115 170c-7 3 -13 5 -22 6v-290h-137v695h259c123 0 204 -82 204 -204c0 -104 -69 -190 -155 -192c14 -11 20 -17 29 -29c40 -50 167 -270 167 -270zM396 488c0 43 -17 73 -50 85c-16 6 -45 10 -79 10h-50v-188h47
c60 0 86 6 105 23c17 16 27 41 27 70zM395 -141c0 -36 -13 -68 -35 -94c-17 -21 -52 -46 -90 -56l-43 46c37 11 59 33 60 54v2c0 10 -10 10 -22 18c-22 13 -33 32 -33 58c0 39 33 69 75 69c54 0 88 -38 88 -97z" />
    <glyph glyph-name="rcommaaccent" unicode="&#x157;" horiz-adv-x="357" 
d="M372 513l-37 -118c-13 7 -24 10 -39 10c-30 0 -57 -14 -82 -43v-362h-134v342c0 69 -8 121 -19 150l120 32c12 -21 19 -44 21 -73c29 39 70 73 120 73c20 0 29 -2 50 -11zM233 -141c0 -36 -13 -68 -35 -94c-17 -21 -52 -46 -90 -56l-43 46c37 11 59 33 60 54v2
c0 10 -10 10 -22 18c-22 13 -33 32 -33 58c0 39 33 69 75 69c54 0 88 -38 88 -97z" />
    <glyph glyph-name="Rcaron" unicode="&#x158;" horiz-adv-x="594" 
d="M584 0h-165c-27 46 -38 65 -65 114c-69 125 -90 159 -115 170c-7 3 -13 5 -22 6v-290h-137v695h259c123 0 204 -82 204 -204c0 -104 -69 -190 -155 -192c14 -11 20 -17 29 -29c40 -50 167 -270 167 -270zM396 488c0 43 -17 73 -50 85c-16 6 -45 10 -79 10h-50v-188h47
c60 0 86 6 105 23c17 16 27 41 27 70zM473 852l-180 -135l-184 135l45 73l139 -76l135 76z" />
    <glyph glyph-name="rcaron" unicode="&#x159;" horiz-adv-x="357" 
d="M372 513l-37 -118c-13 7 -24 10 -39 10c-30 0 -57 -14 -82 -43v-362h-134v342c0 69 -8 121 -19 150l120 32c12 -21 19 -44 21 -73c29 39 70 73 120 73c20 0 29 -2 50 -11zM396 690l-180 -135l-184 135l45 73l139 -76l135 76z" />
    <glyph glyph-name="Sacute" unicode="&#x15a;" horiz-adv-x="594" 
d="M564 219c0 -141 -114 -234 -287 -234c-79 0 -167 23 -237 63l52 109c65 -34 121 -56 191 -56c80 0 122 33 122 95c0 45 -29 73 -91 90l-77 21c-69 19 -112 46 -137 88c-19 31 -29 67 -29 106c0 127 102 215 249 215c85 0 171 -26 232 -70l-66 -100
c-63 38 -110 53 -162 53c-57 0 -97 -33 -97 -80c0 -36 19 -54 77 -70l84 -23c114 -31 176 -104 176 -207zM466 817l-224 -100l-41 74l207 130z" />
    <glyph glyph-name="sacute" unicode="&#x15b;" horiz-adv-x="491" 
d="M461 162c0 -106 -88 -178 -219 -178c-63 0 -132 20 -207 59l48 98c41 -25 112 -58 170 -58c38 0 68 25 68 58c0 35 -25 53 -79 63l-60 11c-34 6 -76 30 -94 52s-29 59 -29 92c0 100 79 167 198 167c82 0 136 -25 183 -48l-44 -90c-51 26 -88 37 -126 37
c-39 0 -65 -20 -65 -50c0 -26 17 -40 64 -52l62 -16c63 -16 84 -35 102 -58c19 -24 28 -53 28 -87zM400 655l-224 -100l-41 74l207 130z" />
    <glyph glyph-name="Scircumflex" unicode="&#x15c;" horiz-adv-x="594" 
d="M564 219c0 -141 -114 -234 -287 -234c-79 0 -167 23 -237 63l52 109c65 -34 121 -56 191 -56c80 0 122 33 122 95c0 45 -29 73 -91 90l-77 21c-69 19 -112 46 -137 88c-19 31 -29 67 -29 106c0 127 102 215 249 215c85 0 171 -26 232 -70l-66 -100
c-63 38 -110 53 -162 53c-57 0 -97 -33 -97 -80c0 -36 19 -54 77 -70l84 -23c114 -31 176 -104 176 -207zM501 785l-45 -73l-139 76l-135 -76l-45 73l180 135z" />
    <glyph glyph-name="scircumflex" unicode="&#x15d;" horiz-adv-x="491" 
d="M461 162c0 -106 -88 -178 -219 -178c-63 0 -132 20 -207 59l48 98c41 -25 112 -58 170 -58c38 0 68 25 68 58c0 35 -25 53 -79 63l-60 11c-34 6 -76 30 -94 52s-29 59 -29 92c0 100 79 167 198 167c82 0 136 -25 183 -48l-44 -90c-51 26 -88 37 -126 37
c-39 0 -65 -20 -65 -50c0 -26 17 -40 64 -52l62 -16c63 -16 84 -35 102 -58c19 -24 28 -53 28 -87zM441 625l-45 -73l-139 76l-135 -76l-45 73l180 135z" />
    <glyph glyph-name="Scedilla" unicode="&#x15e;" horiz-adv-x="594" 
d="M559 219c0 -129 -96 -218 -246 -232l-7 -19c51 -5 72 -40 72 -79c0 -49 -39 -88 -109 -88c-30 0 -67 13 -87 24l30 63c16 -7 30 -15 52 -15c14 0 25 10 25 18c0 11 -6 20 -25 20c-11 0 -18 -4 -27 -6l-13 20l17 61c-70 5 -145 27 -206 62l52 109c65 -34 121 -56 191 -56
c80 0 122 33 122 95c0 45 -29 73 -91 90l-77 21c-69 19 -112 46 -137 88c-19 31 -29 67 -29 106c0 127 102 215 249 215c85 0 171 -26 232 -70l-66 -100c-63 38 -110 53 -162 53c-57 0 -97 -33 -97 -80c0 -36 19 -54 77 -70l84 -23c114 -31 176 -104 176 -207z" />
    <glyph glyph-name="scedilla" unicode="&#x15f;" horiz-adv-x="491" 
d="M456 162c0 -99 -77 -168 -194 -177l-6 -17c51 -5 72 -40 72 -79c0 -49 -39 -88 -109 -88c-30 0 -67 13 -87 24l30 63c16 -7 30 -15 52 -15c14 0 25 10 25 18c0 11 -6 20 -25 20c-11 0 -18 -4 -27 -6l-13 20l17 62c-50 7 -104 26 -161 56l48 98c41 -25 112 -58 170 -58
c38 0 68 25 68 58c0 35 -25 53 -79 63l-60 11c-34 6 -76 30 -94 52s-29 59 -29 92c0 100 79 167 198 167c82 0 136 -25 183 -48l-44 -90c-51 26 -88 37 -126 37c-39 0 -65 -20 -65 -50c0 -26 17 -40 64 -52l62 -16c63 -16 84 -35 102 -58c19 -24 28 -53 28 -87z" />
    <glyph glyph-name="Scaron" unicode="&#x160;" horiz-adv-x="594" 
d="M564 219c0 -141 -114 -234 -287 -234c-79 0 -167 23 -237 63l52 109c65 -34 121 -56 191 -56c80 0 122 33 122 95c0 45 -29 73 -91 90l-77 21c-69 19 -112 46 -137 88c-19 31 -29 67 -29 106c0 127 102 215 249 215c85 0 171 -26 232 -70l-66 -100
c-63 38 -110 53 -162 53c-57 0 -97 -33 -97 -80c0 -36 19 -54 77 -70l84 -23c114 -31 176 -104 176 -207zM491 869l-180 -135l-184 135l45 73l139 -76l135 76z" />
    <glyph glyph-name="scaron" unicode="&#x161;" horiz-adv-x="491" 
d="M461 162c0 -106 -88 -178 -219 -178c-63 0 -132 20 -207 59l48 98c41 -25 112 -58 170 -58c38 0 68 25 68 58c0 35 -25 53 -79 63l-60 11c-34 6 -76 30 -94 52s-29 59 -29 92c0 100 79 167 198 167c82 0 136 -25 183 -48l-44 -90c-51 26 -88 37 -126 37
c-39 0 -65 -20 -65 -50c0 -26 17 -40 64 -52l62 -16c63 -16 84 -35 102 -58c19 -24 28 -53 28 -87zM427 689l-180 -135l-184 135l45 73l139 -76l135 76z" />
    <glyph glyph-name="Tcommaaccent" unicode="&#x162;" horiz-adv-x="501" 
d="M521 695l-23 -116h-166v-579h-142v579h-170v116h501zM345 -141c0 -36 -13 -68 -35 -94c-17 -21 -52 -46 -90 -56l-43 46c37 11 59 33 60 54v2c0 10 -10 10 -22 18c-22 13 -33 32 -33 58c0 39 33 69 75 69c54 0 88 -38 88 -97z" />
    <glyph glyph-name="tcommaaccent" unicode="&#x163;" horiz-adv-x="351" 
d="M336 11c-39 -16 -74 -23 -109 -23c-68 0 -122 30 -138 75c-8 22 -9 32 -9 79v278h-51v92h51c0 50 0 83 5 121l136 34c-5 -47 -8 -103 -8 -155h120l-34 -92h-86v-257c0 -65 12 -82 58 -82c12 0 24 3 48 10zM281 -140c0 -36 -13 -68 -35 -94c-17 -21 -52 -46 -90 -56
l-43 46c37 11 59 33 60 54v2c0 10 -10 10 -22 18c-22 13 -33 32 -33 58c0 39 33 69 75 69c54 0 88 -38 88 -97z" />
    <glyph glyph-name="Tcaron" unicode="&#x164;" horiz-adv-x="501" 
d="M521 695l-23 -116h-166v-579h-142v579h-170v116h501zM440 852l-180 -135l-184 135l45 73l139 -76l135 76z" />
    <glyph glyph-name="tcaron" unicode="&#x165;" horiz-adv-x="351" 
d="M336 11c-39 -16 -74 -23 -109 -23c-68 0 -122 30 -138 75c-8 22 -9 32 -9 79v278h-51v92h51c0 50 0 83 5 121l136 34c-5 -47 -8 -103 -8 -155h120l-34 -92h-86v-257c0 -65 12 -82 58 -82c12 0 24 3 48 10zM430 697c0 -36 -13 -68 -35 -94c-17 -21 -52 -46 -90 -56l-43 46
c37 11 59 33 60 54v2c0 10 -10 10 -22 18c-22 13 -33 32 -33 58c0 39 33 69 75 69c54 0 88 -38 88 -97z" />
    <glyph glyph-name="Umacron" unicode="&#x16a;" horiz-adv-x="646" 
d="M578 227c0 -66 -1 -79 -11 -109c-18 -55 -86 -131 -236 -131c-106 0 -184 32 -223 93c-23 36 -30 64 -30 131v484h143v-457c0 -43 4 -68 12 -83c16 -31 49 -48 95 -48c61 0 100 30 106 81c2 15 2 25 2 62v445h142v-468zM485 748h-314v92h314v-92z" />
    <glyph glyph-name="umacron" unicode="&#x16b;" horiz-adv-x="546" 
d="M507 40l-95 -54c-17 12 -31 29 -40 50c-33 -32 -81 -49 -135 -49c-72 0 -134 34 -151 83c-8 23 -11 50 -11 102v328l132 25v-329c0 -46 4 -70 11 -84s27 -24 47 -24c33 0 73 24 83 49v360l128 27v-391c0 -34 11 -69 31 -93zM436 589h-314v78h314v-78z" />
    <glyph glyph-name="Ubreve" unicode="&#x16c;" horiz-adv-x="646" 
d="M578 227c0 -66 -1 -79 -11 -109c-18 -55 -86 -131 -236 -131c-106 0 -184 32 -223 93c-23 36 -30 64 -30 131v484h143v-457c0 -43 4 -68 12 -83c16 -31 49 -48 95 -48c61 0 100 30 106 81c2 15 2 25 2 62v445h142v-468zM518 843c-13 -16 -101 -121 -187 -121
c-84 0 -171 98 -190 124l43 54c21 -20 81 -68 151 -68c59 0 128 53 147 68z" />
    <glyph glyph-name="ubreve" unicode="&#x16d;" horiz-adv-x="546" 
d="M443 718c-13 -19 -93 -115 -170 -115c-78 0 -157 96 -171 115l36 44c18 -17 76 -65 139 -65c54 0 119 52 135 65zM507 40l-95 -54c-17 12 -31 29 -40 50c-33 -32 -81 -49 -135 -49c-72 0 -134 34 -151 83c-8 23 -11 50 -11 102v328l132 25v-329c0 -46 4 -70 11 -84
s27 -24 47 -24c33 0 73 24 83 49v360l128 27v-391c0 -34 11 -69 31 -93z" />
    <glyph glyph-name="Uring" unicode="&#x16e;" horiz-adv-x="646" 
d="M578 227c0 -66 -1 -79 -11 -109c-18 -55 -86 -131 -236 -131c-106 0 -184 32 -223 93c-23 36 -30 64 -30 131v484h143v-457c0 -43 4 -68 12 -83c16 -31 49 -48 95 -48c61 0 100 30 106 81c2 15 2 25 2 62v445h142v-468zM434 820c0 -58 -48 -106 -106 -106
c-57 0 -104 48 -104 106s49 106 106 106s104 -48 104 -106zM379 820c0 28 -22 51 -49 51c-29 0 -52 -23 -52 -51s23 -51 50 -51c28 0 51 23 51 51z" />
    <glyph glyph-name="uring" unicode="&#x16f;" horiz-adv-x="546" 
d="M507 40l-95 -54c-17 12 -31 29 -40 50c-33 -32 -81 -49 -135 -49c-72 0 -134 34 -151 83c-8 23 -11 50 -11 102v328l132 25v-329c0 -46 4 -70 11 -84s27 -24 47 -24c33 0 73 24 83 49v360l128 27v-391c0 -34 11 -69 31 -93zM391 661c0 -58 -48 -106 -106 -106
c-57 0 -104 48 -104 106s49 106 106 106s104 -48 104 -106zM336 661c0 28 -22 51 -49 51c-29 0 -52 -23 -52 -51s23 -51 50 -51c28 0 51 23 51 51z" />
    <glyph glyph-name="Uhungarumlaut" unicode="&#x170;" horiz-adv-x="646" 
d="M578 227c0 -66 -1 -79 -11 -109c-18 -55 -86 -131 -236 -131c-106 0 -184 32 -223 93c-23 36 -30 64 -30 131v484h143v-457c0 -43 4 -68 12 -83c16 -31 49 -48 95 -48c61 0 100 30 106 81c2 15 2 25 2 62v445h142v-468zM626 902l-176 -171l-65 57l149 192zM389 913
l-149 -196l-72 46l118 213z" />
    <glyph glyph-name="uhungarumlaut" unicode="&#x171;" horiz-adv-x="546" 
d="M507 40l-95 -54c-17 12 -31 29 -40 50c-33 -32 -81 -49 -135 -49c-72 0 -134 34 -151 83c-8 23 -11 50 -11 102v328l132 25v-329c0 -46 4 -70 11 -84s27 -24 47 -24c33 0 73 24 83 49v360l128 27v-391c0 -34 11 -69 31 -93zM335 772l-116 -217l-78 34l83 229zM562 754
l-147 -196l-72 46l117 213z" />
    <glyph glyph-name="Uogonek" unicode="&#x172;" horiz-adv-x="646" 
d="M573 227c0 -66 -1 -79 -11 -109c-20 -62 -88 -108 -147 -121c-46 -10 -81 -50 -81 -84c0 -3 1 -5 1 -8c2 -15 12 -27 32 -27c18 0 33 5 53 15l28 -67c-32 -14 -67 -27 -111 -27c-61 0 -103 36 -103 92c0 38 22 72 46 98c-83 8 -144 39 -177 91c-23 36 -30 64 -30 131v484
h143v-457c0 -43 4 -68 12 -83c16 -31 49 -48 95 -48c61 0 100 30 106 81c2 15 2 25 2 62v445h142v-468z" />
    <glyph glyph-name="uogonek" unicode="&#x173;" horiz-adv-x="546" 
d="M524 -174c-32 -14 -67 -27 -111 -27c-61 0 -103 36 -103 92c0 51 41 92 73 118c-6 8 -12 17 -16 27c-33 -32 -81 -49 -135 -49c-72 0 -134 34 -151 83c-8 23 -11 50 -11 102v328l132 25v-329c0 -46 4 -70 11 -84s27 -24 47 -24c33 0 73 24 83 49v360l128 27v-391
c0 -34 14 -74 34 -98c-63 -45 -95 -87 -95 -121c0 -3 1 -6 1 -9c2 -15 12 -27 32 -27c18 0 33 5 53 15z" />
    <glyph glyph-name="Ydieresis" unicode="&#x178;" horiz-adv-x="544" 
d="M569 695l-222 -409v-286h-146v286l-216 409h168l89 -190c18 -38 27 -63 35 -89c8 20 22 54 37 87l90 192h165zM245 795c0 -42 -35 -77 -77 -77c-41 0 -76 35 -76 77s36 77 78 77c41 0 75 -35 75 -77zM456 795c0 -42 -35 -77 -77 -77c-41 0 -76 35 -76 77s36 77 78 77
c41 0 75 -35 75 -77z" />
    <glyph glyph-name="Zacute" unicode="&#x179;" horiz-adv-x="540" 
d="M510 114l-36 -114h-434v98l256 423c19 32 43 63 43 63s-29 -5 -71 -5h-214l31 116h416v-101l-258 -435c-15 -25 -36 -49 -36 -49s41 4 69 4h234zM429 817l-224 -100l-41 74l207 130z" />
    <glyph glyph-name="zacute" unicode="&#x17a;" horiz-adv-x="479" 
d="M449 93l-32 -93h-377v83l241 335h-221v94h380v-92l-226 -327h235zM385 655l-224 -100l-41 74l207 130z" />
    <glyph glyph-name="Zdotaccent" unicode="&#x17b;" horiz-adv-x="540" 
d="M510 114l-36 -114h-434v98l256 423c19 32 43 63 43 63s-29 -5 -71 -5h-214l31 116h416v-101l-258 -435c-15 -25 -36 -49 -36 -49s41 4 69 4h234zM372 800c0 -46 -37 -83 -83 -83c-45 0 -82 37 -82 83s38 83 84 83c45 0 81 -37 81 -83z" />
    <glyph glyph-name="zdotaccent" unicode="&#x17c;" horiz-adv-x="479" 
d="M449 93l-32 -93h-377v83l241 335h-221v94h380v-92l-226 -327h235zM337 653c0 -46 -37 -83 -83 -83c-45 0 -82 37 -82 83s38 83 84 83c45 0 81 -37 81 -83z" />
    <glyph glyph-name="Zcaron" unicode="&#x17d;" horiz-adv-x="540" 
d="M510 114l-36 -114h-434v98l256 423c19 32 43 63 43 63s-29 -5 -71 -5h-214l31 116h416v-101l-258 -435c-15 -25 -36 -49 -36 -49s41 4 69 4h234zM455 869l-180 -135l-184 135l45 73l139 -76l135 76z" />
    <glyph glyph-name="zcaron" unicode="&#x17e;" horiz-adv-x="479" 
d="M449 93l-32 -93h-377v83l241 335h-221v94h380v-92l-226 -327h235zM430 689l-180 -135l-184 135l45 73l139 -76l135 76z" />
    <glyph glyph-name="longs" unicode="&#x17f;" horiz-adv-x="362" 
d="M299 741c43 0 86 -18 114 -31l-55 -92c-18 11 -35 20 -60 20c-35 0 -62 -25 -69 -59c-3 -15 -3 -33 -3 -70v-509h-136v408h-82v104h82v32c0 59 4 99 50 141c28 26 63 43 104 51c17 3 35 5 55 5z" />
    <glyph glyph-name="florin" unicode="&#x192;" horiz-adv-x="322" 
d="M385 709l-41 -83c-26 14 -35 17 -51 17c-31 0 -54 -21 -57 -58l-5 -73h118l-32 -94h-90l-27 -384c-12 -167 -39 -183 -145 -254l-62 91c63 49 79 66 84 139l27 408h-43v94h52c0 22 2 47 3 70c6 101 63 159 161 159c42 0 83 -16 108 -32z" />
    <glyph glyph-name="Scommaaccent" unicode="&#x218;" horiz-adv-x="594" 
d="M564 219c0 -141 -114 -234 -287 -234c-79 0 -167 23 -237 63l52 109c65 -34 121 -56 191 -56c80 0 122 33 122 95c0 45 -29 73 -91 90l-77 21c-69 19 -112 46 -137 88c-19 31 -29 67 -29 106c0 127 102 215 249 215c85 0 171 -26 232 -70l-66 -100
c-63 38 -110 53 -162 53c-57 0 -97 -33 -97 -80c0 -36 19 -54 77 -70l84 -23c114 -31 176 -104 176 -207zM383 -141c0 -36 -13 -68 -35 -94c-17 -21 -52 -46 -90 -56l-43 46c37 11 59 33 60 54v2c0 10 -10 10 -22 18c-22 13 -33 32 -33 58c0 39 33 69 75 69
c54 0 88 -38 88 -97z" />
    <glyph glyph-name="scommaaccent" unicode="&#x219;" horiz-adv-x="491" 
d="M461 162c0 -106 -88 -178 -219 -178c-63 0 -132 20 -207 59l48 98c41 -25 112 -58 170 -58c38 0 68 25 68 58c0 35 -25 53 -79 63l-60 11c-34 6 -76 30 -94 52s-29 59 -29 92c0 100 79 167 198 167c82 0 136 -25 183 -48l-44 -90c-51 26 -88 37 -126 37
c-39 0 -65 -20 -65 -50c0 -26 17 -40 64 -52l62 -16c63 -16 84 -35 102 -58c19 -24 28 -53 28 -87zM334 -141c0 -36 -13 -68 -35 -94c-17 -21 -52 -46 -90 -56l-43 46c37 11 59 33 60 54v2c0 10 -10 10 -22 18c-22 13 -33 32 -33 58c0 39 33 69 75 69c54 0 88 -38 88 -97z
" />
    <glyph glyph-name="uni021B" unicode="&#x21b;" horiz-adv-x="351" 
d="M331 11c-39 -16 -74 -23 -109 -23c-68 0 -122 30 -138 75c-8 22 -9 32 -9 79v278h-51v92h51c0 50 0 83 5 121l136 34c-5 -47 -8 -103 -8 -155h120l-34 -92h-86v-257c0 -65 12 -82 58 -82c12 0 24 3 48 10zM308 -141c0 -36 -13 -68 -35 -94c-17 -21 -52 -46 -90 -56
l-43 46c37 11 59 33 60 54v2c0 10 -10 10 -22 18c-22 13 -33 32 -33 58c0 39 33 69 75 69c54 0 88 -38 88 -97z" />
    <glyph glyph-name="dotlessj" unicode="&#x237;" horiz-adv-x="283" 
d="M208 14c0 -97 -20 -136 -38 -159c-24 -31 -58 -56 -104 -75l-56 74c21 17 39 40 49 58c12 22 16 50 16 98v481l133 32v-509z" />
    <glyph glyph-name="circumflex" unicode="&#x2c6;" horiz-adv-x="414" 
d="M389 625l-45 -73l-139 76l-135 -76l-45 73l180 135z" />
    <glyph glyph-name="caron" unicode="&#x2c7;" horiz-adv-x="414" 
d="M389 689l-180 -135l-184 135l45 73l139 -76l135 76z" />
    <glyph glyph-name="breve" unicode="&#x2d8;" horiz-adv-x="391" 
d="M366 693c-13 -19 -93 -115 -170 -115c-78 0 -157 96 -171 115l36 44c18 -17 76 -65 139 -65c54 0 119 52 135 65z" />
    <glyph glyph-name="dotaccent" unicode="&#x2d9;" horiz-adv-x="215" 
d="M190 653c0 -46 -37 -83 -83 -83c-45 0 -82 37 -82 83s38 83 84 83c45 0 81 -37 81 -83z" />
    <glyph glyph-name="ring" unicode="&#x2da;" horiz-adv-x="260" 
d="M235 659c0 -58 -48 -106 -106 -106c-57 0 -104 48 -104 106s49 106 106 106s104 -48 104 -106zM180 659c0 28 -22 51 -49 51c-29 0 -52 -23 -52 -51s23 -51 50 -51c28 0 51 23 51 51z" />
    <glyph glyph-name="ogonek" unicode="&#x2db;" horiz-adv-x="306" 
d="M251 -175c-20 -11 -57 -24 -87 -24c-70 0 -109 39 -109 88c0 72 57 125 73 137l71 -40c-24 -23 -54 -51 -54 -87c0 -14 10 -26 24 -26c22 0 36 8 52 15z" />
    <glyph glyph-name="tilde" unicode="&#x2dc;" horiz-adv-x="414" 
d="M389 639c-30 -39 -65 -58 -124 -58c-61 0 -73 34 -131 34c-27 0 -51 -11 -68 -29l-41 75c28 35 68 58 124 58c59 0 73 -34 131 -34c28 0 51 11 68 30z" />
    <glyph glyph-name="hungarumlaut" unicode="&#x2dd;" horiz-adv-x="471" 
d="M219 741l-116 -217l-78 34l83 229zM446 723l-147 -196l-72 46l117 213z" />
    <glyph glyph-name="uni037E" unicode="&#x37e;" horiz-adv-x="324" 
d="M259 35c0 -85 -59 -160 -142 -180l-52 56c42 10 71 33 71 57c0 12 -5 19 -23 30c-30 18 -42 39 -42 70c0 50 38 88 88 88c58 0 100 -51 100 -121zM246 369c0 -47 -38 -86 -85 -86c-48 0 -87 38 -87 85c0 48 37 88 84 88c48 0 88 -39 88 -87z" />
    <glyph glyph-name="tonos" unicode="&#x384;" horiz-adv-x="297" 
d="M242 754l-110 -200l-77 34l77 210z" />
    <glyph glyph-name="dieresistonos" unicode="&#x385;" horiz-adv-x="524" 
d="M399 809l-110 -200l-77 34l77 210zM484 635c0 -42 -35 -77 -77 -77s-76 35 -76 77s35 77 78 77c41 0 75 -35 75 -77zM193 635c0 -42 -35 -77 -77 -77c-41 0 -76 35 -76 77s36 77 78 77c41 0 75 -35 75 -77z" />
    <glyph glyph-name="Alphatonos" unicode="&#x386;" horiz-adv-x="592" 
d="M600 0h-150l-49 165h-204l-49 -165h-146l228 697h151zM367 281c0 0 -23 73 -38 140c-7 32 -28 123 -28 123s-20 -82 -33 -134c-13 -50 -22 -83 -37 -129h136zM93 660l-110 -200l-77 34l77 210z" />
    <glyph glyph-name="anoteleia" unicode="&#x387;" horiz-adv-x="268" 
d="M223 273c0 -48 -40 -88 -90 -88c-49 0 -88 40 -88 89s40 90 90 90c49 0 88 -41 88 -91z" />
    <glyph glyph-name="Epsilontonos" unicode="&#x388;" horiz-adv-x="505" 
d="M485 0h-405v695h396l-18 -114h-238v-161h199v-114h-197v-186h263v-120zM23 660l-110 -200l-77 34l77 210z" />
    <glyph glyph-name="Etatonos" unicode="&#x389;" horiz-adv-x="631" 
d="M561 0h-142v310h-200v-310h-139v695h139v-270h200v270h142v-695zM23 660l-110 -200l-77 34l77 210z" />
    <glyph glyph-name="Iotatonos" unicode="&#x38a;" horiz-adv-x="296" 
d="M226 0h-146v695h146v-695zM23 660l-110 -200l-77 34l77 210z" />
    <glyph glyph-name="Omicrontonos" unicode="&#x38c;" horiz-adv-x="690" 
d="M650 351c0 -157 -54 -275 -155 -330c-42 -23 -81 -32 -139 -32c-105 0 -173 29 -226 98c-53 68 -80 156 -80 258c0 150 57 270 157 325c41 22 92 34 144 34c185 0 299 -135 299 -353zM489 347c0 71 -6 122 -18 161c-11 35 -48 88 -122 88c-47 0 -88 -24 -108 -61
c-24 -45 -35 -106 -35 -190c0 -120 20 -195 62 -225c22 -16 50 -24 83 -24c97 0 138 74 138 251zM52 660l-110 -200l-77 34l77 210z" />
    <glyph glyph-name="Upsilontonos" unicode="&#x38e;" horiz-adv-x="544" 
d="M569 695l-222 -409v-286h-146v286l-216 409h168l89 -190c18 -38 27 -63 35 -89c8 20 22 54 37 87l90 192h165zM-17 660l-110 -200l-77 34l77 210z" />
    <glyph glyph-name="Omegatonos" unicode="&#x38f;" horiz-adv-x="716" 
d="M672 366c0 -96 -63 -202 -125 -252h119l-25 -114h-250v100c72 68 122 187 122 274c0 98 -21 222 -150 222c-127 0 -153 -128 -153 -226c0 -88 48 -201 122 -270v-100h-272l25 114h91c-64 52 -122 158 -122 252c0 191 108 338 311 338c183 0 307 -124 307 -338zM53 660
l-110 -200l-77 34l77 210z" />
    <glyph glyph-name="iotadieresistonos" unicode="&#x390;" horiz-adv-x="288" 
d="M288 2c-23 -9 -51 -14 -80 -14c-57 0 -103 24 -119 67c-10 26 -9 45 -9 118v200c0 48 -3 96 -9 117l134 32c6 -28 9 -83 9 -125v-189c0 -88 1 -100 9 -114c5 -9 16 -14 27 -14c5 0 8 0 15 2zM294 809l-110 -200l-77 34l77 210zM379 635c0 -42 -35 -77 -77 -77
s-76 35 -76 77s35 77 78 77c41 0 75 -35 75 -77zM88 635c0 -42 -35 -77 -77 -77c-41 0 -76 35 -76 77s36 77 78 77c41 0 75 -35 75 -77z" />
    <glyph glyph-name="Alpha" unicode="&#x391;" horiz-adv-x="592" 
d="M595 0h-150l-49 165h-204l-49 -165h-146l228 697h151zM362 281c0 0 -23 73 -38 140c-7 32 -28 123 -28 123s-20 -82 -33 -134c-13 -50 -22 -83 -37 -129h136z" />
    <glyph glyph-name="Beta" unicode="&#x392;" horiz-adv-x="610" 
d="M565 194c0 -96 -60 -186 -182 -192c-22 -1 -51 -2 -89 -2h-219v695h235c85 0 129 -13 171 -50c39 -34 57 -74 57 -124c0 -47 -16 -87 -47 -116c-20 -19 -32 -26 -64 -36c86 -25 138 -84 138 -175zM407 211c0 40 -20 76 -51 85c-17 5 -28 6 -54 6h-87v-188h91
c29 0 50 4 65 16c21 16 36 48 36 81zM392 497c0 29 -15 60 -40 70c-12 5 -27 9 -58 9h-81v-159h83c33 0 48 3 60 9c19 10 36 43 36 71z" />
    <glyph glyph-name="Gamma" unicode="&#x393;" horiz-adv-x="444" 
d="M454 695l-18 -115h-218v-580h-143v695h379z" />
    <glyph glyph-name="uni0394" unicode="&#x394;" horiz-adv-x="599" 
d="M579 98l-21 -98h-533v106l215 591h124zM424 120l-85 250c-7 22 -35 115 -38 140c-3 -25 -33 -116 -41 -140l-89 -250h253z" />
    <glyph glyph-name="Epsilon" unicode="&#x395;" horiz-adv-x="505" 
d="M480 0h-405v695h396l-18 -114h-238v-161h199v-114h-197v-186h263v-120z" />
    <glyph glyph-name="Zeta" unicode="&#x396;" horiz-adv-x="540" 
d="M505 114l-36 -114h-434v98l256 423c19 32 43 63 43 63s-29 -5 -71 -5h-214l31 116h416v-101l-258 -435c-15 -25 -36 -49 -36 -49s41 4 69 4h234z" />
    <glyph glyph-name="Eta" unicode="&#x397;" horiz-adv-x="631" 
d="M556 0h-142v310h-200v-310h-139v695h139v-270h200v270h142v-695z" />
    <glyph glyph-name="Theta" unicode="&#x398;" horiz-adv-x="702" 
d="M657 351c0 -194 -92 -362 -300 -362c-211 0 -312 160 -312 356c0 194 102 359 307 359c185 0 305 -135 305 -353zM495 306h-293c4 -100 28 -210 150 -210c89 0 136 62 143 210zM493 418c-8 87 -37 178 -143 178c-101 0 -135 -91 -145 -178h288z" />
    <glyph glyph-name="Iota" unicode="&#x399;" horiz-adv-x="296" 
d="M221 0h-146v695h146v-695z" />
    <glyph glyph-name="Kappa" unicode="&#x39a;" horiz-adv-x="598" 
d="M613 0h-184l-211 363v-363h-143v695h143v-317l198 317h172l-222 -322z" />
    <glyph glyph-name="Lambda" unicode="&#x39b;" horiz-adv-x="576" 
d="M574 0h-149l-81 281c-24 83 -40 167 -56 251c-17 -84 -36 -168 -60 -251l-80 -281h-146l215 697h151z" />
    <glyph glyph-name="Mu" unicode="&#x39c;" horiz-adv-x="828" 
d="M773 0h-137l-26 371c-3 44 -5 79 -5 116c-8 -40 -14 -65 -26 -107l-110 -380h-119l-99 365c-9 34 -21 83 -28 123c0 -41 -2 -82 -5 -125l-24 -363h-139l65 695h179l91 -348c13 -50 18 -74 24 -110c6 36 14 72 25 113l94 345h178z" />
    <glyph glyph-name="Nu" unicode="&#x39d;" horiz-adv-x="633" 
d="M558 0h-146l-119 266c-39 87 -81 185 -94 228c5 -57 6 -139 7 -197l4 -297h-135v695h155l133 -278c35 -74 62 -147 76 -197c-5 54 -10 143 -11 191l-3 284h133v-695z" />
    <glyph glyph-name="Xi" unicode="&#x39e;" horiz-adv-x="516" 
d="M491 0h-472l21 130h451v-130zM482 695l-20 -124h-423v124h443zM439 426l-20 -124h-352l20 124h352z" />
    <glyph glyph-name="Omicron" unicode="&#x39f;" horiz-adv-x="690" 
d="M645 351c0 -157 -54 -275 -155 -330c-42 -23 -81 -32 -139 -32c-105 0 -173 29 -226 98c-53 68 -80 156 -80 258c0 150 57 270 157 325c41 22 92 34 144 34c185 0 299 -135 299 -353zM484 347c0 71 -6 122 -18 161c-11 35 -48 88 -122 88c-47 0 -88 -24 -108 -61
c-24 -45 -35 -106 -35 -190c0 -120 20 -195 62 -225c22 -16 50 -24 83 -24c97 0 138 74 138 251z" />
    <glyph glyph-name="Pi" unicode="&#x3a0;" horiz-adv-x="625" 
d="M550 0h-142v580h-194v-580h-139v695h475v-695z" />
    <glyph glyph-name="Rho" unicode="&#x3a1;" horiz-adv-x="576" 
d="M551 481c0 -92 -44 -166 -120 -202c-32 -15 -62 -23 -139 -23h-77v-256h-140v695h183c118 0 154 -12 193 -34c65 -36 100 -100 100 -180zM398 478c0 65 -35 104 -94 104h-89v-212h73c57 0 74 7 93 36c12 19 17 39 17 72z" />
    <glyph glyph-name="Sigma" unicode="&#x3a3;" horiz-adv-x="512" 
d="M492 114l-36 -114h-421v91l186 277l-179 235l32 92h414l-37 -116h-155c-42 0 -81 5 -81 5s30 -31 53 -63l110 -151l-136 -211c-16 -24 -36 -49 -36 -49s41 4 69 4h217z" />
    <glyph glyph-name="Tau" unicode="&#x3a4;" horiz-adv-x="501" 
d="M516 695l-23 -116h-166v-579h-142v579h-170v116h501z" />
    <glyph glyph-name="Upsilon" unicode="&#x3a5;" horiz-adv-x="544" 
d="M564 695l-222 -409v-286h-146v286l-216 409h168l89 -190c18 -38 27 -63 35 -89c8 20 22 54 37 87l90 192h165z" />
    <glyph glyph-name="Phi" unicode="&#x3a6;" horiz-adv-x="817" 
d="M778 351c0 -121 -73 -257 -300 -279v-72h-141v72c-226 21 -297 158 -297 279s71 259 297 277v67h141v-66c226 -17 300 -157 300 -278zM337 182v334c-126 -21 -141 -109 -141 -166s11 -146 141 -168zM617 350c0 57 -8 144 -139 166v-334c132 22 139 111 139 168z" />
    <glyph glyph-name="Chi" unicode="&#x3a7;" horiz-adv-x="572" 
d="M582 0h-169l-125 245l-124 -245h-174l218 372l-188 323h171l94 -187l95 187h167l-181 -314z" />
    <glyph glyph-name="Psi" unicode="&#x3a8;" horiz-adv-x="748" 
d="M708 431c0 -121 -66 -274 -265 -274v-157h-138v157c-202 0 -265 153 -265 274v264h136v-265c0 -57 -1 -148 129 -168v433h138v-433c132 21 129 111 129 168v265h136v-264z" />
    <glyph glyph-name="uni03A9" unicode="&#x3a9;" horiz-adv-x="716" 
d="M667 366c0 -96 -63 -202 -125 -252h119l-25 -114h-250v100c72 68 122 187 122 274c0 98 -21 222 -150 222c-127 0 -153 -128 -153 -226c0 -88 48 -201 122 -270v-100h-272l25 114h91c-64 52 -122 158 -122 252c0 191 108 338 311 338c183 0 307 -124 307 -338z" />
    <glyph glyph-name="Iotadieresis" unicode="&#x3aa;" horiz-adv-x="296" 
d="M221 0h-146v695h146v-695zM330 795c0 -42 -35 -77 -77 -77s-76 35 -76 77s35 77 78 77c41 0 75 -35 75 -77zM119 795c0 -42 -35 -77 -77 -77c-41 0 -76 35 -76 77s36 77 78 77c41 0 75 -35 75 -77z" />
    <glyph glyph-name="Upsilondieresis" unicode="&#x3ab;" horiz-adv-x="544" 
d="M569 695l-222 -409v-286h-146v286l-216 409h168l89 -190c18 -38 27 -63 35 -89c8 20 22 54 37 87l90 192h165zM456 795c0 -42 -35 -77 -77 -77s-76 35 -76 77s35 77 78 77c41 0 75 -35 75 -77zM245 795c0 -42 -35 -77 -77 -77c-41 0 -76 35 -76 77s36 77 78 77
c41 0 75 -35 75 -77z" />
    <glyph glyph-name="alphatonos" unicode="&#x3ac;" horiz-adv-x="563" 
d="M539 56l-71 -82c-31 13 -64 41 -77 67c-10 -10 -18 -18 -28 -25c-25 -18 -56 -28 -98 -28c-59 0 -125 22 -168 83c-35 50 -47 96 -47 177c0 91 15 148 52 196c14 18 31 35 50 47c33 21 74 34 110 34c49 0 96 -20 115 -52c1 18 3 25 10 40h111c-9 -39 -12 -90 -12 -151
v-192c0 -57 6 -79 53 -114zM359 137v241c-19 20 -42 35 -72 35c-22 0 -45 -10 -58 -23c-29 -29 -32 -80 -32 -125c0 -87 11 -123 28 -141c15 -16 39 -26 62 -26c30 0 56 20 72 39zM442 754l-110 -200l-77 34l77 210z" />
    <glyph glyph-name="epsilontonos" unicode="&#x3ad;" horiz-adv-x="502" 
d="M492 56c-53 -39 -137 -74 -224 -74c-137 0 -218 54 -218 160c0 73 59 115 99 123v2c-46 12 -80 52 -80 104c0 87 74 156 195 156c78 0 134 -23 202 -60l-47 -91c-43 28 -88 41 -137 41c-52 0 -74 -23 -74 -47c0 -48 25 -54 93 -54h54v-91h-47c-68 0 -101 -17 -101 -66
c0 -36 32 -57 86 -57c55 0 101 23 140 52zM427 754l-110 -200l-77 34l77 210z" />
    <glyph glyph-name="etatonos" unicode="&#x3ae;" horiz-adv-x="559" 
d="M537 56l-71 -82c-71 26 -114 83 -114 160v199c0 58 -10 75 -45 75c-27 0 -62 -18 -93 -46v-362h-134v371c0 44 -6 86 -18 120l119 34c12 -21 19 -43 19 -64c20 14 37 26 59 38c27 14 62 22 92 22c57 0 107 -30 123 -74c7 -19 10 -41 10 -73v-218c0 -57 6 -65 53 -100z
M432 754l-110 -200l-77 34l77 210z" />
    <glyph glyph-name="iotatonos" unicode="&#x3af;" horiz-adv-x="288" 
d="M288 2c-23 -9 -51 -14 -80 -14c-57 0 -103 24 -119 67c-10 26 -9 45 -9 118v200c0 48 -3 96 -9 117l134 32c6 -28 9 -83 9 -125v-189c0 -88 1 -100 9 -114c5 -9 16 -14 27 -14c5 0 8 0 15 2zM316 754l-110 -200l-77 34l77 210z" />
    <glyph glyph-name="upsilondieresistonos" unicode="&#x3b0;" horiz-adv-x="541" 
d="M476 159c0 -109 -73 -171 -207 -171c-132 0 -194 59 -194 164v348l132 25v-374c0 -36 19 -63 70 -63c50 0 71 32 71 66v343l128 27v-365zM412 809l-110 -200l-77 34l77 210zM497 635c0 -42 -35 -77 -77 -77s-76 35 -76 77s35 77 78 77c41 0 75 -35 75 -77zM206 635
c0 -42 -35 -77 -77 -77c-41 0 -76 35 -76 77s36 77 78 77c41 0 75 -35 75 -77z" />
    <glyph glyph-name="alpha" unicode="&#x3b1;" horiz-adv-x="563" 
d="M534 56l-71 -82c-31 13 -64 41 -77 67c-10 -10 -18 -18 -28 -25c-25 -18 -56 -28 -98 -28c-59 0 -125 22 -168 83c-35 50 -47 96 -47 177c0 91 15 148 52 196c14 18 31 35 50 47c33 21 74 34 110 34c49 0 96 -20 115 -52c1 18 3 25 10 40h111c-9 -39 -12 -90 -12 -151
v-192c0 -57 6 -79 53 -114zM354 137v241c-19 20 -42 35 -72 35c-22 0 -45 -10 -58 -23c-29 -29 -32 -80 -32 -125c0 -87 11 -123 28 -141c15 -16 39 -26 62 -26c30 0 56 20 72 39z" />
    <glyph glyph-name="beta" unicode="&#x3b2;" horiz-adv-x="592" 
d="M557 194c0 -104 -67 -206 -235 -206c-52 0 -84 18 -118 37v-211l-129 -34v653c0 175 67 281 225 281c127 0 208 -74 208 -178c0 -71 -31 -124 -98 -149c89 -23 147 -92 147 -193zM411 192c0 79 -23 130 -142 130h-18l19 100h7c89 0 99 48 99 104c0 53 -23 89 -76 89
c-83 0 -96 -75 -96 -165v-312c21 -25 74 -54 107 -54c65 0 100 37 100 108z" />
    <glyph glyph-name="gamma" unicode="&#x3b3;" horiz-adv-x="514" 
d="M519 512l-183 -504v-194l-137 -34v228l-114 346c-8 25 -20 62 -48 62c-5 0 -10 -1 -15 -2l-27 84c27 14 59 24 92 24c63 0 93 -35 110 -93l45 -156c10 -35 23 -91 29 -125c3 31 14 80 30 131l70 233h148z" />
    <glyph glyph-name="delta" unicode="&#x3b4;" horiz-adv-x="543" 
d="M503 258c0 -148 -73 -269 -233 -269c-139 0 -230 104 -230 265c0 133 74 235 187 246c-45 39 -89 70 -130 87l17 108h357l-17 -106h-150c109 -80 199 -187 199 -331zM357 259c0 60 -2 144 -85 144c-81 0 -83 -89 -83 -146c0 -61 -2 -171 85 -171c58 0 83 52 83 173z" />
    <glyph glyph-name="epsilon" unicode="&#x3b5;" horiz-adv-x="502" 
d="M487 56c-53 -39 -137 -74 -224 -74c-137 0 -218 54 -218 160c0 73 59 115 99 123v2c-46 12 -80 52 -80 104c0 87 74 156 195 156c78 0 134 -23 202 -60l-47 -91c-43 28 -88 41 -137 41c-52 0 -74 -23 -74 -47c0 -48 25 -54 93 -54h54v-91h-47c-68 0 -101 -17 -101 -66
c0 -36 32 -57 86 -57c55 0 101 23 140 52z" />
    <glyph glyph-name="zeta" unicode="&#x3b6;" horiz-adv-x="483" 
d="M488 695l-17 -111c-180 -84 -272 -258 -272 -381c0 -51 30 -66 91 -66h36c118 0 146 -76 146 -147c0 -74 -52 -145 -96 -204l-73 50c21 26 38 65 38 105c0 29 -10 59 -66 59h-25c-116 0 -200 53 -200 171c0 163 117 341 246 406h-212l18 118h386z" />
    <glyph glyph-name="eta" unicode="&#x3b7;" horiz-adv-x="559" 
d="M532 56l-71 -82c-71 26 -114 83 -114 160v199c0 58 -10 75 -45 75c-27 0 -62 -18 -93 -46v-362h-134v371c0 44 -6 86 -18 120l119 34c12 -21 19 -43 19 -64c20 14 37 26 59 38c27 14 62 22 92 22c57 0 107 -30 123 -74c7 -19 10 -41 10 -73v-218c0 -57 6 -65 53 -100z
" />
    <glyph glyph-name="theta" unicode="&#x3b8;" horiz-adv-x="543" 
d="M501 348c0 -213 -63 -359 -231 -359c-177 0 -228 142 -228 355s63 360 231 360c179 0 228 -143 228 -356zM350 307h-157c2 -149 13 -223 78 -223c72 0 78 108 79 223zM350 402c-3 139 -14 207 -76 207c-70 0 -79 -97 -81 -207h157z" />
    <glyph glyph-name="iota" unicode="&#x3b9;" horiz-adv-x="288" 
d="M283 2c-23 -9 -51 -14 -80 -14c-57 0 -103 24 -119 67c-10 26 -9 45 -9 118v200c0 48 -3 96 -9 117l134 32c6 -28 9 -83 9 -125v-189c0 -88 1 -100 9 -114c5 -9 16 -14 27 -14c5 0 8 0 15 2z" />
    <glyph glyph-name="kappa" unicode="&#x3ba;" horiz-adv-x="527" 
d="M533 0h-157l-164 277l139 235h163l-173 -227zM209 0h-134v373c0 48 -3 96 -9 117l134 32c6 -28 9 -83 9 -125v-397z" />
    <glyph glyph-name="lambda" unicode="&#x3bb;" horiz-adv-x="520" 
d="M524 2c-23 -9 -46 -19 -75 -19c-75 0 -101 35 -115 89l-56 221c-7 23 -18 81 -19 90c-2 -6 -15 -63 -23 -92l-92 -299l-137 16l124 360c6 16 33 96 50 144h40c-14 49 -26 140 -92 140c-17 0 -36 -6 -52 -12l-12 82c31 11 55 18 86 18c120 0 146 -86 159 -131l149 -505
c7 -21 12 -24 23 -24c5 0 11 1 18 3z" />
    <glyph glyph-name="uni03BC" unicode="&#x3bc;" horiz-adv-x="551" 
d="M507 40l-95 -54c-17 12 -31 29 -40 50c-33 -32 -81 -49 -135 -49c-10 0 -25 5 -35 14c0 0 2 -20 2 -31v-156l-129 -34v720l132 25v-329c0 -46 4 -70 11 -84s27 -24 47 -24c33 0 73 24 83 49v360l128 27v-391c0 -34 11 -69 31 -93z" />
    <glyph glyph-name="nu" unicode="&#x3bd;" horiz-adv-x="474" 
d="M479 512l-187 -512h-111l-186 504l137 17l74 -231c11 -34 26 -90 33 -123c4 30 15 79 31 130l69 215h140z" />
    <glyph glyph-name="xi" unicode="&#x3be;" horiz-adv-x="498" 
d="M493 695l-18 -118h-164c-48 0 -90 -38 -90 -83c0 -52 43 -71 87 -71h118l-18 -112h-93c-81 0 -121 -51 -121 -108c0 -51 30 -66 91 -66h49c118 0 146 -76 146 -147c0 -74 -52 -145 -96 -204l-73 50c21 26 38 65 38 105c0 29 -10 59 -66 59h-38c-116 0 -200 53 -200 171
c0 90 56 174 124 192v2c-39 15 -88 49 -88 118c0 36 29 82 55 93h-75l19 119h413z" />
    <glyph glyph-name="omicron" unicode="&#x3bf;" horiz-adv-x="543" 
d="M503 258c0 -88 -20 -148 -64 -198c-39 -44 -90 -71 -169 -71c-139 0 -230 104 -230 265s92 268 230 268c73 0 130 -25 174 -77c41 -48 59 -104 59 -187zM357 259c0 69 -9 114 -27 137c-13 17 -34 27 -58 27c-32 0 -58 -20 -69 -52c-9 -27 -14 -63 -14 -114
c0 -59 6 -103 17 -129c12 -28 42 -42 68 -42c58 0 83 52 83 173z" />
    <glyph glyph-name="pi" unicode="&#x3c0;" horiz-adv-x="559" 
d="M542 512l-35 -96h-40v-260c0 -57 6 -65 53 -100l-71 -82c-71 26 -114 83 -114 160v282h-126v-416h-134v416h-55v96h522z" />
    <glyph glyph-name="rho" unicode="&#x3c1;" horiz-adv-x="527" 
d="M487 258c0 -82 -11 -147 -71 -211c-31 -34 -75 -58 -137 -58c-40 0 -78 10 -107 27c2 -12 2 -27 2 -42v-160l-134 -34v491c0 141 59 251 224 251c109 0 223 -69 223 -264zM341 259c0 106 -23 164 -80 164c-47 0 -86 -30 -86 -102v-196c18 -15 47 -30 74 -30
c66 0 92 47 92 164z" />
    <glyph glyph-name="sigma1" unicode="&#x3c2;" horiz-adv-x="457" 
d="M437 -24c0 -32 -10 -65 -31 -100c-5 -9 -26 -38 -65 -89l-73 50c25 31 38 65 38 100c0 16 -11 30 -33 41l-39 15l-38 14c-35 15 -64 33 -87 56c-49 49 -74 112 -74 189c0 111 35 190 105 237c37 25 80 38 127 38c37 0 70 -8 99 -23c13 -7 30 -19 50 -36l-65 -88
c-29 27 -56 40 -81 40c-58 0 -87 -57 -87 -172c0 -33 10 -61 29 -84c15 -17 43 -35 86 -52c49 -20 80 -35 95 -46c29 -23 44 -53 44 -90z" />
    <glyph glyph-name="sigma" unicode="&#x3c3;" horiz-adv-x="558" 
d="M558 512l-34 -94h-75c37 -40 54 -95 54 -160c0 -148 -73 -269 -233 -269c-139 0 -230 104 -230 265s92 258 230 258h288zM357 259c0 60 -2 159 -85 159c-81 0 -83 -104 -83 -161c0 -61 -2 -171 85 -171c58 0 83 52 83 173z" />
    <glyph glyph-name="tau" unicode="&#x3c4;" horiz-adv-x="415" 
d="M410 512l-34 -97h-111v-252c0 -65 12 -82 58 -82c12 0 24 3 48 10l17 -80c-39 -16 -74 -23 -109 -23c-68 0 -122 30 -138 75c-8 22 -9 32 -9 79v273h-123v97h401z" />
    <glyph glyph-name="upsilon" unicode="&#x3c5;" horiz-adv-x="541" 
d="M471 159c0 -109 -73 -171 -207 -171c-132 0 -194 59 -194 164v348l132 25v-374c0 -36 19 -63 70 -63c50 0 71 32 71 66v343l128 27v-365z" />
    <glyph glyph-name="phi" unicode="&#x3c6;" horiz-adv-x="699" 
d="M659 258c0 -110 -45 -243 -243 -267v-177l-133 -34v211c-148 20 -243 119 -243 266c0 123 75 229 207 257v-99c-38 -22 -61 -71 -61 -156c0 -91 35 -148 97 -167v426c27 4 55 4 80 4c158 0 296 -89 296 -264zM513 259c0 92 -38 141 -97 159v-326c61 20 97 82 97 167z" />
    <glyph glyph-name="chi" unicode="&#x3c7;" horiz-adv-x="510" 
d="M520 0h-170l-54 94c-9 16 -36 69 -40 76c-4 -12 -24 -55 -51 -99l-43 -71h-172l189 273l-142 215l139 39c38 -63 50 -85 69 -125c5 -10 12 -25 16 -34c3 8 18 44 45 100c8 17 20 38 24 44h158l-152 -236z" />
    <glyph glyph-name="psi" unicode="&#x3c8;" horiz-adv-x="681" 
d="M621 257c0 -149 -68 -247 -214 -258v-185l-133 -34v219c-124 9 -214 81 -214 269v232l132 25v-264c0 -70 2 -141 82 -162v484c0 63 -2 97 -9 126l137 32c4 -35 5 -56 5 -91v-550c63 19 82 67 82 146v251l132 27v-267z" />
    <glyph glyph-name="omega" unicode="&#x3c9;" horiz-adv-x="709" 
d="M669 198c0 -99 -58 -211 -179 -211c-68 0 -106 27 -135 84c-30 -60 -68 -84 -137 -84c-120 0 -178 112 -178 211c0 135 54 242 148 328l86 -45c-63 -82 -85 -158 -85 -251c0 -98 35 -122 56 -122c13 0 43 16 43 78v194h133v-194c0 -63 27 -78 43 -78c21 0 56 24 56 122
c0 93 -22 169 -85 251l86 45c94 -86 148 -193 148 -328z" />
    <glyph glyph-name="iotadieresis" unicode="&#x3ca;" horiz-adv-x="288" 
d="M288 2c-23 -9 -51 -14 -80 -14c-57 0 -103 24 -119 67c-10 26 -9 45 -9 118v200c0 48 -3 96 -9 117l134 32c6 -28 9 -83 9 -125v-189c0 -88 1 -100 9 -114c5 -9 16 -14 27 -14c5 0 8 0 15 2zM329 635c0 -42 -35 -77 -77 -77s-76 35 -76 77s35 77 78 77
c41 0 75 -35 75 -77zM118 635c0 -42 -35 -77 -77 -77c-41 0 -76 35 -76 77s36 77 78 77c41 0 75 -35 75 -77z" />
    <glyph glyph-name="upsilondieresis" unicode="&#x3cb;" horiz-adv-x="541" 
d="M476 159c0 -109 -73 -171 -207 -171c-132 0 -194 59 -194 164v348l132 25v-374c0 -36 19 -63 70 -63c50 0 71 32 71 66v343l128 27v-365zM457 635c0 -42 -35 -77 -77 -77s-76 35 -76 77s35 77 78 77c41 0 75 -35 75 -77zM246 635c0 -42 -35 -77 -77 -77
c-41 0 -76 35 -76 77s36 77 78 77c41 0 75 -35 75 -77z" />
    <glyph glyph-name="omicrontonos" unicode="&#x3cc;" horiz-adv-x="543" 
d="M508 258c0 -88 -20 -148 -64 -198c-39 -44 -90 -71 -169 -71c-139 0 -230 104 -230 265s92 268 230 268c73 0 130 -25 174 -77c41 -48 59 -104 59 -187zM362 259c0 69 -9 114 -27 137c-13 17 -34 27 -58 27c-32 0 -58 -20 -69 -52c-9 -27 -14 -63 -14 -114
c0 -59 6 -103 17 -129c12 -28 42 -42 68 -42c58 0 83 52 83 173zM422 754l-110 -200l-77 34l77 210z" />
    <glyph glyph-name="upsilontonos" unicode="&#x3cd;" horiz-adv-x="541" 
d="M476 159c0 -109 -73 -171 -207 -171c-132 0 -194 59 -194 164v348l132 25v-374c0 -36 19 -63 70 -63c50 0 71 32 71 66v343l128 27v-365zM427 754l-110 -200l-77 34l77 210z" />
    <glyph glyph-name="omegatonos" unicode="&#x3ce;" horiz-adv-x="709" 
d="M674 198c0 -99 -58 -211 -179 -211c-68 0 -106 27 -135 84c-30 -60 -68 -84 -137 -84c-120 0 -178 112 -178 211c0 135 54 242 148 328l86 -45c-63 -82 -85 -158 -85 -251c0 -98 35 -122 56 -122c13 0 43 16 43 78v194h133v-194c0 -63 27 -78 43 -78c21 0 56 24 56 122
c0 93 -22 169 -85 251l86 45c94 -86 148 -193 148 -328zM504 754l-110 -200l-77 34l77 210z" />
    <glyph glyph-name="beta1" unicode="&#x3d0;" horiz-adv-x="592" 
d="M557 194c0 -104 -67 -206 -235 -206c-47 0 -94 13 -126 49c-4 -18 -5 -23 -14 -37h-120c10 23 13 38 13 109v324c0 175 67 281 225 281c127 0 208 -74 208 -178c0 -71 -31 -124 -98 -149c89 -23 147 -92 147 -193zM411 192c0 79 -23 130 -142 130h-18l19 100h7
c89 0 99 48 99 104c0 53 -23 89 -76 89c-83 0 -90 -75 -90 -165v-313c21 -25 68 -53 101 -53c65 0 100 37 100 108z" />
    <glyph glyph-name="phi1" unicode="&#x3d5;" horiz-adv-x="686" 
d="M646 258c0 -109 -43 -240 -237 -266v-186l-133 -30v217c-145 21 -236 119 -236 264c0 154 104 239 236 260v66c0 63 -2 97 -9 126l137 32c4 -35 5 -56 5 -91v-133c132 -21 237 -106 237 -259zM276 97v317c-67 -22 -91 -79 -91 -155c0 -88 33 -142 91 -162zM500 259
c0 90 -35 138 -91 156v-318c58 21 91 79 91 162z" />
    <glyph glyph-name="uni03DC" unicode="&#x3dc;" horiz-adv-x="551" 
d="M507 40l-95 -54c-17 12 -31 29 -40 50c-33 -32 -81 -49 -135 -49c-10 0 -25 5 -35 14c0 0 2 -20 2 -31v-156l-129 -34v720l132 25v-329c0 -46 4 -70 11 -84s27 -24 47 -24c33 0 73 24 83 49v360l128 27v-391c0 -34 11 -69 31 -93z" />
    <glyph glyph-name="afii10023" unicode="&#x401;" horiz-adv-x="505" 
d="M480 0h-405v695h396l-18 -114h-238v-161h199v-114h-197v-186h263v-120zM446 810c0 -41 -35 -77 -77 -77s-76 36 -76 77s35 77 78 77c41 0 75 -35 75 -77zM235 810c0 -41 -35 -77 -77 -77c-40 0 -76 36 -76 77s37 77 78 77s75 -36 75 -77z" />
    <glyph glyph-name="afii10051" unicode="&#x402;" horiz-adv-x="703" 
d="M516 695l-23 -116h-179v-170c53 22 95 31 141 31c44 0 85 -10 123 -45c56 -51 65 -116 65 -178c0 -58 -7 -131 -55 -181c-37 -39 -79 -48 -121 -48c-29 0 -56 3 -89 15l-14 5l22 99c8 -4 14 -6 23 -9s19 -5 29 -5c53 0 55 50 55 87v37c0 59 -15 82 -24 91
c-12 12 -34 21 -62 21c-36 0 -69 -10 -93 -21v-308h-142v579h-157v116h501z" />
    <glyph glyph-name="afii10052" unicode="&#x403;" horiz-adv-x="464" 
d="M454 695l-16 -113h-221v-582h-142v695h379zM384 833l-224 -100l-41 74l207 130z" />
    <glyph glyph-name="afii10053" unicode="&#x404;" horiz-adv-x="575" 
d="M538 652l-63 -94c-36 27 -79 39 -118 39c-30 0 -85 -7 -119 -54c-27 -37 -30 -84 -31 -99l-1 -22h199v-112h-202v-33c0 -38 10 -91 31 -121c16 -23 55 -58 131 -58c24 0 71 4 124 45l64 -90c-46 -36 -108 -65 -198 -65c-121 0 -193 56 -228 96c-74 85 -82 193 -82 266
c0 58 6 172 78 258c77 92 180 99 228 99c89 0 147 -27 187 -55z" />
    <glyph glyph-name="afii10054" unicode="&#x405;" horiz-adv-x="594" 
d="M547 646l-66 -100c-46 30 -106 53 -161 53c-20 0 -43 -3 -64 -17c-20 -13 -34 -34 -34 -66c0 -10 2 -24 13 -36c6 -7 20 -19 64 -31l84 -23c44 -12 92 -32 129 -74c24 -27 47 -68 47 -133c0 -78 -35 -129 -67 -159c-40 -38 -107 -75 -220 -75c-109 0 -193 39 -237 63
l52 109c44 -25 113 -56 191 -56c38 0 71 6 97 30c11 10 25 30 25 65c0 26 -11 44 -21 55c-18 19 -49 29 -70 35l-77 21c-77 21 -112 50 -137 88c-12 18 -29 51 -29 106c0 43 13 107 72 157c54 46 122 58 177 58c126 0 208 -53 232 -70z" />
    <glyph glyph-name="afii10055" unicode="&#x406;" horiz-adv-x="292" 
d="M217 0h-142v695h142v-695z" />
    <glyph glyph-name="afii10056" unicode="&#x407;" horiz-adv-x="292" 
d="M217 0h-142v695h142v-695zM328 810c0 -41 -35 -77 -77 -77s-76 36 -76 77s35 77 78 77c41 0 75 -35 75 -77zM117 810c0 -41 -35 -77 -77 -77c-40 0 -76 36 -76 77s37 77 78 77s75 -36 75 -77z" />
    <glyph glyph-name="afii10057" unicode="&#x408;" horiz-adv-x="297" 
d="M222 695v-601c0 -37 -1 -63 -10 -95c-28 -98 -110 -143 -162 -163l-65 72c23 14 60 42 81 84c13 35 14 56 14 88v615h142z" />
    <glyph glyph-name="afii10058" unicode="&#x409;" horiz-adv-x="926" 
d="M544 436h87c56 0 119 -3 175 -50c59 -50 70 -116 70 -166c0 -56 -13 -129 -86 -179c-50 -34 -109 -41 -153 -41h-235v585h-129l-4 -108c-4 -120 -13 -223 -23 -288c-7 -49 -19 -100 -54 -137c-37 -39 -87 -49 -127 -55l-44 -7l-26 101l17 5c18 5 32 8 52 23
c12 9 30 25 41 54c5 12 14 40 22 116c11 100 16 222 17 283l2 123h398v-259zM544 112h75c26 0 59 4 83 34c19 24 22 54 22 76c0 29 -6 55 -28 76c-25 25 -52 26 -77 26h-75v-212z" />
    <glyph glyph-name="afii10059" unicode="&#x40a;" horiz-adv-x="934" 
d="M410 695h142v-263h87c56 0 119 -3 175 -50c59 -50 70 -116 70 -162c0 -85 -33 -142 -86 -179c-50 -34 -109 -41 -153 -41h-235v318h-193v-318h-142v695h142v-262h193v262zM552 112h75c27 0 58 4 83 34c19 23 22 50 22 72c0 29 -6 55 -28 76c-25 25 -52 26 -77 26h-75
v-208z" />
    <glyph glyph-name="afii10060" unicode="&#x40b;" horiz-adv-x="705" 
d="M516 695l-23 -116h-179v-170c54 22 95 31 141 31c70 0 112 -24 136 -48s44 -62 44 -118v-274h-142v217c0 59 -15 82 -24 91c-12 12 -34 21 -62 21c-36 0 -69 -10 -93 -21v-308h-142v579h-157v116h501z" />
    <glyph glyph-name="afii10061" unicode="&#x40c;" horiz-adv-x="639" 
d="M573 705l27 -93l-32 -8c-12 -3 -21 -6 -32 -14s-19 -18 -27 -46l-19 -66c-7 -24 -15 -53 -37 -76c-14 -14 -33 -27 -57 -33c26 -8 43 -21 54 -32c23 -23 33 -52 40 -74l30 -103c6 -20 12 -39 33 -51c7 -4 29 -13 40 -16l21 -6l-26 -97l-79 9c-45 5 -70 24 -84 40
c-19 23 -26 54 -33 86l-23 101c-5 21 -20 52 -33 64c-19 17 -47 20 -67 20h-52v-310h-142v695h142v-270h62c25 0 53 6 69 20c17 15 24 41 29 63l22 87c5 20 10 47 33 70c19 20 43 27 74 31zM472 833l-224 -100l-41 74l207 130z" />
    <glyph glyph-name="afii10062" unicode="&#x40e;" horiz-adv-x="551" 
d="M148 695l96 -259c19 -52 31 -88 44 -140c19 83 32 117 50 169l81 230h147l-182 -489c-39 -105 -52 -146 -78 -175c-38 -41 -94 -50 -123 -55l-44 -7l-26 101l17 5c18 5 31 8 52 22c38 25 50 58 60 85l12 32l-68 -9l-191 490h153zM370 887l70 -29c-6 -23 -20 -54 -55 -80
c-38 -28 -71 -31 -110 -31s-72 3 -110 31c-35 26 -49 57 -55 80l70 29c6 -15 23 -28 34 -34c19 -11 42 -13 61 -13c21 0 42 2 61 13c11 6 28 19 34 34z" />
    <glyph glyph-name="afii10145" unicode="&#x40f;" horiz-adv-x="617" 
d="M217 695v-580h183v580h142v-695h-165v-172h-134v172h-168v695h142z" />
    <glyph glyph-name="afii10017" unicode="&#x410;" horiz-adv-x="592" 
d="M595 0h-150l-49 165h-204l-49 -165h-146l228 697h151zM226 280h136c-22 71 -30 106 -38 141c-9 37 -15 56 -28 122c-10 -42 -25 -102 -33 -133c-18 -67 -24 -91 -37 -130z" />
    <glyph glyph-name="afii10018" unicode="&#x411;" horiz-adv-x="614" 
d="M75 695h440l-18 -114h-280v-157h109c92 0 143 -28 169 -49c32 -26 69 -77 69 -161c0 -94 -41 -146 -82 -174c-42 -29 -100 -40 -150 -40h-257v695zM217 114h94c17 0 52 2 75 31c8 10 20 31 20 69c0 26 -6 58 -36 79c-17 12 -42 17 -64 17h-89v-196z" />
    <glyph glyph-name="afii10019" unicode="&#x412;" horiz-adv-x="610" 
d="M75 695h235c69 0 124 -7 172 -50c35 -32 56 -72 56 -124c0 -29 -6 -78 -47 -116c-10 -9 -31 -26 -64 -36c26 -6 52 -18 77 -39c43 -36 61 -78 61 -136c0 -108 -70 -194 -211 -194h-279v695zM215 114h99c27 0 52 4 74 34c12 17 19 40 19 63c0 28 -10 55 -26 70
c-20 19 -46 21 -67 21h-99v-188zM213 576v-159h94c21 0 45 1 65 23c13 14 20 36 20 57c0 31 -14 59 -40 70c-21 9 -45 9 -58 9h-81z" />
    <glyph glyph-name="afii10020" unicode="&#x413;" horiz-adv-x="464" 
d="M454 695l-16 -113h-221v-582h-142v695h379z" />
    <glyph glyph-name="afii10021" unicode="&#x414;" horiz-adv-x="660" 
d="M565 695v-585h72v-278h-135v168h-362v-168h-135v278h45c35 70 72 165 90 261c10 55 22 165 24 234l3 90h398zM282 585l-4 -71c-6 -102 -13 -151 -43 -253c-18 -61 -32 -101 -62 -151h250v475h-141z" />
    <glyph glyph-name="afii10022" unicode="&#x415;" horiz-adv-x="505" 
d="M480 0h-405v695h396l-18 -115h-238v-160h199v-115h-197v-185h263v-120z" />
    <glyph glyph-name="afii10024" unicode="&#x416;" horiz-adv-x="939" 
d="M872 707l27 -93l-32 -8c-11 -3 -22 -6 -32 -14c-15 -11 -23 -34 -26 -46l-19 -68c-8 -27 -14 -54 -37 -78c-13 -14 -33 -26 -54 -33c20 -7 39 -19 52 -32c14 -15 34 -49 40 -72l29 -103c6 -20 12 -39 33 -51c7 -4 29 -13 40 -16l21 -6l-26 -97l-79 9c-21 2 -59 9 -84 40
c-19 22 -26 54 -33 86l-23 101c-4 16 -12 43 -33 62c-23 21 -46 22 -67 22h-30v-310h-139v310h-30c-21 0 -44 -1 -67 -22c-21 -19 -29 -46 -33 -62l-23 -101c-7 -32 -14 -64 -33 -86c-25 -31 -63 -38 -84 -40l-79 -9l-26 97l21 6c11 3 33 12 40 16c21 12 27 31 33 51l29 103
c6 23 26 57 40 72c13 13 32 25 52 32c-21 7 -41 19 -54 33c-23 24 -29 51 -37 78l-19 68c-3 12 -11 35 -26 46c-10 8 -21 11 -32 14l-32 8l27 93l67 -9c31 -4 55 -11 74 -31c22 -23 28 -50 33 -70l21 -89c6 -23 13 -49 29 -63c12 -10 42 -20 62 -20h47v270h139v-270h47
c20 0 50 10 62 20c16 14 23 40 29 63l21 89c5 20 11 47 33 70c19 20 43 27 74 31z" />
    <glyph glyph-name="afii10025" unicode="&#x417;" horiz-adv-x="545" 
d="M233 306h-82v105h69c17 0 55 1 79 23c22 20 25 49 25 69c0 36 -11 57 -22 68c-15 16 -43 28 -81 28c-66 0 -104 -25 -120 -38l-66 89c72 45 135 57 208 57c48 0 107 -6 160 -44c40 -29 72 -75 72 -144c0 -48 -17 -80 -32 -99c-14 -18 -39 -42 -80 -55
c29 -4 61 -17 85 -37c16 -14 52 -52 52 -128c0 -52 -19 -115 -83 -162c-41 -30 -96 -50 -190 -50c-99 0 -164 27 -212 65l64 91c36 -28 83 -48 142 -48c43 0 77 12 96 32c24 25 25 62 25 77c0 23 -3 51 -23 72c-24 26 -61 29 -86 29z" />
    <glyph glyph-name="afii10026" unicode="&#x418;" horiz-adv-x="650" 
d="M575 0h-142v344c0 35 3 103 6 147c-17 -56 -31 -83 -48 -121l-169 -370h-147v695h142v-344c0 -35 -3 -103 -6 -147c17 56 31 83 48 121l169 370h147v-695z" />
    <glyph glyph-name="afii10027" unicode="&#x419;" horiz-adv-x="650" 
d="M575 0h-142v344c0 35 3 103 6 147c-17 -56 -31 -83 -48 -121l-169 -370h-147v695h142v-344c0 -35 -3 -103 -6 -147c17 56 31 83 48 121l169 370h147v-695zM420 883l70 -29c-6 -23 -20 -54 -55 -80c-38 -28 -73 -31 -110 -31s-72 3 -110 31c-35 26 -49 57 -55 80l70 29
c8 -14 22 -27 34 -34c16 -9 40 -13 61 -13c12 0 40 1 61 13c12 7 26 20 34 34z" />
    <glyph glyph-name="afii10028" unicode="&#x41a;" horiz-adv-x="639" 
d="M573 705l27 -93l-32 -8c-12 -3 -21 -6 -32 -14s-19 -18 -27 -46l-19 -66c-7 -24 -15 -53 -37 -76c-14 -14 -33 -27 -57 -33c26 -8 43 -21 54 -32c23 -23 33 -52 40 -74l30 -103c6 -20 12 -39 33 -51c7 -4 29 -13 40 -16l21 -6l-26 -97l-79 9c-45 5 -70 24 -84 40
c-19 23 -26 54 -33 86l-23 101c-5 21 -20 52 -33 64c-19 17 -47 20 -67 20h-52v-310h-142v695h142v-270h62c25 0 53 6 69 20c17 15 24 41 29 63l22 87c5 20 10 47 33 70c19 20 43 27 74 31z" />
    <glyph glyph-name="afii10029" unicode="&#x41b;" horiz-adv-x="619" 
d="M544 0h-142v580h-129l-4 -103c-2 -54 -8 -187 -23 -288c-7 -49 -19 -100 -54 -137c-37 -39 -87 -49 -127 -55l-44 -7l-26 101l17 5c18 5 32 8 52 23c12 9 30 25 41 54c5 12 14 40 22 116c11 100 16 222 17 283l2 123h398v-695z" />
    <glyph glyph-name="afii10030" unicode="&#x41c;" horiz-adv-x="828" 
d="M773 0h-137l-26 379c-3 39 -2 8 -5 116c-8 -44 -16 -73 -26 -107l-110 -388h-119l-99 373c-12 44 -20 75 -28 123c-3 -119 -2 -85 -5 -125l-24 -371h-139l65 695h179l91 -353c8 -30 13 -48 16 -65c2 -10 3 -19 5 -29c1 -5 2 -11 3 -16c2 10 8 50 25 113l94 350h178z" />
    <glyph glyph-name="afii10031" unicode="&#x41d;" horiz-adv-x="633" 
d="M558 0h-142v310h-199v-310h-142v695h142v-270h199v270h142v-695z" />
    <glyph glyph-name="afii10032" unicode="&#x41e;" horiz-adv-x="692" 
d="M346 707c109 0 177 -47 216 -92c55 -62 85 -157 85 -268c0 -110 -30 -204 -85 -267c-39 -45 -107 -92 -216 -92s-177 47 -216 92c-55 63 -85 157 -85 267c0 111 30 206 85 268c39 45 107 92 216 92zM346 600c-73 0 -102 -50 -114 -74c-13 -26 -29 -68 -29 -179
c0 -110 16 -152 29 -178c18 -36 48 -74 114 -74s96 38 114 74c13 26 29 68 29 178c0 111 -16 153 -29 179c-12 24 -41 74 -114 74z" />
    <glyph glyph-name="afii10033" unicode="&#x41f;" horiz-adv-x="621" 
d="M546 0h-140v580h-191v-580h-140v695h471v-695z" />
    <glyph glyph-name="afii10034" unicode="&#x420;" horiz-adv-x="578" 
d="M75 695h218c83 0 130 -17 160 -34c65 -36 100 -100 100 -180c0 -55 -18 -152 -120 -202c-38 -18 -70 -23 -139 -23h-77v-256h-142v695zM217 370h73c64 0 79 12 93 36c7 12 17 31 17 71c0 35 -10 61 -22 75c-9 11 -31 30 -72 30h-89v-212z" />
    <glyph glyph-name="afii10035" unicode="&#x421;" horiz-adv-x="572" 
d="M483 140l64 -87c-44 -36 -104 -65 -192 -65c-111 0 -179 42 -226 96c-60 68 -84 150 -84 248c0 81 16 157 47 215c53 99 154 160 265 160c101 0 161 -44 175 -55l-63 -94c-39 32 -84 39 -108 39c-52 0 -96 -26 -120 -60c-35 -51 -39 -138 -39 -191c0 -94 10 -138 29 -173
c32 -58 85 -77 134 -77c43 0 85 16 118 44z" />
    <glyph glyph-name="afii10036" unicode="&#x422;" horiz-adv-x="501" 
d="M516 695l-23 -115h-166v-580h-142v580h-170v115h501z" />
    <glyph glyph-name="afii10037" unicode="&#x423;" horiz-adv-x="551" 
d="M148 695l96 -259c19 -52 31 -88 44 -140c19 83 32 117 50 169l81 230h147l-182 -489c-39 -105 -52 -146 -78 -175c-38 -41 -94 -50 -123 -55l-44 -7l-26 101l17 5c18 5 31 8 52 22c38 25 50 58 60 85l12 32l-68 -9l-191 490h153z" />
    <glyph glyph-name="afii10038" unicode="&#x424;" horiz-adv-x="796" 
d="M469 0h-142v102h-24c-98 0 -160 38 -197 81c-36 42 -61 107 -61 185c0 80 25 159 77 205c44 39 115 60 181 60h24v97h142v-97h24c66 0 137 -21 181 -60c52 -46 77 -125 77 -205c0 -78 -25 -143 -61 -185c-37 -43 -99 -81 -197 -81h-24v-102zM334 538h-12
c-46 0 -72 -18 -85 -30c-37 -36 -39 -94 -39 -134v-11c0 -42 0 -95 37 -133c29 -30 64 -33 87 -33h12v341zM462 538v-341h12c23 0 58 3 87 33c37 38 37 91 37 133v11c0 40 -2 98 -39 134c-13 12 -39 30 -85 30h-12z" />
    <glyph glyph-name="afii10039" unicode="&#x425;" horiz-adv-x="572" 
d="M582 0h-169l-125 245l-124 -245h-174l218 372l-188 323h171l94 -187l95 187h167l-181 -314z" />
    <glyph glyph-name="afii10040" unicode="&#x426;" horiz-adv-x="637" 
d="M217 695v-580h183v580h142v-581h72v-286h-135v172h-404v695h142z" />
    <glyph glyph-name="afii10041" unicode="&#x427;" horiz-adv-x="593" 
d="M518 0h-142v289c-51 -24 -108 -31 -146 -31c-31 0 -93 4 -137 48c-40 40 -43 87 -43 118v271h142v-218c0 -22 1 -59 18 -82c20 -27 52 -30 70 -30c28 0 54 5 96 21v309h142v-695z" />
    <glyph glyph-name="afii10042" unicode="&#x428;" horiz-adv-x="926" 
d="M215 695v-584h178v584h140v-584h178v584h140v-695h-776v695h140z" />
    <glyph glyph-name="afii10043" unicode="&#x429;" horiz-adv-x="946" 
d="M215 695v-584h178v584h140v-584h178v584h140v-581h72v-286h-135v172h-713v695h140z" />
    <glyph glyph-name="afii10044" unicode="&#x42a;" horiz-adv-x="706" 
d="M322 695v-259h91c56 0 124 -5 178 -50c59 -49 70 -117 70 -166c0 -55 -13 -130 -86 -179c-58 -39 -131 -41 -156 -41h-239v580h-170v115h312zM322 112h79c27 0 58 4 83 35c18 23 22 52 22 74c0 23 -3 55 -28 78c-26 24 -62 25 -77 25h-79v-212z" />
    <glyph glyph-name="afii10045" unicode="&#x42b;" horiz-adv-x="866" 
d="M75 695h142v-259h87c56 0 119 -3 175 -50c59 -50 70 -116 70 -166c0 -56 -13 -129 -86 -179c-50 -34 -109 -41 -153 -41h-235v695zM649 695h142v-695h-142v695zM217 112h75c30 0 65 13 83 34c16 19 22 47 22 76c0 20 -3 53 -28 76c-19 17 -50 26 -77 26h-75v-212z" />
    <glyph glyph-name="afii10046" unicode="&#x42c;" horiz-adv-x="601" 
d="M75 695h142v-259h91c78 0 248 -17 248 -216c0 -155 -111 -220 -242 -220h-239v695zM217 112h79c40 0 105 12 105 107c0 105 -78 105 -105 105h-79v-212z" />
    <glyph glyph-name="afii10047" unicode="&#x42d;" horiz-adv-x="575" 
d="M100 558l-63 94c40 28 98 55 187 55c48 0 151 -7 228 -99c72 -86 78 -200 78 -258c0 -73 -8 -181 -82 -266c-35 -40 -107 -96 -228 -96c-90 0 -152 29 -198 65l64 90c53 -41 100 -45 124 -45c76 0 115 35 131 58c21 30 31 83 31 121v33h-202v112h199l-1 22
c-1 15 -4 62 -31 99c-34 47 -89 54 -119 54c-39 0 -82 -12 -118 -39z" />
    <glyph glyph-name="afii10048" unicode="&#x42e;" horiz-adv-x="951" 
d="M75 695h139v-270h112c6 59 28 138 74 192c33 39 97 90 211 90c94 0 161 -35 211 -93c54 -63 84 -156 84 -266c0 -146 -52 -228 -84 -266c-50 -59 -117 -94 -211 -94c-115 0 -186 53 -229 115c-39 58 -60 137 -60 207h-108v-310h-139v695zM611 600c-71 0 -98 -47 -110 -74
c-11 -25 -27 -69 -27 -178s16 -153 27 -178c13 -29 39 -75 110 -75s97 46 110 75c11 25 27 69 27 178s-16 153 -27 178c-12 27 -39 74 -110 74z" />
    <glyph glyph-name="afii10049" unicode="&#x42f;" horiz-adv-x="624" 
d="M549 695v-695h-142v283h-59c-27 0 -52 -11 -67 -25c-14 -13 -28 -40 -33 -62l-16 -71c-7 -32 -14 -64 -33 -86c-25 -31 -63 -38 -84 -40l-79 -9l-26 97l21 6c11 3 33 12 40 16c21 12 27 31 33 51l23 79c8 27 22 54 40 71c15 14 38 26 56 32c-39 6 -78 26 -102 53
c-27 30 -40 74 -40 118c0 51 23 104 66 138c50 40 111 44 163 44h239zM407 583h-77c-21 0 -44 -1 -63 -12c-15 -9 -39 -30 -39 -77c0 -23 5 -52 21 -71c22 -27 55 -28 71 -28h87v188z" />
    <glyph glyph-name="afii10065" unicode="&#x430;" horiz-adv-x="522" 
d="M493 56l-71 -82c-24 10 -54 29 -72 62c-15 -14 -21 -20 -31 -27c-19 -14 -49 -28 -103 -28c-55 0 -99 14 -128 40c-24 22 -48 60 -48 120c0 66 24 119 89 149c41 19 102 27 155 27c11 0 22 0 32 -1v21c0 59 -12 77 -59 77c-53 0 -109 -29 -149 -59l-57 96
c33 21 56 31 82 42c44 18 77 31 137 31c103 0 150 -40 169 -90c8 -22 9 -63 9 -83v-9l-3 -172c0 -7 -1 -15 -1 -22c0 -29 6 -61 49 -92zM314 224h-6c-28 0 -78 -1 -102 -19c-21 -16 -23 -43 -23 -56c0 -43 24 -70 59 -70c26 0 52 14 70 35z" />
    <glyph glyph-name="afii10066" unicode="&#x431;" horiz-adv-x="551" 
d="M154 425h4c13 22 29 40 49 54c37 27 70 33 111 33c45 0 88 -12 134 -66c44 -52 59 -108 59 -190c0 -66 -11 -136 -62 -195c-55 -63 -123 -73 -170 -73c-34 0 -111 5 -171 72c-61 68 -63 160 -63 244c0 55 3 147 26 218c30 91 86 131 177 169l87 36c45 19 64 25 108 48
l45 -105c-42 -26 -77 -38 -114 -51c-87 -30 -117 -40 -140 -52c-25 -13 -54 -32 -68 -68c-9 -22 -12 -55 -12 -74zM278 414c-35 0 -51 -18 -58 -27c-21 -28 -27 -70 -27 -136c0 -65 6 -109 27 -137c16 -22 37 -28 58 -28s42 6 58 28c21 28 27 72 27 137c0 66 -6 108 -27 136
c-7 9 -23 27 -58 27z" />
    <glyph glyph-name="afii10067" unicode="&#x432;" horiz-adv-x="539" 
d="M75 512h237c35 0 72 -3 103 -24c17 -12 52 -43 52 -108c0 -32 -9 -54 -29 -76c-14 -16 -30 -26 -50 -33c30 -5 52 -20 66 -33c21 -20 35 -49 35 -90c0 -44 -17 -84 -42 -107c-17 -16 -56 -41 -130 -41h-242v512zM203 225v-140h53c25 0 54 0 74 18c17 15 19 35 19 53
c0 15 -2 39 -22 55c-15 12 -37 14 -54 14h-70zM203 427v-120h60c11 0 42 1 58 18c9 10 14 25 14 45c0 23 -9 38 -18 45c-10 8 -32 12 -47 12h-67z" />
    <glyph glyph-name="afii10068" unicode="&#x433;" horiz-adv-x="413" 
d="M207 0h-132v512h338l-14 -94h-192v-418z" />
    <glyph glyph-name="afii10069" unicode="&#x434;" horiz-adv-x="543" 
d="M523 94v-234h-125v140h-273v-140h-125v234h41c25 46 48 100 61 153c13 52 26 151 28 203l2 62h327v-418h64zM327 418h-97l-5 -70c-3 -37 -12 -94 -19 -124c-8 -35 -24 -88 -50 -130h171v324z" />
    <glyph glyph-name="afii10070" unicode="&#x435;" horiz-adv-x="516" 
d="M486 214h-296v-11c0 -37 13 -69 33 -88c23 -22 52 -27 77 -27c20 0 70 3 128 51l52 -80c-65 -54 -137 -71 -193 -71c-70 0 -131 25 -173 68c-38 40 -69 102 -69 201c0 97 26 154 64 197c50 56 105 70 161 70c69 0 117 -24 148 -55c63 -64 68 -166 68 -224v-31zM347 312v6
c0 27 -1 58 -19 82c-15 19 -36 26 -56 26c-24 0 -43 -9 -56 -25c-21 -25 -24 -62 -24 -87v-2h155z" />
    <glyph glyph-name="afii10072" unicode="&#x436;" horiz-adv-x="770" 
d="M321 500l128 25v-208h20c9 0 36 1 52 15c14 13 18 34 21 47l11 50c4 18 11 45 31 63c23 20 56 24 79 26l48 4l24 -91l-22 -5c-8 -2 -18 -4 -26 -10c-13 -10 -18 -25 -21 -34l-17 -46c-8 -23 -27 -57 -69 -64c49 -13 61 -44 72 -73l25 -63c5 -12 8 -26 25 -38
c8 -6 19 -10 30 -12l18 -4l-24 -92l-44 3c-34 2 -77 5 -102 33c-13 15 -24 41 -29 64l-17 71c-4 18 -13 39 -25 49c-11 9 -28 13 -49 13h-11v-223h-128v223h-11c-21 0 -38 -4 -49 -13c-12 -10 -21 -31 -25 -49l-17 -71c-5 -23 -16 -49 -29 -64c-25 -28 -68 -31 -102 -33
l-44 -3l-24 92l18 4c11 2 22 6 30 12c17 12 20 26 25 38l25 63c11 29 23 60 72 73c-42 7 -61 41 -69 64l-17 46c-3 9 -8 24 -21 34c-8 6 -18 8 -26 10l-22 5l24 91l48 -4c23 -2 56 -6 79 -26c20 -18 27 -45 31 -63l11 -50c3 -13 7 -34 21 -47c16 -14 43 -15 52 -15h20v183z
" />
    <glyph glyph-name="afii10073" unicode="&#x437;" horiz-adv-x="460" 
d="M148 314h52c21 0 40 7 50 19s12 29 12 38c0 17 -3 30 -17 41c-15 12 -33 14 -49 14c-32 0 -57 -9 -69 -15c-18 -8 -31 -19 -40 -27l-54 78c13 12 35 27 64 40c34 14 74 22 115 22s94 -8 133 -35c26 -18 56 -53 56 -112c0 -23 -5 -45 -15 -62c-7 -12 -23 -35 -56 -47
c36 -10 56 -32 63 -42c19 -26 22 -54 22 -76c0 -51 -21 -94 -69 -125c-44 -29 -100 -37 -148 -37c-66 0 -103 15 -131 33c-20 12 -36 27 -47 37l60 80c15 -16 31 -27 45 -35c22 -12 42 -17 64 -17c19 0 46 3 61 16c10 8 21 24 21 53c0 22 -5 43 -26 56c-18 11 -37 11 -59 11
h-38v92z" />
    <glyph glyph-name="afii10074" unicode="&#x438;" horiz-adv-x="574" 
d="M212 0h-137v500l132 25v-236c0 -36 -3 -86 -6 -117c14 33 40 96 57 128l104 200l137 25v-525h-132v186c0 46 1 89 6 147c-16 -49 -32 -85 -51 -121z" />
    <glyph glyph-name="afii10075" unicode="&#x439;" horiz-adv-x="574" 
d="M212 0h-137v500l132 25v-236c0 -36 -3 -86 -6 -117c14 33 40 96 57 128l104 200l137 25v-525h-132v186c0 46 1 89 6 147c-16 -49 -32 -85 -51 -121zM384 742l71 -29c-10 -37 -31 -69 -56 -88c-30 -23 -72 -33 -112 -33s-83 10 -112 33c-28 22 -47 59 -56 88l71 29
c8 -14 24 -29 36 -36c20 -12 39 -14 61 -14c20 0 43 2 62 14c12 7 28 23 35 36z" />
    <glyph glyph-name="afii10076" unicode="&#x43a;" horiz-adv-x="551" 
d="M75 500l132 25v-208h33c9 0 36 1 52 15c14 13 18 34 21 47l11 50c4 18 11 45 31 63c23 20 56 24 79 26l48 4l24 -91l-22 -5c-8 -2 -18 -4 -26 -10c-13 -10 -18 -25 -21 -34l-17 -46c-8 -23 -27 -57 -69 -64c49 -13 61 -44 72 -73l25 -63c5 -12 8 -26 25 -38
c8 -6 19 -10 30 -12l18 -4l-24 -92l-44 3c-34 2 -77 5 -102 33c-13 15 -24 41 -29 64l-17 71c-4 18 -13 39 -25 49c-11 9 -28 13 -49 13h-24v-223h-132v500z" />
    <glyph glyph-name="afii10077" unicode="&#x43b;" horiz-adv-x="532" 
d="M325 0v418h-91l-2 -43c-1 -21 1 -14 -6 -117c-4 -52 -7 -105 -19 -152c-7 -26 -17 -56 -42 -78c-20 -17 -48 -29 -93 -33l-50 -5l-24 92l25 7c11 3 37 13 52 35c5 8 13 24 20 61c6 32 12 93 15 134c4 52 5 84 6 129l2 64h339v-512h-132z" />
    <glyph glyph-name="afii10078" unicode="&#x43c;" horiz-adv-x="706" 
d="M658 0h-119l-21 266c-3 42 -3 71 -3 86c-6 -27 -18 -69 -22 -79l-94 -273h-102l-84 261c-7 21 -15 45 -24 91c0 -18 0 -48 -3 -93l-19 -259h-119l53 512h156l74 -253c8 -26 16 -48 21 -81c2 11 7 38 21 83l76 251h156z" />
    <glyph glyph-name="afii10079" unicode="&#x43d;" horiz-adv-x="552" 
d="M207 0h-132v500l132 25v-208h138v183l132 25v-525h-132v223h-138v-223z" />
    <glyph glyph-name="afii10080" unicode="&#x43e;" horiz-adv-x="546" 
d="M273 524c62 0 121 -18 170 -73c53 -60 63 -128 63 -195s-10 -135 -63 -195c-49 -55 -108 -73 -170 -73s-121 18 -170 73c-53 60 -63 128 -63 195s10 135 63 195c49 55 108 73 170 73zM273 426c-16 0 -40 -3 -58 -28c-21 -28 -27 -75 -27 -142s6 -114 27 -142
c18 -25 42 -28 58 -28s40 3 58 28c21 28 27 75 27 142s-6 114 -27 142c-18 25 -42 28 -58 28z" />
    <glyph glyph-name="afii10081" unicode="&#x43f;" horiz-adv-x="544" 
d="M207 0h-132v512h394v-512h-132v418h-130v-418z" />
    <glyph glyph-name="afii10082" unicode="&#x440;" horiz-adv-x="565" 
d="M67 501l122 21c6 -16 6 -26 9 -48c10 11 47 50 126 50c25 0 60 -5 101 -32c85 -57 95 -165 95 -232c0 -102 -22 -163 -71 -213c-21 -21 -65 -59 -137 -59c-19 0 -66 3 -107 28c2 -20 2 -26 2 -31v-171l-132 -35v593c0 84 -4 112 -8 129zM207 374v-249
c23 -18 51 -30 77 -30c40 0 63 24 73 44c11 23 17 67 17 118c0 68 -6 96 -13 113c-13 34 -37 43 -63 43c-41 0 -72 -21 -91 -39z" />
    <glyph glyph-name="afii10083" unicode="&#x441;" horiz-adv-x="465" 
d="M379 139l61 -81c-18 -19 -32 -30 -47 -38c-48 -28 -94 -32 -125 -32c-61 0 -115 17 -158 63c-54 58 -65 137 -65 201c0 163 85 224 105 237c38 25 95 35 130 35c50 0 81 -15 96 -23c18 -10 34 -20 50 -36l-65 -88c-33 31 -60 40 -84 40c-39 0 -58 -28 -67 -48
c-8 -17 -17 -51 -17 -127c0 -31 2 -92 26 -123c12 -15 34 -29 60 -29c19 0 36 6 49 12c19 9 32 21 43 30z" />
    <glyph glyph-name="afii10084" unicode="&#x442;" horiz-adv-x="401" 
d="M277 0h-132v418h-130v94h401l-18 -94h-121v-418z" />
    <glyph glyph-name="afii10085" unicode="&#x443;" horiz-adv-x="507" 
d="M366 512h141l-186 -520c-45 -126 -76 -153 -98 -169c-17 -13 -58 -38 -124 -47l-46 88c46 11 72 27 83 35c9 7 24 18 37 38c8 13 22 43 30 63h-34l-18 55c-4 13 -9 27 -14 40c-6 16 -11 33 -16 49l-121 360l137 16l89 -299c4 -15 19 -71 27 -105c3 15 12 66 16 81
c10 38 16 59 20 71z" />
    <glyph glyph-name="afii10086" unicode="&#x444;" horiz-adv-x="762" 
d="M447 16v-218h-132v218c-34 -25 -59 -28 -81 -28c-59 0 -103 26 -134 63c-50 60 -60 145 -60 208c0 52 5 143 61 209c32 37 70 56 119 56c38 0 69 -13 95 -33v218l132 32v-250c26 20 57 33 95 33c49 0 87 -19 119 -56c56 -66 61 -157 61 -209c0 -63 -10 -148 -60 -208
c-31 -37 -75 -63 -134 -63c-22 0 -47 3 -81 28zM315 121v268c-23 21 -41 28 -64 28c-20 0 -35 -5 -50 -28c-20 -32 -21 -79 -21 -124c0 -71 3 -107 19 -136c17 -31 37 -34 59 -34s33 4 57 26zM447 389v-268c24 -22 35 -26 57 -26s42 3 59 34c16 29 19 65 19 136
c0 45 -1 92 -21 124c-15 23 -30 28 -50 28c-23 0 -41 -7 -64 -28z" />
    <glyph glyph-name="afii10087" unicode="&#x445;" horiz-adv-x="510" 
d="M520 0h-170l-54 94c-9 16 -36 69 -40 76c-4 -12 -24 -55 -51 -99l-43 -71h-172l189 273l-142 215l139 39c38 -63 50 -85 69 -125c5 -10 12 -25 16 -34c3 8 18 44 45 100c8 17 20 38 24 44h158l-152 -236z" />
    <glyph glyph-name="afii10088" unicode="&#x446;" horiz-adv-x="559" 
d="M333 500l132 25v-431h64v-234h-125v140h-329v500l132 25v-431h126v406z" />
    <glyph glyph-name="afii10089" unicode="&#x447;" horiz-adv-x="497" 
d="M290 500l132 25v-525h-132v198c-31 -12 -68 -20 -100 -20c-55 0 -98 18 -121 46c-27 32 -29 70 -29 100v176l132 25v-188c0 -17 2 -37 16 -51c7 -7 20 -14 41 -14c18 0 41 5 61 15v213z" />
    <glyph glyph-name="afii10090" unicode="&#x448;" horiz-adv-x="782" 
d="M326 500l130 25v-435h121v410l130 25v-525h-632v500l130 25v-435h121v410z" />
    <glyph glyph-name="afii10091" unicode="&#x449;" horiz-adv-x="801" 
d="M326 500l130 25v-435h121v410l130 25v-431h64v-234h-125v140h-571v500l130 25v-435h121v410z" />
    <glyph glyph-name="afii10092" unicode="&#x44a;" 
d="M268 331h85c50 0 99 -14 131 -41c25 -21 51 -60 51 -131c0 -66 -28 -102 -52 -122c-31 -26 -76 -37 -120 -37h-227v418h-121l-10 94h263v-181zM268 239v-147h53c18 0 40 5 53 16c9 8 21 25 21 56c0 30 -9 47 -20 57c-12 11 -33 18 -58 18h-49z" />
    <glyph glyph-name="afii10093" unicode="&#x44b;" horiz-adv-x="755" 
d="M75 500l132 25v-194h75c50 0 99 -14 131 -41c25 -21 51 -60 51 -131c0 -66 -28 -102 -52 -122c-31 -26 -76 -37 -120 -37h-217v500zM548 500l132 25v-525h-132v500zM207 239v-147h49c18 0 40 5 53 16c9 8 21 25 21 56c0 30 -9 47 -20 57c-12 11 -33 18 -58 18h-45z" />
    <glyph glyph-name="afii10094" unicode="&#x44c;" horiz-adv-x="509" 
d="M75 500l132 25v-194h85c50 0 99 -14 131 -41c25 -21 51 -60 51 -131c0 -66 -28 -102 -52 -122c-31 -26 -76 -37 -120 -37h-227v500zM207 239v-147h53c18 0 40 5 53 16c9 8 21 25 21 56c0 30 -9 47 -20 57c-12 11 -33 18 -58 18h-49z" />
    <glyph glyph-name="afii10095" unicode="&#x44d;" horiz-adv-x="484" 
d="M168 223v94h128v13c0 25 -7 58 -23 75c-12 14 -36 24 -63 24c-21 0 -44 -5 -64 -15c-15 -7 -27 -16 -36 -25l-61 79c28 24 55 36 62 39c42 18 87 20 110 20c52 0 114 -11 160 -65c46 -53 63 -143 63 -207c0 -60 -12 -169 -98 -229c-22 -15 -63 -38 -139 -38
c-57 0 -98 17 -123 32c-15 9 -36 26 -49 38l61 77c7 -8 18 -17 31 -26c26 -17 52 -23 79 -23c36 0 60 14 72 29c9 11 18 33 18 81v27h-128z" />
    <glyph glyph-name="afii10096" unicode="&#x44e;" horiz-adv-x="770" 
d="M207 525v-208h79c6 44 22 95 47 127c24 31 80 78 170 78c84 0 137 -38 166 -71c47 -53 61 -123 61 -195c0 -74 -14 -140 -61 -194c-30 -33 -82 -72 -166 -72c-52 0 -124 14 -171 78c-28 37 -44 87 -49 155h-76v-223h-132v500zM502 424c-27 0 -45 -14 -55 -28
c-13 -18 -25 -54 -25 -140s12 -122 25 -140c10 -14 28 -28 55 -28s45 14 55 28c13 18 25 54 25 140s-12 122 -25 140c-10 14 -28 28 -55 28z" />
    <glyph glyph-name="afii10097" unicode="&#x44f;" horiz-adv-x="511" 
d="M461 512v-512h-132v195h-31c-14 0 -32 -1 -49 -15c-15 -13 -21 -31 -25 -47l-10 -43c-5 -22 -16 -50 -29 -64c-25 -28 -68 -31 -102 -33l-44 -3l-24 92l18 4c11 2 22 6 30 12c17 12 20 26 25 38l15 37c5 12 13 29 27 42c11 10 26 19 44 24c-36 4 -62 22 -77 39
c-16 18 -30 47 -30 88c0 60 29 95 52 112c41 31 102 34 129 34h213zM329 418h-49c-18 0 -41 -1 -58 -17c-15 -14 -18 -31 -18 -45c0 -29 5 -46 14 -56c10 -12 31 -20 58 -20h53v138z" />
    <glyph glyph-name="afii10071" unicode="&#x451;" horiz-adv-x="516" 
d="M486 214h-296v-11c0 -37 13 -69 33 -88c23 -22 52 -27 77 -27c20 0 70 3 128 51l52 -80c-65 -54 -137 -71 -193 -71c-70 0 -131 25 -173 68c-38 40 -69 102 -69 201c0 97 26 154 64 197c50 56 105 70 161 70c69 0 117 -24 148 -55c63 -64 68 -166 68 -224v-31zM450 635
c0 -41 -35 -77 -77 -77s-76 36 -76 77s35 77 78 77c41 0 75 -35 75 -77zM239 635c0 -41 -35 -77 -77 -77c-40 0 -76 36 -76 77s37 77 78 77s75 -36 75 -77zM347 312v6c0 27 -1 58 -19 82c-15 19 -36 26 -56 26c-24 0 -43 -9 -56 -25c-21 -25 -24 -62 -24 -87v-2h155z" />
    <glyph glyph-name="afii10099" unicode="&#x452;" horiz-adv-x="568" 
d="M76 718l132 32v-117h195l-23 -68h-172v-66l-2 -43c45 39 100 55 145 55c101 0 147 -53 147 -156v-301c0 -108 -28 -167 -63 -206c-13 -15 -42 -44 -98 -68l-56 74c14 13 38 39 49 55c35 50 36 115 36 141v279c0 52 -15 70 -50 70c-36 0 -78 -20 -108 -47v-352h-132v565
h-51v68h51v85z" />
    <glyph glyph-name="afii10100" unicode="&#x453;" horiz-adv-x="413" 
d="M207 0h-132v512h338l-14 -94h-192v-418zM382 658l-224 -100l-41 74l207 130z" />
    <glyph glyph-name="afii10101" unicode="&#x454;" horiz-adv-x="479" 
d="M316 223h-128v-27c0 -48 9 -70 18 -81c12 -15 36 -29 72 -29c27 0 53 6 79 23c13 9 24 18 31 26l61 -77c-13 -12 -34 -29 -49 -38c-25 -15 -66 -32 -123 -32c-76 0 -117 23 -139 38c-86 60 -98 169 -98 229c0 64 17 154 63 207c46 54 108 65 160 65c23 0 68 -2 110 -20
c7 -3 34 -15 62 -39l-61 -79c-9 9 -21 18 -36 25c-20 10 -43 15 -64 15c-27 0 -51 -10 -63 -24c-16 -17 -23 -50 -23 -75v-13h128v-94z" />
    <glyph glyph-name="afii10102" unicode="&#x455;" horiz-adv-x="487" 
d="M30 47l48 96c49 -30 122 -57 168 -57c21 0 39 6 52 20c10 10 15 24 15 37c0 16 -6 29 -14 37c-9 9 -26 19 -64 26l-59 11c-23 4 -67 17 -93 51c-27 35 -29 81 -29 91c0 40 14 93 68 130c34 23 79 35 125 35c77 0 142 -27 169 -40l15 -7l-44 -89c-64 34 -107 36 -124 36
c-15 0 -33 -2 -48 -14c-10 -8 -17 -19 -17 -35c0 -14 6 -23 13 -30c11 -10 38 -19 51 -22l61 -15c63 -15 84 -36 101 -58c21 -28 28 -53 28 -86c0 -58 -24 -97 -56 -124c-38 -32 -94 -52 -161 -52c-87 0 -168 39 -205 59z" />
    <glyph glyph-name="afii10103" unicode="&#x456;" horiz-adv-x="284" 
d="M208 0h-132v503l132 21v-524zM225 653c0 -46 -37 -83 -83 -83s-82 37 -82 83s38 83 84 83c45 0 81 -37 81 -83z" />
    <glyph glyph-name="afii10104" unicode="&#x457;" horiz-adv-x="284" 
d="M209 0h-134v503l134 21v-524zM324 635c0 -41 -35 -77 -77 -77s-76 36 -76 77s35 77 78 77c41 0 75 -35 75 -77zM113 635c0 -41 -35 -77 -77 -77c-40 0 -76 36 -76 77s37 77 78 77s75 -36 75 -77z" />
    <glyph glyph-name="afii10105" unicode="&#x458;" horiz-adv-x="283" 
d="M207 523v-509c0 -69 -9 -121 -37 -159c-23 -31 -63 -59 -104 -75l-56 74c24 20 41 44 49 58c14 25 16 54 16 98v481zM226 655c0 -46 -37 -84 -84 -84c-46 0 -82 36 -82 82s37 84 83 84s83 -36 83 -82z" />
    <glyph glyph-name="afii10106" unicode="&#x459;" horiz-adv-x="744" 
d="M452 331h75c50 0 99 -14 131 -41c25 -21 51 -60 51 -131c0 -66 -28 -102 -52 -122c-31 -26 -76 -37 -120 -37h-217v416h-86l-2 -41c-1 -24 1 -13 -6 -117c-4 -52 -7 -105 -19 -152c-7 -26 -17 -56 -42 -78c-20 -17 -48 -29 -93 -33l-50 -5l-24 92l25 7c11 3 37 13 52 35
c5 8 13 24 20 61c6 32 12 93 15 134c4 52 5 84 6 129l2 64h334v-181zM452 239v-147h49c18 0 40 5 53 16c9 8 21 25 21 56c0 30 -9 47 -20 57c-12 11 -33 18 -58 18h-45z" />
    <glyph glyph-name="afii10107" unicode="&#x45a;" horiz-adv-x="762" 
d="M470 323h75c49 0 100 -14 131 -39c32 -26 51 -65 51 -125c0 -66 -28 -102 -52 -122c-31 -26 -76 -37 -120 -37h-217v231h-131v-231h-132v500l132 25v-200h131v175l132 25v-202zM470 231v-139h49c19 0 40 5 53 16c12 10 21 26 21 53c0 28 -9 45 -20 54
c-17 15 -42 16 -58 16h-45z" />
    <glyph glyph-name="afii10108" unicode="&#x45b;" horiz-adv-x="568" 
d="M498 0h-132v329c0 39 -10 52 -14 57c-6 7 -17 13 -36 13c-36 0 -78 -20 -108 -47v-352h-132v565h-51v68h51v85l132 32v-117h195l-23 -68h-172v-66l-2 -43c45 39 100 55 145 55c36 0 81 -11 108 -36c28 -26 39 -69 39 -120v-355z" />
    <glyph glyph-name="afii10109" unicode="&#x45c;" horiz-adv-x="551" 
d="M75 500l132 25v-208h33c9 0 36 1 52 15c14 13 18 34 21 47l11 50c4 18 11 45 31 63c23 20 56 24 79 26l48 4l24 -91l-22 -5c-8 -2 -18 -4 -26 -10c-13 -10 -18 -25 -21 -34l-17 -46c-8 -23 -27 -57 -69 -64c49 -13 61 -44 72 -73l25 -63c5 -12 8 -26 25 -38
c8 -6 19 -10 30 -12l18 -4l-24 -92l-44 3c-34 2 -77 5 -102 33c-13 15 -24 41 -29 64l-17 71c-4 18 -13 39 -25 49c-11 9 -28 13 -49 13h-24v-223h-132v500zM408 657l-224 -100l-41 74l207 130z" />
    <glyph glyph-name="afii10110" unicode="&#x45e;" horiz-adv-x="507" 
d="M366 512h141l-186 -520c-45 -126 -76 -153 -98 -169c-17 -13 -58 -38 -124 -47l-46 88c46 11 72 27 83 35c9 7 24 18 37 38c8 13 22 43 30 63h-34l-18 55c-4 13 -9 27 -14 40c-6 16 -11 33 -16 49l-121 360l137 16l89 -299c4 -15 19 -71 27 -105c3 15 12 66 16 81
c10 38 16 59 20 71zM331 745l71 -29c-10 -37 -31 -69 -56 -88c-30 -23 -72 -33 -112 -33s-83 10 -112 33c-28 22 -47 59 -56 88l71 29c8 -14 24 -29 36 -36c20 -12 39 -14 61 -14c20 0 43 2 62 14c12 7 28 23 35 36z" />
    <glyph glyph-name="afii10193" unicode="&#x45f;" horiz-adv-x="540" 
d="M333 500l132 25v-525h-133v-140h-124v140h-133v500l132 25v-431h126v406z" />
    <glyph glyph-name="afii10050" unicode="&#x490;" horiz-adv-x="474" 
d="M75 695h254v87h135v-202h-247v-580h-142v695z" />
    <glyph glyph-name="afii10098" unicode="&#x491;" horiz-adv-x="428" 
d="M207 0h-132v512h222v97h121v-191h-211v-418z" />
    <glyph glyph-name="endash" unicode="&#x2013;" horiz-adv-x="577" 
d="M532 223h-487v103h487v-103z" />
    <glyph glyph-name="emdash" unicode="&#x2014;" horiz-adv-x="803" 
d="M758 223h-713v103h713v-103z" />
    <glyph glyph-name="afii00208" unicode="&#x2015;" horiz-adv-x="803" 
d="M758 223h-713v103h713v-103z" />
    <glyph glyph-name="quoteleft" unicode="&#x2018;" horiz-adv-x="269" 
d="M234 661c-44 -10 -72 -32 -72 -57c0 -13 6 -21 26 -32c27 -15 39 -38 39 -70c0 -48 -39 -86 -87 -86c-58 0 -100 51 -100 120c0 87 57 160 141 181z" />
    <glyph glyph-name="quoteright" unicode="&#x2019;" horiz-adv-x="269" 
d="M229 591c0 -86 -57 -159 -141 -180l-53 55c43 11 72 33 72 57c0 13 -6 20 -26 32c-27 16 -39 38 -39 70c0 48 38 86 87 86c58 0 100 -50 100 -120z" />
    <glyph glyph-name="quotesinglbase" unicode="&#x201a;" horiz-adv-x="269" 
d="M229 36c0 -87 -57 -160 -141 -181l-53 56c44 10 72 33 72 57c0 13 -6 20 -26 32c-27 16 -39 38 -39 70c0 48 39 86 87 86c58 0 100 -50 100 -120z" />
    <glyph glyph-name="quotedblleft" unicode="&#x201c;" horiz-adv-x="494" 
d="M234 662c-44 -10 -72 -32 -72 -57c0 -13 6 -20 26 -32c27 -16 39 -38 39 -70c0 -48 -39 -86 -88 -86c-57 0 -99 50 -99 120c0 87 57 160 141 181zM459 662c-43 -10 -71 -32 -71 -57c0 -13 5 -19 26 -32c26 -16 39 -38 39 -70c0 -48 -39 -86 -88 -86c-58 0 -99 50 -99 120
c0 87 57 160 140 181z" />
    <glyph glyph-name="quotedblright" unicode="&#x201d;" horiz-adv-x="494" 
d="M229 591c0 -86 -57 -159 -141 -180l-53 55c43 11 72 33 72 57c0 13 -6 20 -26 32c-27 16 -39 38 -39 70c0 48 38 86 87 86c58 0 100 -50 100 -120zM454 591c0 -86 -56 -159 -140 -180l-53 55c43 11 71 33 71 57c0 13 -5 20 -25 32c-27 16 -39 38 -39 70c0 48 38 86 87 86
c58 0 99 -50 99 -120z" />
    <glyph glyph-name="quotedblbase" unicode="&#x201e;" horiz-adv-x="495" 
d="M455 36c0 -87 -57 -160 -141 -181l-53 56c43 10 71 33 71 57c0 13 -5 20 -25 32c-27 16 -39 38 -39 70c0 48 38 86 87 86c58 0 100 -50 100 -120zM229 36c0 -87 -57 -160 -141 -181l-53 56c44 10 72 33 72 57c0 13 -6 20 -26 32c-27 16 -39 38 -39 70c0 48 39 86 87 86
c58 0 100 -50 100 -120z" />
    <glyph glyph-name="dagger" unicode="&#x2020;" horiz-adv-x="494" 
d="M469 545l-23 -121h-139v-424h-132v424h-150v121h150v150h132v-150h162z" />
    <glyph glyph-name="daggerdbl" unicode="&#x2021;" horiz-adv-x="506" 
d="M481 545l-23 -121h-139v-153h150v-121h-150v-150h-132v150h-162l23 121h139v153h-150v121h150v150h132v-150h162z" />
    <glyph glyph-name="bullet" unicode="&#x2022;" horiz-adv-x="484" 
d="M419 354c0 -98 -79 -177 -177 -177s-177 79 -177 177s79 177 177 177s177 -79 177 -177z" />
    <glyph glyph-name="ellipsis" unicode="&#x2026;" horiz-adv-x="786" 
d="M731 73c0 -49 -40 -89 -88 -89c-49 0 -88 40 -88 89c0 48 39 87 87 87c49 0 89 -39 89 -87zM481 73c0 -49 -40 -89 -88 -89c-49 0 -88 40 -88 89c0 48 39 87 87 87c49 0 89 -39 89 -87zM231 73c0 -49 -40 -89 -88 -89c-49 0 -88 40 -88 89c0 48 39 87 87 87
c49 0 89 -39 89 -87z" />
    <glyph glyph-name="perthousand" unicode="&#x2030;" horiz-adv-x="1220" 
d="M815 164c0 -57 -14 -96 -47 -128c-30 -29 -67 -46 -125 -46c-103 0 -169 67 -169 172c0 104 67 174 169 174c54 0 95 -16 127 -48c33 -33 45 -70 45 -124zM1185 164c0 -57 -14 -96 -47 -128c-30 -29 -67 -46 -125 -46c-103 0 -169 67 -169 172c0 104 67 174 169 174
c54 0 95 -16 128 -49c31 -31 44 -69 44 -123zM376 533c0 -57 -14 -96 -47 -128c-30 -29 -67 -46 -125 -46c-103 0 -169 67 -169 172c0 104 67 174 169 174c54 0 95 -17 125 -47c34 -34 47 -71 47 -125zM655 695l-364 -695h-95l364 695h95zM704 166c0 40 -6 66 -20 80
c-10 10 -25 16 -42 16c-23 0 -42 -11 -50 -30c-7 -17 -9 -37 -9 -67c0 -35 2 -61 11 -75s27 -25 50 -25c42 0 60 30 60 101zM1074 166c0 40 -6 66 -20 80c-10 10 -25 16 -42 16c-23 0 -42 -11 -50 -30c-7 -17 -9 -37 -9 -67c0 -35 2 -61 11 -75s27 -25 50 -25
c42 0 60 30 60 101zM265 535c0 40 -6 66 -20 80c-10 10 -25 16 -42 16c-23 0 -42 -11 -50 -30c-7 -17 -9 -37 -9 -67c0 -35 2 -61 11 -75s27 -25 50 -25c42 0 60 30 60 101z" />
    <glyph glyph-name="guilsinglleft" unicode="&#x2039;" horiz-adv-x="310" 
d="M280 76l-91 -61l-159 234l159 234l91 -61l-116 -173z" />
    <glyph glyph-name="guilsinglright" unicode="&#x203a;" horiz-adv-x="310" 
d="M280 249l-159 -234l-91 61l116 173l-116 173l91 61z" />
    <glyph glyph-name="fraction" unicode="&#x2044;" horiz-adv-x="266" 
d="M451 764l-528 -918h-108l528 918h108z" />
    <glyph glyph-name="uni2070" unicode="&#x2070;" horiz-adv-x="345" 
d="M325 460c0 -122 -60 -208 -153 -208c-96 0 -152 85 -152 206c0 123 59 208 152 208c96 0 153 -85 153 -206zM215 457c0 119 -24 134 -43 134c-37 0 -43 -54 -43 -130c0 -119 24 -134 43 -134c37 0 43 54 43 130z" />
    <glyph glyph-name="uni2074" unicode="&#x2074;" horiz-adv-x="356" 
d="M336 321h-37l-7 1c0 -3 1 -7 1 -11v-75l-96 -11v91l1 5h-178v63l109 267h105l-84 -207c-6 -14 -13 -27 -19 -38h69c0 50 6 91 11 141l82 18v-104c0 -13 1 -39 0 -49l-1 -7c3 0 7 1 9 1h35v-85z" />
    <glyph glyph-name="uni2075" unicode="&#x2075;" horiz-adv-x="316" 
d="M296 387c0 -92 -85 -155 -199 -155c-20 0 -27 0 -53 5l-24 79c39 -10 55 -12 71 -12c60 0 98 32 98 74c0 31 -21 53 -55 53c-23 0 -46 -2 -98 -18l20 236h226l-15 -84h-117l-7 -58c5 1 10 1 17 1c79 0 136 -50 136 -121z" />
    <glyph glyph-name="uni2076" unicode="&#x2076;" horiz-adv-x="351" 
d="M331 382c0 -80 -66 -140 -150 -140c-94 0 -161 72 -161 171c0 120 85 200 189 247c24 11 32 14 65 24l23 -73c-65 -25 -118 -46 -152 -109c13 5 32 11 48 11c78 0 138 -57 138 -131zM227 381c0 33 -18 52 -45 52c-21 0 -40 -7 -53 -14c-1 -9 -1 -22 -1 -31
c0 -46 20 -69 49 -69s50 22 50 62z" />
    <glyph glyph-name="uni2077" unicode="&#x2077;" horiz-adv-x="341" 
d="M321 649l-16 -80c-23 -31 -43 -63 -60 -93c-11 -20 -60 -117 -72 -173l-12 -58l-110 -26c25 98 53 181 101 270c18 34 32 55 45 73l-10 -1h-167l23 88h278z" />
    <glyph glyph-name="uni2078" unicode="&#x2078;" horiz-adv-x="369" 
d="M349 364c0 -57 -43 -104 -105 -119c-20 -5 -44 -7 -66 -7c-41 0 -72 7 -100 23c-38 22 -58 55 -58 96c0 40 23 78 58 98c-30 20 -47 51 -47 86c0 70 65 115 154 115c84 0 148 -43 148 -109c0 -36 -23 -68 -59 -85c43 -20 75 -49 75 -98zM238 353c0 16 -5 29 -18 37
c-14 9 -35 17 -61 26c-20 -12 -30 -32 -30 -53c0 -30 21 -51 58 -51c32 0 51 19 51 41zM224 549c0 19 -13 33 -45 33c-29 0 -45 -15 -45 -34c0 -25 31 -39 51 -47c19 9 39 26 39 48z" />
    <glyph glyph-name="uni2079" unicode="&#x2079;" horiz-adv-x="349" 
d="M329 490c0 -80 -34 -146 -102 -201c-37 -30 -87 -58 -137 -75l-59 64c67 17 131 63 158 103c-9 -2 -20 -6 -30 -6c-79 0 -139 59 -139 137c0 83 66 144 155 144c96 0 154 -64 154 -166zM222 511c0 46 -20 68 -48 68c-26 0 -47 -22 -47 -64c0 -38 21 -62 51 -62
c16 0 27 4 39 11c3 12 5 32 5 47z" />
    <glyph glyph-name="uni2080" unicode="&#x2080;" horiz-adv-x="345" 
d="M325 -50c0 -122 -60 -208 -153 -208c-96 0 -152 85 -152 206c0 123 59 208 152 208c96 0 153 -85 153 -206zM215 -53c0 119 -24 134 -43 134c-37 0 -43 -54 -43 -130c0 -119 24 -134 43 -134c37 0 43 54 43 130z" />
    <glyph glyph-name="uni2081" unicode="&#x2081;" horiz-adv-x="294" 
d="M274 -250h-215v81h64v208c-21 -11 -45 -24 -75 -34l-28 56l134 89h68v-319h52v-81z" />
    <glyph glyph-name="uni2082" unicode="&#x2082;" horiz-adv-x="354" 
d="M334 -167l-23 -83h-275v67c26 24 76 71 103 100c53 55 62 88 62 111c0 34 -16 42 -39 42c-22 0 -45 -10 -86 -42l-56 63c52 44 100 65 165 65c77 0 127 -49 127 -119c0 -77 -90 -155 -146 -205c12 0 25 1 35 1h133z" />
    <glyph glyph-name="uni2083" unicode="&#x2083;" horiz-adv-x="346" 
d="M326 -124c0 -88 -96 -144 -222 -144c-19 0 -27 0 -57 4l-27 74c35 -6 43 -7 61 -7c82 0 130 35 130 79c0 41 -41 41 -72 41h-40v81c17 -2 34 -4 51 -4c42 0 57 17 57 39c0 19 -11 33 -41 33c-37 0 -66 -16 -91 -36l-54 64c46 34 95 56 155 56c78 0 140 -45 140 -109
c0 -36 -17 -64 -47 -84c36 -18 57 -49 57 -87z" />
    <glyph glyph-name="uni2084" unicode="&#x2084;" horiz-adv-x="356" 
d="M336 -179h-37l-7 1c0 -3 1 -7 1 -11v-75l-96 -11v91l1 5h-178v63l109 267h105l-84 -207c-6 -14 -13 -27 -19 -38h69c0 50 6 91 11 141l82 18v-104c0 -13 1 -39 0 -49l-1 -7c3 0 7 1 9 1h35v-85z" />
    <glyph glyph-name="uni2085" unicode="&#x2085;" horiz-adv-x="316" 
d="M296 -113c0 -92 -85 -155 -199 -155c-20 0 -27 0 -53 5l-24 79c39 -10 55 -12 71 -12c60 0 98 32 98 74c0 31 -21 53 -55 53c-23 0 -46 -2 -98 -18l20 236h226l-15 -84h-117l-7 -58c5 1 10 1 17 1c79 0 136 -50 136 -121z" />
    <glyph glyph-name="uni2086" unicode="&#x2086;" horiz-adv-x="351" 
d="M331 -118c0 -80 -66 -140 -150 -140c-94 0 -161 72 -161 171c0 120 85 200 189 247c24 11 32 14 65 24l23 -73c-65 -25 -118 -46 -152 -109c13 5 32 11 48 11c78 0 138 -57 138 -131zM227 -119c0 33 -18 52 -45 52c-21 0 -40 -7 -53 -14c-1 -9 -1 -22 -1 -31
c0 -46 20 -69 49 -69s50 22 50 62z" />
    <glyph glyph-name="uni2087" unicode="&#x2087;" horiz-adv-x="341" 
d="M321 149l-16 -80c-23 -31 -43 -63 -60 -93c-11 -20 -60 -117 -72 -173l-12 -58l-110 -26c25 98 53 181 101 270c18 34 32 55 45 73l-10 -1h-167l23 88h278z" />
    <glyph glyph-name="uni2088" unicode="&#x2088;" horiz-adv-x="369" 
d="M349 -136c0 -57 -43 -104 -105 -119c-20 -5 -44 -7 -66 -7c-41 0 -72 7 -100 23c-38 22 -58 55 -58 96c0 40 23 78 58 98c-30 20 -47 51 -47 86c0 70 65 115 154 115c84 0 148 -43 148 -109c0 -36 -23 -68 -59 -85c43 -20 75 -49 75 -98zM238 -147c0 16 -5 29 -18 37
c-14 9 -35 17 -61 26c-20 -12 -30 -32 -30 -53c0 -30 21 -51 58 -51c32 0 51 19 51 41zM224 49c0 19 -13 33 -45 33c-29 0 -45 -15 -45 -34c0 -25 31 -39 51 -47c19 9 39 26 39 48z" />
    <glyph glyph-name="uni2089" unicode="&#x2089;" horiz-adv-x="349" 
d="M329 -10c0 -80 -34 -146 -102 -201c-37 -30 -87 -58 -137 -75l-59 64c67 17 131 63 158 103c-9 -2 -20 -6 -30 -6c-79 0 -139 59 -139 137c0 83 66 144 155 144c96 0 154 -64 154 -166zM222 11c0 46 -20 68 -48 68c-26 0 -47 -22 -47 -64c0 -38 21 -62 51 -62
c16 0 27 4 39 11c3 12 5 32 5 47z" />
    <glyph glyph-name="Euro" unicode="&#x20ac;" horiz-adv-x="634" 
d="M609 33c-48 -30 -84 -45 -163 -45c-96 0 -170 31 -227 96c-33 37 -56 81 -70 132h-114v98h100v19c0 20 0 40 2 58h-102v98h122c7 21 15 41 25 60c54 101 154 161 266 161c69 0 115 -17 146 -35l-33 -115c-35 26 -72 39 -111 39c-47 0 -93 -23 -118 -60
c-10 -14 -17 -31 -23 -50h193v-98h-208c0 -10 -1 -20 -1 -31c0 -17 0 -32 1 -46h208v-98h-196c4 -16 9 -30 16 -42c28 -51 74 -78 134 -78c41 0 78 12 119 45z" />
    <glyph glyph-name="afii61352" unicode="&#x2116;" horiz-adv-x="992" 
d="M544 0h-137l-117 274c-30 64 -73 163 -96 228c6 -72 7 -147 7 -182v-320h-126v695h144l130 -289c53 -110 69 -152 81 -197c-4 57 -6 92 -12 191v295h126v-695zM922 530c0 -44 -9 -89 -40 -124c-22 -24 -57 -44 -106 -44c-78 0 -143 55 -143 165c0 56 20 102 45 129
c32 35 69 39 98 39c32 0 73 -6 109 -47c30 -34 37 -76 37 -118zM832 531c0 49 -5 73 -17 87c-5 5 -15 15 -36 15c-29 0 -42 -23 -46 -33c-6 -14 -9 -41 -9 -70c0 -24 3 -59 11 -78c10 -23 31 -30 44 -30c14 0 27 7 35 17c11 14 18 36 18 92zM916 201h-277v61h277v-61z" />
    <glyph glyph-name="uni2117" unicode="&#x2117;" horiz-adv-x="834" 
d="M789 354c0 -205 -167 -372 -372 -372s-372 167 -372 372s167 372 372 372s372 -167 372 -372zM687 354c0 155 -121 282 -270 282s-270 -127 -270 -282s121 -282 270 -282s270 127 270 282zM586 431c0 -51 -26 -94 -72 -114c-19 -9 -37 -13 -80 -13h-32v-133h-97v382h110
c66 0 88 -8 111 -20c39 -21 60 -57 60 -102zM482 429c0 30 -16 46 -42 46h-38v-92h30c30 0 36 3 43 14c5 8 7 16 7 32z" />
    <glyph glyph-name="trademark" unicode="&#x2122;" horiz-adv-x="1030" 
d="M965 296h-108v268h-2l-98 -268h-70l-98 268h-2v-268h-108v412h145l98 -268l98 268h145v-412zM391 612h-119v-316h-108v316h-119v96h346v-96z" />
    <glyph glyph-name="Omega" unicode="&#x2126;" horiz-adv-x="704" 
d="M659 0h-258v83c74 30 125 81 125 233c0 97 -14 145 -36 192c-21 45 -70 83 -140 83c-57 0 -111 -27 -134 -71c-23 -42 -40 -80 -40 -161c0 -184 56 -246 127 -277v-82h-258v89h95c-61 59 -91 151 -91 253c0 123 35 196 93 260c50 57 126 87 210 87
c128 0 197 -64 232 -116c44 -67 70 -130 70 -245c0 -104 -35 -186 -91 -239h96v-89z" />
    <glyph glyph-name="arrowleft" unicode="&#x2190;" horiz-adv-x="1211" 
d="M1186 274c0 -47 -37 -85 -84 -85s-85 38 -85 85s38 84 85 84s84 -37 84 -84zM458 -97c0 -47 -37 -84 -84 -84s-85 37 -85 84s38 85 85 85s84 -38 84 -85zM326 88c0 -47 -37 -84 -84 -84s-85 37 -85 84s38 85 85 85s84 -38 84 -85zM194 274c0 -47 -37 -85 -84 -85
s-85 38 -85 85s38 84 85 84s84 -37 84 -84zM442 274c0 -47 -37 -85 -84 -85s-85 38 -85 85s38 84 85 84s84 -37 84 -84zM326 459c0 -47 -37 -85 -84 -85s-85 38 -85 85s38 84 85 84s84 -37 84 -84zM690 274c0 -47 -37 -85 -84 -85s-85 38 -85 85s38 84 85 84s84 -37 84 -84z
M458 644c0 -47 -37 -85 -84 -85s-85 38 -85 85s38 84 85 84s84 -37 84 -84zM938 274c0 -47 -37 -85 -84 -85s-85 38 -85 85s38 84 85 84s84 -37 84 -84z" />
    <glyph glyph-name="arrowup" unicode="&#x2191;" horiz-adv-x="1211" 
d="M1060 505c0 -47 -37 -84 -84 -84s-85 37 -85 84s38 85 85 85s84 -38 84 -85zM690 -223c0 -47 -38 -84 -85 -84s-84 37 -84 84s37 85 84 85s85 -38 85 -85zM690 25c0 -47 -38 -84 -85 -84s-84 37 -84 84s37 85 84 85s85 -38 85 -85zM320 505c0 -47 -38 -84 -85 -84
s-84 37 -84 84s37 85 84 85s85 -38 85 -85zM690 273c0 -47 -38 -84 -85 -84s-84 37 -84 84s37 85 84 85s85 -38 85 -85zM505 637c0 -47 -38 -84 -85 -84s-84 37 -84 84s37 85 84 85s85 -38 85 -85zM690 521c0 -47 -38 -84 -85 -84s-84 37 -84 84s37 85 84 85s85 -38 85 -85z
M690 769c0 -47 -38 -84 -85 -84s-84 37 -84 84s37 85 84 85s85 -38 85 -85zM875 637c0 -47 -37 -84 -84 -84s-85 37 -85 84s38 85 85 85s84 -38 84 -85z" />
    <glyph glyph-name="arrowright" unicode="&#x2192;" horiz-adv-x="1211" 
d="M922 644c0 -47 -38 -85 -85 -85s-84 38 -84 85s37 84 84 84s85 -37 85 -84zM194 274c0 -47 -38 -85 -85 -85s-84 38 -84 85s37 84 84 84s85 -37 85 -84zM442 274c0 -47 -38 -85 -85 -85s-84 38 -84 85s37 84 84 84s85 -37 85 -84zM922 -97c0 -47 -38 -84 -85 -84
s-84 37 -84 84s37 85 84 85s85 -38 85 -85zM690 274c0 -47 -38 -85 -85 -85s-84 38 -84 85s37 84 84 84s85 -37 85 -84zM1054 88c0 -47 -38 -84 -85 -84s-84 37 -84 84s37 85 84 85s85 -38 85 -85zM938 274c0 -47 -38 -85 -85 -85s-84 38 -84 85s37 84 84 84s85 -37 85 -84z
M1186 274c0 -47 -38 -85 -85 -85s-84 38 -84 85s37 84 84 84s85 -37 85 -84zM1054 459c0 -47 -38 -85 -85 -85s-84 38 -84 85s37 84 84 84s85 -37 85 -84z" />
    <glyph glyph-name="arrowdown" unicode="&#x2193;" horiz-adv-x="1211" 
d="M690 770c0 -47 -38 -85 -85 -85s-84 38 -84 85s37 84 84 84s85 -37 85 -84zM320 42c0 -47 -38 -85 -85 -85s-84 38 -84 85s37 84 84 84s85 -37 85 -84zM505 -90c0 -47 -38 -85 -85 -85s-84 38 -84 85s37 84 84 84s85 -37 85 -84zM690 -222c0 -47 -38 -85 -85 -85
s-84 38 -84 85s37 84 84 84s85 -37 85 -84zM690 26c0 -47 -38 -85 -85 -85s-84 38 -84 85s37 84 84 84s85 -37 85 -84zM875 -90c0 -47 -37 -85 -84 -85s-85 38 -85 85s38 84 85 84s84 -37 84 -84zM690 274c0 -47 -38 -85 -85 -85s-84 38 -84 85s37 84 84 84s85 -37 85 -84z
M1060 42c0 -47 -37 -85 -84 -85s-85 38 -85 85s38 84 85 84s84 -37 84 -84zM690 522c0 -47 -38 -85 -85 -85s-84 38 -84 85s37 84 84 84s85 -37 85 -84z" />
    <glyph glyph-name="uni2196" unicode="&#x2196;" horiz-adv-x="1211" 
d="M841 83c16 -16 24 -38 24 -59c0 -22 -8 -44 -25 -61s-39 -25 -60 -25c-22 0 -43 8 -59 25c-17 16 -25 38 -25 60s8 43 25 60c16 16 38 25 60 25s43 -9 60 -25zM240 161c16 -16 24 -38 24 -59c0 -22 -8 -44 -25 -61s-39 -25 -60 -25c-22 0 -43 8 -59 25
c-17 16 -25 38 -25 60s8 43 25 60c16 16 38 25 60 25s43 -9 60 -25zM490 314c-17 -17 -39 -25 -60 -25c-22 0 -43 8 -59 25c-17 17 -25 39 -25 61c0 21 8 43 24 59s38 25 60 25s43 -9 60 -25c16 -17 25 -38 25 -60s-9 -44 -25 -60zM277 265c-17 -17 -39 -25 -60 -25
c-22 0 -43 8 -59 25c-17 17 -25 39 -25 61c0 21 8 43 24 59s38 25 60 25s43 -9 60 -25c16 -17 25 -38 25 -60s-9 -44 -25 -60zM1016 -212c-17 -17 -39 -25 -60 -25c-22 0 -43 8 -59 25c-17 17 -25 39 -25 61c0 21 8 43 24 59s38 25 60 25s43 -9 60 -25c16 -17 25 -38 25 -60
s-9 -44 -25 -60zM763 565c-17 -17 -38 -25 -60 -25c-21 0 -43 8 -59 24c-17 16 -25 38 -25 60s8 44 25 61c16 16 38 24 59 24c22 0 43 -8 60 -25c16 -17 25 -39 25 -60c0 -22 -9 -43 -25 -59zM666 258c16 -16 24 -38 24 -59c0 -22 -8 -43 -25 -60s-39 -25 -60 -25
c-22 0 -43 8 -59 25c-17 17 -25 38 -25 60c0 21 8 43 24 59s38 25 60 25s44 -9 61 -25zM315 609c16 -16 24 -38 24 -59c0 -22 -8 -43 -25 -60s-39 -25 -60 -25c-22 0 -43 8 -59 25c-17 16 -25 37 -25 59c0 21 8 43 25 60c16 16 38 25 60 25s43 -9 60 -25zM539 528
c-17 -17 -38 -25 -60 -25c-21 0 -43 8 -59 24c-17 16 -25 38 -25 60s8 43 25 60c16 16 38 24 59 24c22 0 43 -8 60 -25c16 -17 25 -38 25 -59s-9 -43 -25 -59z" />
    <glyph glyph-name="uni2197" unicode="&#x2197;" horiz-adv-x="1211" 
d="M979 385c16 -16 24 -38 24 -59c0 -22 -8 -44 -25 -61s-39 -25 -60 -25c-22 0 -43 8 -59 25c-17 16 -25 38 -25 60s8 43 25 60c16 16 38 25 60 25s43 -9 60 -25zM240 -92c16 -16 24 -38 24 -59c0 -22 -8 -44 -25 -61s-39 -25 -60 -25c-22 0 -43 8 -59 25
c-17 16 -25 38 -25 60s8 43 25 60c16 16 38 25 60 25s43 -9 60 -25zM415 -37c-17 -17 -39 -25 -60 -25c-22 0 -43 8 -59 25c-17 17 -25 39 -25 61c0 21 8 43 24 59s38 25 60 25s43 -9 60 -25c16 -17 25 -38 25 -60s-9 -44 -25 -60zM1016 41c-17 -17 -39 -25 -60 -25
c-22 0 -43 8 -59 25c-17 17 -25 39 -25 61c0 21 8 43 24 59s38 25 60 25s43 -9 60 -25c16 -17 25 -38 25 -60s-9 -44 -25 -60zM591 258c16 -16 24 -38 24 -59c0 -22 -8 -43 -25 -60s-39 -25 -60 -25c-22 0 -43 8 -59 25c-17 17 -25 38 -25 60c0 21 8 43 24 59s38 25 60 25
s44 -9 61 -25zM492 564c-16 -16 -38 -24 -59 -24c-22 0 -43 8 -60 25c-17 16 -25 37 -25 59c0 21 8 43 25 60s38 25 60 25c21 0 43 -8 59 -24c16 -17 25 -39 25 -61s-9 -44 -25 -60zM717 527c-16 -16 -38 -24 -59 -24c-22 0 -44 8 -61 25c-17 16 -25 38 -25 59s8 42 25 59
s39 25 61 25c21 0 43 -8 59 -24c16 -17 25 -38 25 -60s-9 -44 -25 -60zM766 434c16 -16 24 -38 24 -59c0 -22 -8 -44 -25 -61s-38 -25 -59 -25s-43 8 -59 25c-17 17 -25 39 -25 61c0 21 8 43 24 59s38 25 60 25s43 -9 60 -25zM941 490c-17 -17 -39 -25 -60 -25
c-22 0 -43 8 -59 25c-17 17 -25 38 -25 60c0 21 8 43 24 59s38 25 60 25s43 -9 60 -25c16 -17 25 -39 25 -60c0 -22 -9 -43 -25 -59z" />
    <glyph glyph-name="uni2198" unicode="&#x2198;" horiz-adv-x="1211" 
d="M591 214c-17 -17 -39 -25 -61 -25s-44 8 -60 25c-16 16 -24 38 -24 59c0 22 8 44 25 61c16 16 37 25 59 25c21 0 43 -9 60 -25c17 -17 25 -39 25 -61c0 -21 -8 -43 -24 -59zM717 -175c-16 -16 -38 -24 -59 -24c-22 0 -44 8 -61 25c-17 16 -25 37 -25 59c0 21 8 43 25 60
c16 16 38 25 60 25s43 -9 60 -25c16 -17 25 -38 25 -60s-9 -44 -25 -60zM415 389c-17 -17 -38 -25 -60 -25s-44 8 -60 25c-16 16 -24 38 -24 59c0 22 8 44 25 61c16 16 37 25 59 25c21 0 43 -9 60 -25c16 -17 25 -38 25 -60s-9 -44 -25 -60zM941 -137
c-17 -17 -38 -25 -60 -25s-44 8 -60 25c-16 16 -24 38 -24 59c0 22 8 44 25 61c16 16 37 25 59 25c21 0 43 -9 60 -25c16 -17 25 -38 25 -60s-9 -44 -25 -60zM492 -212c-17 -17 -39 -25 -60 -25c-22 0 -43 8 -59 25c-17 16 -25 37 -25 59c0 21 8 43 25 60s38 25 60 25
c21 0 43 -8 59 -24c16 -17 25 -38 25 -60s-9 -44 -25 -60zM240 565c-17 -17 -38 -25 -60 -25s-44 8 -60 25c-17 16 -25 37 -25 59c0 21 8 43 25 60c16 16 37 25 59 25c21 0 43 -9 60 -25c17 -17 25 -38 25 -60c0 -21 -8 -43 -24 -59zM979 88c-17 -17 -38 -25 -60 -25
s-44 8 -60 25c-17 16 -25 37 -25 59c0 21 8 43 25 60c16 16 37 25 59 25c21 0 43 -9 60 -25c17 -17 25 -38 25 -60c0 -21 -8 -43 -24 -59zM1016 312c-17 -17 -38 -25 -60 -25s-44 8 -60 25c-16 16 -24 38 -24 59c0 22 8 43 25 60c16 16 37 25 59 25c21 0 43 -9 60 -25
c16 -17 25 -39 25 -60c0 -22 -9 -43 -25 -59zM766 39c-17 -17 -38 -25 -60 -25s-44 8 -60 25c-16 16 -24 38 -24 59c0 22 8 43 25 60c16 16 38 25 59 25s42 -9 59 -25c17 -17 25 -38 25 -60c0 -21 -8 -43 -24 -59z" />
    <glyph glyph-name="uni2199" unicode="&#x2199;" horiz-adv-x="1211" 
d="M666 214c-17 -17 -39 -25 -61 -25s-44 8 -60 25c-16 16 -24 38 -24 59c0 22 8 44 25 61c16 16 37 25 59 25c21 0 43 -9 60 -25c17 -17 25 -39 25 -61c0 -21 -8 -43 -24 -59zM315 -137c-17 -17 -38 -25 -60 -25s-44 8 -60 25c-17 16 -25 38 -25 60s8 43 25 60
c16 16 37 25 59 25c21 0 43 -9 60 -25c17 -17 25 -39 25 -61c0 -21 -8 -43 -24 -59zM841 389c-17 -17 -38 -25 -60 -25s-44 8 -60 25c-17 16 -25 38 -25 60s8 43 25 60c16 16 37 25 59 25c21 0 43 -9 60 -25c17 -17 25 -39 25 -61c0 -21 -8 -43 -24 -59zM240 312
c-17 -17 -38 -25 -60 -25s-44 8 -60 25c-17 16 -25 37 -25 59c0 21 8 43 25 60c16 16 37 25 59 25c21 0 43 -9 60 -25c17 -17 25 -38 25 -60c0 -21 -8 -43 -24 -59zM763 -212c-17 -17 -39 -25 -60 -25c-22 0 -43 8 -59 25c-17 16 -25 38 -25 60s8 43 25 60
c16 16 38 24 59 24c22 0 43 -8 60 -25c16 -17 25 -39 25 -60c0 -22 -9 -43 -25 -59zM490 39c-17 -17 -38 -25 -60 -25s-44 8 -60 25c-16 16 -24 38 -24 59c0 22 8 43 25 60c16 16 37 25 59 25c21 0 43 -9 60 -25c16 -17 25 -39 25 -60c0 -22 -9 -43 -25 -59zM539 -174
c-17 -17 -38 -25 -60 -25c-21 0 -43 8 -59 24c-17 16 -25 38 -25 60s8 43 25 60c16 16 37 25 59 25c21 0 43 -9 60 -25c16 -17 25 -39 25 -60c0 -22 -9 -43 -25 -59zM277 88c-17 -17 -38 -25 -60 -25s-44 8 -60 25c-16 16 -24 38 -24 59c0 22 8 43 25 60c16 16 37 25 59 25
c21 0 43 -9 60 -25c16 -17 25 -39 25 -60c0 -22 -9 -43 -25 -59zM1016 565c-17 -17 -38 -25 -60 -25s-44 8 -60 25c-16 16 -24 38 -24 59c0 22 8 43 25 60c16 16 37 25 59 25c21 0 43 -9 60 -25c16 -17 25 -39 25 -60c0 -22 -9 -43 -25 -59z" />
    <glyph glyph-name="partialdiff" unicode="&#x2202;" horiz-adv-x="535" 
d="M490 241c0 -167 -97 -253 -225 -253c-126 0 -221 85 -221 226c0 128 89 209 212 209c20 0 37 -2 52 -3c-18 25 -42 51 -66 72c-52 46 -129 89 -242 102l80 95c93 -10 218 -64 296 -154c74 -87 114 -185 114 -294zM357 233c0 21 -4 48 -6 65c-19 12 -41 19 -89 19
c-52 0 -83 -37 -83 -105s34 -115 92 -115c59 0 86 57 86 136z" />
    <glyph glyph-name="Delta" unicode="&#x2206;" horiz-adv-x="678" 
d="M643 0h-608l244 638h124zM461 115l-126 347l-132 -347h258z" />
    <glyph glyph-name="product" unicode="&#x220f;" horiz-adv-x="717" 
d="M682 0h-273v100h69v439h-238v-439h69v-100h-274v100h73v439h-73v114h647v-114h-72v-439h72v-100z" />
    <glyph glyph-name="summation" unicode="&#x2211;" horiz-adv-x="507" 
d="M472 114l-36 -113h-401l1 90l240 252l-237 252l32 92h397l-39 -112h-208l221 -229l-230 -232h260z" />
    <glyph glyph-name="minus" unicode="&#x2212;" horiz-adv-x="577" 
d="M532 223h-487v103h487v-103z" />
    <glyph glyph-name="uni2219" unicode="&#x2219;" horiz-adv-x="268" 
d="M223 273c0 -48 -40 -88 -90 -88c-49 0 -88 40 -88 89s40 90 90 90c49 0 88 -41 88 -91z" />
    <glyph glyph-name="radical" unicode="&#x221a;" horiz-adv-x="600" 
d="M595 722l-266 -730h-109l-149 426h-66v94h166l87 -239c8 -21 13 -53 19 -73c5 16 11 45 17 63l165 459h136z" />
    <glyph glyph-name="infinity" unicode="&#x221e;" horiz-adv-x="958" 
d="M923 262c0 -128 -110 -185 -203 -185c-64 0 -124 23 -172 57l-73 51l-66 -48c-58 -42 -113 -61 -176 -61c-80 0 -198 37 -198 178c0 132 108 186 205 186c62 0 124 -24 179 -62l66 -46l67 50c54 40 118 59 175 59c80 0 196 -38 196 -179zM792 261c0 37 -29 64 -73 64
c-32 0 -73 -17 -102 -39l-33 -25l50 -33c26 -17 54 -32 85 -32c56 0 73 35 73 65zM374 255l-49 35c-25 18 -54 30 -85 30c-56 0 -73 -35 -73 -65c0 -37 29 -64 73 -64c33 0 72 19 102 41z" />
    <glyph glyph-name="uni2224" unicode="&#x2224;" horiz-adv-x="268" 
d="M223 273c0 -48 -40 -88 -90 -88c-49 0 -88 40 -88 89s40 90 90 90c49 0 88 -41 88 -91z" />
    <glyph glyph-name="logicaland" unicode="&#x2227;" horiz-adv-x="268" 
d="M223 273c0 -48 -40 -88 -90 -88c-49 0 -88 40 -88 89s40 90 90 90c49 0 88 -41 88 -91z" />
    <glyph glyph-name="integral" unicode="&#x222b;" horiz-adv-x="242" 
d="M397 692l-53 -109c-32 22 -49 31 -66 31c-29 0 -43 -24 -46 -65l-42 -574c-6 -79 -35 -113 -73 -140c-28 -20 -60 -31 -101 -31c-32 0 -79 12 -121 35l53 110c32 -22 49 -31 66 -31c29 0 43 25 46 64l42 574c6 79 34 114 72 141c28 20 61 30 102 30c32 0 79 -12 121 -35z
" />
    <glyph glyph-name="approxequal" unicode="&#x2248;" horiz-adv-x="572" 
d="M517 362c-22 -42 -58 -86 -125 -86c-34 0 -73 15 -111 32c-37 16 -75 36 -102 36c-40 0 -65 -37 -88 -68l-36 108c22 42 58 86 125 86c34 0 73 -15 111 -32c37 -16 75 -36 102 -36c40 0 65 37 88 68zM517 162c-22 -42 -58 -86 -125 -86c-34 0 -73 15 -111 32
c-37 16 -75 36 -102 36c-40 0 -65 -37 -88 -68l-36 108c22 42 58 86 125 86c34 0 73 -15 111 -32c37 -16 75 -36 102 -36c40 0 65 37 88 68z" />
    <glyph glyph-name="notequal" unicode="&#x2260;" horiz-adv-x="658" 
d="M300 336h-245v126h315l91 153l80 -49l-33 -55c-11 -18 -38 -49 -38 -49h133v-126h-208l-37 -66h245v-126h-315l-91 -153l-80 49l33 55c11 18 38 49 38 49h-133v126h208z" />
    <glyph glyph-name="lessequal" unicode="&#x2264;" horiz-adv-x="443" 
d="M408 116l-383 142v96l383 178v-131l-206 -87l206 -70v-128zM408 0h-383v109h383v-109z" />
    <glyph glyph-name="greaterequal" unicode="&#x2265;" horiz-adv-x="443" 
d="M418 258l-383 -142v130l206 68l-206 87v131l383 -178v-96zM418 0h-383v109h383v-109z" />
    <glyph glyph-name="dotmath" unicode="&#x22c5;" horiz-adv-x="268" 
d="M223 273c0 -48 -40 -88 -90 -88c-49 0 -88 40 -88 89s40 90 90 90c49 0 88 -41 88 -91z" />
    <glyph glyph-name="H18543" unicode="&#x25aa;" horiz-adv-x="834" 
d="M789 -18h-744v744h744v-744z" />
    <glyph glyph-name="H18551" unicode="&#x25ab;" horiz-adv-x="834" 
d="M789 -18h-744v744h744v-744zM689 82v544h-544v-544h544z" />
    <glyph glyph-name="uni25B4" unicode="&#x25b4;" horiz-adv-x="516" 
d="M436 157h-356l178 386z" />
    <glyph glyph-name="uni25B8" unicode="&#x25b8;" horiz-adv-x="516" 
d="M451 350l-386 -178v356z" />
    <glyph glyph-name="uni25BE" unicode="&#x25be;" horiz-adv-x="516" 
d="M436 543l-178 -386l-178 386h356z" />
    <glyph glyph-name="uni25C2" unicode="&#x25c2;" horiz-adv-x="516" 
d="M451 172l-386 178l386 178v-356z" />
    <glyph glyph-name="lozenge" unicode="&#x25ca;" horiz-adv-x="572" 
d="M527 344l-185 -344h-116l-181 344l181 343h116zM403 344l-122 259l-118 -259l118 -260z" />
    <glyph glyph-name="circle" unicode="&#x25cb;" horiz-adv-x="834" 
d="M789 354c0 -205 -167 -372 -372 -372s-372 167 -372 372s167 372 372 372s372 -167 372 -372zM687 354c0 155 -121 282 -270 282s-270 -127 -270 -282s121 -282 270 -282s270 127 270 282z" />
    <glyph glyph-name="H18533" unicode="&#x25cf;" horiz-adv-x="834" 
d="M789 354c0 -205 -167 -372 -372 -372s-372 167 -372 372s167 372 372 372s372 -167 372 -372z" />
    <glyph glyph-name="uni2610" unicode="&#x2610;" horiz-adv-x="834" 
d="M789 -18h-744v744h744v-744zM689 82v544h-544v-544h544z" />
    <glyph glyph-name="uniFB06" unicode="&#xfb06;" horiz-adv-x="828" 
d="M311 141c0 35 -25 53 -79 63c-64 12 -113 16 -154 63c-19 21 -29 59 -29 92c0 100 79 167 198 167c9 0 17 0 26 -1c-11 14 -20 32 -20 60c0 95 92 156 198 156c80 0 161 -22 239 -44v-185h120l-34 -92h-86v-257c0 -65 12 -82 58 -82c12 0 24 3 48 10l17 -80
c-39 -16 -74 -23 -109 -23c-68 0 -122 30 -138 75c-8 22 -9 32 -9 79v278h-51v92h51v116c-31 11 -63 25 -109 25c-44 0 -102 -25 -102 -76c0 -28 13 -65 60 -87c8 -4 17 -8 24 -12l-44 -90c-51 26 -88 37 -126 37c-39 0 -65 -20 -65 -50c0 -26 17 -40 64 -52l62 -16
c63 -16 84 -35 102 -58c19 -24 28 -53 28 -87c0 -106 -88 -178 -219 -178c-63 0 -132 20 -207 59l48 98c41 -25 112 -58 170 -58c38 0 68 25 68 58z" />
    <glyph glyph-name="parenleft.case" horiz-adv-x="322" 
d="M342 -49l-35 -78c-97 33 -173 107 -214 207c-22 54 -34 116 -40 206c-2 29 -3 55 -3 78c0 68 8 140 20 190c14 59 47 120 90 167c40 43 89 78 145 102l35 -79c-28 -20 -37 -27 -54 -44c-34 -34 -60 -75 -75 -121c-13 -37 -20 -73 -23 -131c-2 -29 -2 -57 -2 -82
c0 -45 3 -102 8 -154c8 -72 21 -118 47 -164c25 -45 50 -69 101 -97z" />
    <glyph glyph-name="parenright.case" horiz-adv-x="320" 
d="M280 335c0 -69 -6 -142 -19 -193c-15 -59 -48 -119 -91 -166c-40 -44 -88 -78 -146 -102l-34 79c28 20 36 27 54 44c34 34 60 74 76 121c12 36 18 73 22 131c2 30 3 58 3 84c0 44 -2 101 -8 152c-8 72 -19 117 -46 164c-26 45 -50 69 -101 97l35 78
c97 -34 174 -106 214 -208c21 -54 33 -116 39 -206c2 -28 2 -53 2 -75z" />
    <glyph glyph-name="hyphen.case" horiz-adv-x="330" 
d="M290 290h-240v116h240v-116z" />
    <glyph glyph-name="bracketleft.case" horiz-adv-x="310" 
d="M290 -96h-210v888h210v-90h-90v-708h90v-90z" />
    <glyph glyph-name="bracketright.case" horiz-adv-x="310" 
d="M240 -96h-210v90h90v708h-90v90h210v-888z" />
    <glyph glyph-name="braceleft.case" horiz-adv-x="392" 
d="M372 -96h-105c-71 0 -129 42 -129 146v172c0 62 -83 69 -108 69v114c25 0 108 7 108 69v173c0 104 55 145 129 145h105v-114h-49c-61 0 -65 -37 -65 -64v-161c0 -93 -58 -100 -100 -104v-2c42 -3 100 -10 100 -103v-162c0 -27 4 -64 65 -64h49v-114z" />
    <glyph glyph-name="braceright.case" horiz-adv-x="392" 
d="M372 291c-28 0 -108 -7 -108 -69v-173c0 -104 -55 -145 -129 -145h-105v114h49c61 0 65 37 65 64v161c0 93 58 100 100 104v2c-42 3 -100 10 -100 103v162c0 27 -4 64 -65 64h-49v114h108c68 0 126 -42 126 -146v-172c0 -62 80 -69 108 -69v-114z" />
    <glyph glyph-name="guillemotleft.case" horiz-adv-x="552" 
d="M527 175l-91 -61l-159 234l159 234l91 -61l-116 -173zM285 175l-91 -61l-159 234l159 234l91 -61l-116 -173z" />
    <glyph glyph-name="uni00AD.case" horiz-adv-x="330" 
d="M290 290h-240v116h240v-116z" />
    <glyph glyph-name="guillemotright.case" horiz-adv-x="552" 
d="M527 348l-159 -234l-91 61l116 173l-116 173l91 61zM285 348l-159 -234l-91 61l116 173l-116 173l91 61z" />
    <glyph glyph-name="endash.case" horiz-adv-x="577" 
d="M537 296h-487v103h487v-103z" />
    <glyph glyph-name="emdash.case" horiz-adv-x="803" 
d="M763 296h-713v103h713v-103z" />
    <glyph glyph-name="guilsinglleft.case" horiz-adv-x="310" 
d="M285 175l-91 -61l-159 234l159 234l91 -61l-116 -173z" />
    <glyph glyph-name="guilsinglright.case" horiz-adv-x="310" 
d="M285 348l-159 -234l-91 61l116 173l-116 173l91 61z" />
    <glyph glyph-name="zero.dnom" horiz-adv-x="345" 
d="M325 200c0 -122 -60 -208 -153 -208c-96 0 -152 85 -152 206c0 123 59 208 152 208c96 0 153 -85 153 -206zM215 197c0 119 -24 134 -43 134c-37 0 -43 -54 -43 -130c0 -119 24 -134 43 -134c37 0 43 54 43 130z" />
    <glyph glyph-name="one.dnom" horiz-adv-x="294" 
d="M274 0h-215v81h64v208c-21 -11 -45 -24 -75 -34l-28 56l134 89h68v-319h52v-81z" />
    <glyph glyph-name="two.dnom" horiz-adv-x="354" 
d="M334 83l-23 -83h-275v67c26 24 76 71 103 100c53 55 62 88 62 111c0 34 -16 42 -39 42c-22 0 -45 -10 -86 -42l-56 63c52 44 100 65 165 65c77 0 127 -49 127 -119c0 -77 -90 -155 -146 -205c12 0 25 1 35 1h133z" />
    <glyph glyph-name="three.dnom" horiz-adv-x="346" 
d="M326 126c0 -88 -96 -144 -222 -144c-19 0 -27 0 -57 4l-27 74c35 -6 43 -7 61 -7c82 0 130 35 130 79c0 41 -41 41 -72 41h-40v81c17 -2 34 -4 51 -4c42 0 57 17 57 39c0 19 -11 33 -41 33c-37 0 -66 -16 -91 -36l-54 64c46 34 95 56 155 56c78 0 140 -45 140 -109
c0 -36 -17 -64 -47 -84c36 -18 57 -49 57 -87z" />
    <glyph glyph-name="four.dnom" horiz-adv-x="356" 
d="M336 71h-37l-7 1c0 -3 1 -7 1 -11v-75l-96 -11v91l1 5h-178v63l109 267h105l-84 -207c-6 -14 -13 -27 -19 -38h69c0 50 6 91 11 141l82 18v-104c0 -13 1 -39 0 -49l-1 -7c3 0 7 1 9 1h35v-85z" />
    <glyph glyph-name="five.dnom" horiz-adv-x="316" 
d="M296 137c0 -92 -85 -155 -199 -155c-20 0 -27 0 -53 5l-24 79c39 -10 55 -12 71 -12c60 0 98 32 98 74c0 31 -21 53 -55 53c-23 0 -46 -2 -98 -18l20 236h226l-15 -84h-117l-7 -58c5 1 10 1 17 1c79 0 136 -50 136 -121z" />
    <glyph glyph-name="six.dnom" horiz-adv-x="351" 
d="M331 132c0 -80 -66 -140 -150 -140c-94 0 -161 72 -161 171c0 120 85 200 189 247c24 11 32 14 65 24l23 -73c-65 -25 -118 -46 -152 -109c13 5 32 11 48 11c78 0 138 -57 138 -131zM227 131c0 33 -18 52 -45 52c-21 0 -40 -7 -53 -14c-1 -9 -1 -22 -1 -31
c0 -46 20 -69 49 -69s50 22 50 62z" />
    <glyph glyph-name="seven.dnom" horiz-adv-x="341" 
d="M321 399l-16 -80c-23 -31 -43 -63 -60 -93c-11 -20 -60 -117 -72 -173l-12 -58l-110 -26c25 98 53 181 101 270c18 34 32 55 45 73l-10 -1h-167l23 88h278z" />
    <glyph glyph-name="eight.dnom" horiz-adv-x="369" 
d="M349 114c0 -57 -43 -104 -105 -119c-20 -5 -44 -7 -66 -7c-41 0 -72 7 -100 23c-38 22 -58 55 -58 96c0 40 23 78 58 98c-30 20 -47 51 -47 86c0 70 65 115 154 115c84 0 148 -43 148 -109c0 -36 -23 -68 -59 -85c43 -20 75 -49 75 -98zM238 103c0 16 -5 29 -18 37
c-14 9 -35 17 -61 26c-20 -12 -30 -32 -30 -53c0 -30 21 -51 58 -51c32 0 51 19 51 41zM224 299c0 19 -13 33 -45 33c-29 0 -45 -15 -45 -34c0 -25 31 -39 51 -47c19 9 39 26 39 48z" />
    <glyph glyph-name="nine.dnom" horiz-adv-x="349" 
d="M329 240c0 -80 -34 -146 -102 -201c-37 -30 -87 -58 -137 -75l-59 64c67 17 131 63 158 103c-9 -2 -20 -6 -30 -6c-79 0 -139 59 -139 137c0 83 66 144 155 144c96 0 154 -64 154 -166zM222 261c0 46 -20 68 -48 68c-26 0 -47 -22 -47 -64c0 -38 21 -62 51 -62
c16 0 27 4 39 11c3 12 5 32 5 47z" />
    <glyph glyph-name="germandbls.hist" horiz-adv-x="758" 
d="M299 741c43 0 86 -18 114 -31l-55 -92c-18 11 -35 20 -60 20c-35 0 -62 -25 -69 -59c-3 -15 -3 -33 -3 -70v-509h-136v408h-82v104h82v32c0 59 4 99 50 141c28 26 63 43 104 51c17 3 35 5 55 5zM728 162c0 -106 -88 -178 -219 -178c-63 0 -132 20 -207 59l48 98
c41 -25 112 -58 170 -58c38 0 68 25 68 58c0 35 -25 53 -79 63c-64 12 -113 16 -154 63c-19 21 -29 59 -29 92c0 100 79 167 198 167c82 0 136 -25 183 -48l-44 -90c-51 26 -88 37 -126 37c-39 0 -65 -20 -65 -50c0 -26 17 -40 64 -52l62 -16c63 -16 84 -35 102 -58
c19 -24 28 -53 28 -87z" />
    <glyph glyph-name="grave.lc" horiz-adv-x="543" 
d="M363 631l-41 -74l-224 100l58 104z" />
    <glyph glyph-name="dieresis.lc" horiz-adv-x="543" 
d="M453 635c0 -42 -35 -77 -77 -77s-76 35 -76 77s35 77 78 77c41 0 75 -35 75 -77zM242 635c0 -42 -35 -77 -77 -77c-41 0 -76 35 -76 77s36 77 78 77c41 0 75 -35 75 -77z" />
    <glyph glyph-name="macron.lc" horiz-adv-x="364" 
d="M339 558h-314v78h314v-78z" />
    <glyph glyph-name="acute.lc" horiz-adv-x="543" 
d="M417 657l-224 -100l-41 74l207 130z" />
    <glyph glyph-name="circumflex.lc" horiz-adv-x="543" 
d="M454 625l-45 -73l-139 76l-135 -76l-45 73l180 135z" />
    <glyph glyph-name="caron.lc" horiz-adv-x="479" 
d="M425 689l-180 -135l-184 135l45 73l139 -76l135 76z" />
    <glyph glyph-name="breve.lc" horiz-adv-x="391" 
d="M383 676c-13 -16 -101 -121 -187 -121c-84 0 -171 98 -190 124l43 54c21 -20 81 -68 151 -68c58 0 128 53 147 68z" />
    <glyph glyph-name="dotaccent.lc" horiz-adv-x="215" 
d="M190 653c0 -46 -37 -83 -83 -83c-45 0 -82 37 -82 83s38 83 84 83c45 0 81 -37 81 -83z" />
    <glyph glyph-name="ring.lc" horiz-adv-x="522" 
d="M366 659c0 -58 -48 -106 -106 -106c-57 0 -104 48 -104 106s49 106 106 106s104 -48 104 -106zM311 659c0 28 -22 51 -49 51c-29 0 -52 -23 -52 -51s23 -51 50 -51c28 0 51 23 51 51z" />
    <glyph glyph-name="tilde.lc" horiz-adv-x="543" 
d="M452 639c-30 -39 -65 -58 -124 -58c-61 0 -73 34 -131 34c-27 0 -51 -11 -68 -29l-41 75c28 35 68 58 124 58c59 0 73 -34 131 -34c28 0 51 11 68 30z" />
    <glyph glyph-name="hungarumlaut.lc" horiz-adv-x="471" 
d="M219 774l-116 -217l-78 34l83 229zM446 756l-147 -196l-72 46l117 213z" />
    <glyph glyph-name="diedot.lc" horiz-adv-x="543" 
d="M242 635c0 -42 -35 -77 -77 -77c-41 0 -76 35 -76 77s36 77 78 77c41 0 75 -35 75 -77z" />
    <glyph glyph-name="zero.lf" horiz-adv-x="565" 
d="M520 333c0 -210 -97 -347 -238 -347c-146 0 -237 135 -237 344c0 211 97 347 238 347c146 0 237 -135 237 -344zM371 329c0 203 -37 250 -88 250c-68 0 -89 -99 -89 -244c0 -203 37 -251 88 -251c68 0 89 100 89 245z" />
    <glyph glyph-name="one.lf" horiz-adv-x="418" 
d="M192 0v513c-37 -23 -89 -48 -133 -63l-34 72l207 145h91v-667h-131z" />
    <glyph glyph-name="two.lf" horiz-adv-x="568" 
d="M523 112l-29 -112h-429v94c39 38 121 120 167 170c89 98 109 159 109 205c0 69 -37 90 -83 90c-43 0 -85 -20 -141 -66l-72 85c72 64 149 99 252 99c119 0 195 -78 195 -191c0 -72 -46 -149 -117 -227c-30 -33 -75 -78 -119 -119c-10 -10 -28 -26 -38 -33
c22 3 72 5 105 5h200z" />
    <glyph glyph-name="three.lf" horiz-adv-x="538" 
d="M493 204c0 -138 -145 -234 -352 -234c-31 0 -45 0 -83 5l-32 93c31 -6 44 -7 76 -7c139 0 234 63 234 154c0 33 -17 64 -44 76c-19 9 -49 12 -93 12c-17 0 -34 -1 -51 -1v112c23 -3 46 -4 69 -4c74 0 111 26 111 79c0 43 -27 75 -85 75c-67 0 -118 -31 -148 -56l-70 85
c67 52 151 84 236 84c125 0 216 -74 216 -174c0 -73 -46 -129 -103 -147c75 -25 119 -82 119 -152z" />
    <glyph glyph-name="four.lf" horiz-adv-x="563" 
d="M528 125h-45c-19 0 -31 2 -31 2s5 -13 5 -36v-115l-127 -16v143c0 9 2 25 2 25s-12 -3 -32 -3h-265v91l193 453h138l-142 -338c-16 -38 -34 -73 -47 -93c0 0 11 2 21 2h113c12 0 24 -1 24 -1s-1 13 -1 18c0 28 2 84 7 133l11 117l105 24v-197c0 -23 -1 -67 -3 -95
c0 0 20 1 32 1h42v-115z" />
    <glyph glyph-name="five.lf" horiz-adv-x="500" 
d="M455 224c0 -148 -131 -254 -315 -254c-32 0 -44 1 -76 7l-29 99c38 -10 65 -14 94 -14c106 0 181 60 181 146c0 64 -44 106 -109 106c-41 0 -82 -8 -146 -28l32 379h341l-20 -114h-196l-14 -138c21 4 29 5 47 5c124 0 210 -80 210 -194z" />
    <glyph glyph-name="six.lf" horiz-adv-x="575" 
d="M530 214c0 -129 -102 -228 -234 -228c-146 0 -251 117 -251 282c0 120 50 224 138 306c69 65 166 116 257 145l29 -96c-82 -33 -150 -59 -206 -131c-24 -30 -43 -65 -54 -100c27 22 64 33 107 33c121 0 214 -92 214 -211zM389 212c0 64 -35 105 -91 105
c-32 0 -64 -10 -104 -33c-2 -19 -3 -40 -3 -60c0 -85 37 -135 99 -135c60 0 99 48 99 123z" />
    <glyph glyph-name="seven.lf" horiz-adv-x="510" 
d="M490 665l-22 -117c-36 -52 -70 -108 -99 -161c-33 -60 -108 -221 -127 -326l-13 -70l-147 -37c27 112 44 163 72 240c27 72 52 131 88 201c40 78 62 111 93 153c-11 -3 -26 -4 -40 -4h-265l30 121h430z" />
    <glyph glyph-name="eight.lf" horiz-adv-x="605" 
d="M560 183c0 -56 -25 -106 -67 -142c-55 -48 -130 -61 -201 -61c-120 0 -247 52 -247 192c0 75 48 144 118 169c-65 25 -99 91 -99 151c0 110 97 185 240 185c135 0 230 -72 230 -174c0 -68 -51 -127 -129 -148c79 -27 155 -77 155 -172zM409 165c0 33 -12 55 -38 72
s-66 35 -113 51c-42 -24 -64 -61 -64 -106c0 -63 44 -103 113 -103c60 0 102 35 102 86zM385 507c0 46 -32 72 -91 72c-55 0 -92 -30 -92 -75c0 -55 60 -76 102 -95c40 20 81 48 81 98z" />
    <glyph glyph-name="nine.lf" horiz-adv-x="566" 
d="M521 404c0 -134 -54 -245 -164 -338c-61 -51 -141 -98 -212 -123l-73 82c108 28 234 130 264 214c-30 -14 -52 -19 -81 -19c-122 0 -215 96 -215 223c0 135 102 234 242 234c149 0 239 -103 239 -273zM376 440c0 84 -37 134 -97 134c-57 0 -94 -50 -94 -127
c0 -72 40 -119 101 -119c33 0 54 10 80 37c7 24 10 46 10 75z" />
    <glyph glyph-name="less.salt" horiz-adv-x="643" 
d="M538 644c0 -47 -37 -85 -84 -85s-85 38 -85 85s38 84 85 84s84 -37 84 -84zM406 459c0 -47 -37 -85 -84 -85s-85 38 -85 85s38 84 85 84s84 -37 84 -84zM274 274c0 -47 -37 -85 -84 -85s-85 38 -85 85s38 84 85 84s84 -37 84 -84zM406 88c0 -47 -37 -84 -84 -84
s-85 37 -85 84s38 85 85 85s84 -38 84 -85zM538 -97c0 -47 -37 -84 -84 -84s-85 37 -85 84s38 85 85 85s84 -38 84 -85z" />
    <glyph glyph-name="greater.salt" horiz-adv-x="643" 
d="M274 644c0 -47 -38 -85 -85 -85s-84 38 -84 85s37 84 84 84s85 -37 85 -84zM406 459c0 -47 -38 -85 -85 -85s-84 38 -84 85s37 84 84 84s85 -37 85 -84zM538 274c0 -47 -38 -85 -85 -85s-84 38 -84 85s37 84 84 84s85 -37 85 -84zM406 88c0 -47 -38 -84 -85 -84
s-84 37 -84 84s37 85 84 85s85 -38 85 -85zM274 -97c0 -47 -38 -84 -85 -84s-84 37 -84 84s37 85 84 85s85 -38 85 -85z" />
    <glyph glyph-name="g.salt" horiz-adv-x="551" 
d="M493 513c-9 -39 -12 -90 -12 -151v-205c0 -102 5 -131 5 -177c0 -152 -101 -199 -232 -199c-75 0 -142 16 -189 38l23 105c41 -17 106 -36 165 -36c69 0 104 31 104 81c0 18 -2 47 -3 64c-25 -27 -59 -42 -99 -42c-154 0 -215 121 -215 257c0 92 19 190 102 243
c33 21 74 34 110 34c53 0 109 -24 120 -52c1 18 3 25 10 40h111zM354 137v241c-19 20 -47 35 -77 35c-22 0 -45 -10 -58 -23c-29 -29 -32 -80 -32 -125c0 -66 0 -167 90 -167c30 0 61 20 77 39z" />
    <glyph glyph-name="pi.salt" horiz-adv-x="597" 
d="M562 17c-44 -22 -63 -27 -91 -27c-31 0 -57 10 -76 28c-21 19 -33 44 -33 90v305h-131v-271c0 -89 -7 -106 -26 -142h-134c26 58 30 88 30 150v263h-66v110h522v-110h-65v-291c0 -16 3 -24 11 -24c15 0 25 4 30 10z" />
    <glyph glyph-name="a.sc" horiz-adv-x="524" 
d="M527 0h-143l-42 116h-162l-39 -116h-144l199 550h145zM314 217l-51 213l-54 -213h105z" />
    <glyph glyph-name="b.sc" horiz-adv-x="563" 
d="M518 155c0 -91 -58 -155 -210 -155h-223v548h240c104 0 171 -54 171 -138c0 -56 -30 -99 -79 -119c68 -28 101 -71 101 -136zM364 170c0 41 -24 60 -77 60h-65v-125h65c49 0 77 21 77 65zM356 388c0 26 -11 53 -70 53h-67v-104h61c60 0 76 16 76 51z" />
    <glyph glyph-name="c.sc" horiz-adv-x="533" 
d="M498 45c-47 -37 -98 -54 -168 -54c-79 0 -143 14 -191 59c-57 53 -84 122 -84 209c0 73 13 130 44 180c47 77 135 121 232 121c59 0 123 -20 154 -43l-61 -88c-29 17 -61 28 -90 28c-33 0 -70 -15 -89 -34c-28 -28 -37 -71 -37 -133c0 -79 6 -122 26 -150
c23 -32 56 -49 104 -49c36 0 63 8 99 32z" />
    <glyph glyph-name="d.sc" horiz-adv-x="587" 
d="M532 270c0 -159 -91 -251 -213 -267c-23 -3 -51 -3 -93 -3h-141v548h120c36 0 89 0 112 -3c134 -16 215 -110 215 -275zM380 258c0 119 -22 189 -107 189h-50v-341h66c49 0 91 34 91 152z" />
    <glyph glyph-name="e.sc" horiz-adv-x="464" 
d="M439 0h-354v548h348l-20 -106h-192v-102h161v-107h-160v-122h217v-111z" />
    <glyph glyph-name="f.sc" horiz-adv-x="418" 
d="M413 548l-16 -104h-177v-107h140v-107h-140v-230h-135v548h328z" />
    <glyph glyph-name="g.sc" horiz-adv-x="612" 
d="M537 46c-69 -35 -136 -51 -210 -51c-95 0 -161 28 -210 87c-43 51 -62 107 -62 186c0 175 110 289 279 289c74 0 146 -23 200 -64l-73 -81c-38 28 -80 43 -126 43c-96 0 -127 -55 -127 -194c0 -135 44 -172 125 -172c23 0 40 5 59 12v106h-79l-20 104h244v-265z" />
    <glyph glyph-name="h.sc" horiz-adv-x="593" 
d="M508 0h-139v234h-147v-234h-137v548h137v-205h147v205h139v-548z" />
    <glyph glyph-name="i.sc" horiz-adv-x="311" 
d="M226 0h-141v548h141v-548z" />
    <glyph glyph-name="j.sc" horiz-adv-x="311" 
d="M226 112c0 -59 -2 -84 -6 -103c-16 -76 -94 -126 -151 -146l-64 66c31 20 62 51 73 73c9 19 11 38 11 96v450h137v-436z" />
    <glyph glyph-name="k.sc" 
d="M575 0h-181l-170 284v-284h-139v548h139v-246l153 246h169l-176 -253z" />
    <glyph glyph-name="l.sc" horiz-adv-x="439" 
d="M434 110l-29 -110h-320v548h138v-438h211z" />
    <glyph glyph-name="m.sc" horiz-adv-x="775" 
d="M710 0h-134l-17 283c-2 27 -5 103 -5 107c-2 -7 -21 -77 -29 -104l-82 -286h-117l-75 277c-7 24 -26 117 -28 126c0 -2 -3 -93 -5 -126l-15 -277h-138l59 548h173l69 -265c9 -34 20 -98 22 -107c1 5 15 81 24 112l72 260h170z" />
    <glyph glyph-name="n.sc" horiz-adv-x="593" 
d="M508 0h-140l-102 224c-23 51 -62 150 -62 150s5 -128 6 -165l3 -209h-128v548h149l106 -211c22 -45 50 -127 53 -136c-1 5 -9 108 -9 146l-2 201h126v-548z" />
    <glyph glyph-name="o.sc" horiz-adv-x="641" 
d="M586 279c0 -171 -87 -287 -259 -287c-174 0 -272 115 -272 278c0 180 102 284 267 284c155 0 264 -92 264 -275zM430 279c0 111 -25 178 -110 178c-81 0 -113 -67 -113 -191c0 -138 36 -178 113 -178c71 0 110 46 110 191z" />
    <glyph glyph-name="p.sc" horiz-adv-x="533" 
d="M508 374c0 -78 -46 -151 -119 -170c-40 -10 -61 -11 -113 -11h-55v-193h-136v548h155c114 0 144 -12 178 -27c58 -26 90 -83 90 -147zM361 374c0 40 -21 72 -77 72h-63v-148h62c55 0 78 17 78 76z" />
    <glyph glyph-name="q.sc" horiz-adv-x="641" 
d="M646 -10l-30 -80c-13 -7 -29 -12 -57 -12c-50 0 -89 25 -108 37c-24 15 -82 44 -123 57c-164 0 -273 102 -273 278c0 173 109 284 267 284c149 0 264 -94 264 -275c0 -107 -42 -198 -110 -246c17 -8 32 -20 39 -24c23 -13 52 -21 74 -21c20 0 41 0 57 2zM429 279
c0 113 -25 178 -109 178c-86 0 -113 -80 -113 -191c0 -137 31 -178 112 -178c82 0 110 67 110 191z" />
    </font>
</defs>
</svg>
